{"glyphs":{"0":{"ha":744,"x_min":15,"x_max":717,"o":"m 15 308 q 49 190 15 243 q 134 99 82 136 q 249 40 186 61 q 374 19 313 19 q 480 43 421 19 q 592 106 539 67 q 681 195 644 144 q 717 300 717 246 q 688 414 717 351 q 612 530 658 476 q 507 619 565 583 q 392 656 449 656 q 253 628 321 656 q 133 553 186 600 q 48 442 81 506 q 15 308 15 379 m 161 381 q 190 493 161 461 q 299 525 219 525 q 397 499 347 525 q 485 432 446 474 q 548 340 524 390 q 572 239 572 289 q 542 168 572 189 q 463 147 511 147 q 358 163 411 147 q 260 208 304 178 q 189 281 217 238 q 161 381 161 324 m 267 340 q 288 281 267 304 q 347 258 310 258 q 379 262 361 258 q 413 273 397 265 q 440 294 429 281 q 450 326 450 307 q 440 363 450 347 q 418 391 431 379 q 396 410 406 403 q 386 417 386 417 q 361 422 376 422 q 297 397 324 419 q 267 340 271 375 z "},"1":{"ha":442,"x_min":15,"x_max":411,"o":"m 15 544 q 23 524 15 529 q 42 519 31 519 l 86 524 q 114 504 110 524 l 146 65 q 176 18 150 38 q 228 -1 203 -1 q 281 13 250 -1 q 342 48 313 26 q 391 96 371 69 q 411 147 411 122 l 306 128 q 273 164 282 128 q 264 253 264 200 l 264 260 l 264 276 q 265 343 264 296 q 269 482 265 390 q 267 553 269 519 q 257 613 264 588 q 237 653 250 639 q 203 668 224 668 q 155 657 186 668 q 92 628 124 646 q 38 588 61 610 q 15 544 15 567 z "},"2":{"ha":696,"x_min":15,"x_max":667,"o":"m 194 58 q 164 52 186 58 q 131 43 142 46 l 81 10 q 66 14 76 10 q 45 23 56 18 q 26 33 35 28 q 17 43 18 39 q 16 54 17 43 q 15 72 15 65 q 44 131 15 110 q 117 164 74 151 q 212 186 161 176 q 306 211 263 196 q 379 252 350 226 q 408 324 408 278 q 404 384 408 346 q 388 459 400 422 q 355 523 376 496 q 299 550 333 550 q 287 549 296 550 q 276 546 278 549 l 131 449 l 131 440 q 117 403 131 418 q 79 388 103 388 q 85 467 79 438 q 106 517 92 497 q 144 553 121 538 q 201 588 168 568 q 213 594 207 589 q 249 619 229 604 q 292 647 269 633 q 336 669 314 660 q 381 678 358 678 q 455 651 425 678 q 503 577 485 624 q 528 468 521 531 q 536 335 536 406 q 508 281 529 307 q 463 228 486 254 q 422 174 440 201 q 404 117 404 146 q 405 113 404 115 q 406 111 406 111 l 529 54 q 540 56 531 54 q 560 58 549 57 q 582 60 571 58 q 601 61 593 61 q 631 60 617 61 q 650 58 644 58 q 660 52 654 58 q 667 43 667 46 q 626 -4 643 17 q 590 -40 608 -25 q 549 -64 571 -56 q 493 -72 526 -72 q 418 -52 454 -72 q 346 -7 382 -32 q 273 38 310 18 q 194 58 236 58 z "},"3":{"ha":599,"x_min":17,"x_max":571,"o":"m 185 231 q 216 201 206 218 q 236 167 226 183 q 260 140 246 151 q 300 128 274 128 l 306 128 q 394 168 364 128 q 424 267 424 208 q 403 338 424 322 q 346 354 382 354 q 310 353 329 354 q 268 351 290 351 q 280 410 268 385 q 306 460 292 436 q 333 511 321 485 q 346 572 346 538 q 265 543 292 572 q 178 489 238 514 q 125 476 146 476 q 89 490 103 476 q 36 549 51 533 q 17 568 21 565 q 33 606 17 590 q 71 632 49 622 q 117 647 93 642 q 157 651 142 651 q 187 646 175 651 q 208 633 199 640 q 226 621 217 626 q 251 615 236 615 q 302 628 279 615 q 347 658 325 642 q 392 687 369 674 q 440 700 414 700 q 478 679 468 700 q 489 635 489 658 q 483 599 489 615 q 471 567 478 583 q 458 535 464 551 q 453 503 453 519 q 472 485 453 496 q 512 455 490 475 q 552 403 533 435 q 571 322 571 371 q 554 252 571 289 q 510 179 538 215 q 447 110 482 143 q 373 53 411 78 q 297 13 335 28 q 228 -1 260 -1 q 148 20 179 -1 q 97 75 117 42 q 82 111 89 93 q 71 150 75 129 l 71 154 q 185 231 71 192 z "},"4":{"ha":722,"x_min":19,"x_max":708,"o":"m 654 618 l 654 50 q 663 11 654 29 q 681 -24 671 -7 q 700 -60 692 -42 q 708 -100 708 -78 q 615 -69 651 -100 q 555 8 578 -37 q 522 104 532 53 q 508 196 511 156 l 508 229 l 508 289 q 508 359 508 322 q 507 429 507 396 q 506 488 507 463 q 504 521 506 513 l 247 261 q 322 247 286 254 q 383 233 357 240 q 426 219 410 226 q 442 204 442 213 q 440 199 442 200 q 349 157 413 167 q 281 147 317 151 q 204 138 244 143 q 110 129 126 129 q 105 130 108 129 q 101 131 101 131 q 87 139 96 132 q 68 154 78 146 q 50 169 58 163 q 38 179 42 176 q 29 186 35 181 q 21 196 24 192 q 20 199 21 196 q 19 204 19 203 q 31 253 19 235 q 60 283 42 272 q 99 303 78 294 q 139 322 119 311 l 431 651 q 460 678 443 664 q 495 704 476 692 q 534 724 514 717 q 574 732 554 732 q 610 726 590 732 q 647 710 629 721 q 677 685 665 700 q 689 651 689 669 q 683 627 689 636 q 658 618 678 618 l 654 618 z "},"5":{"ha":633,"x_min":15,"x_max":586,"o":"m 15 146 q 20 161 17 151 q 31 180 24 171 q 50 196 39 189 q 78 203 61 203 l 89 203 q 91 202 88 203 q 101 200 94 201 q 150 175 138 192 q 167 159 156 168 q 199 140 179 150 q 247 120 224 128 q 303 113 271 113 q 422 131 364 113 q 438 157 435 143 q 440 186 440 171 l 440 203 q 441 213 440 207 q 442 225 442 218 q 438 247 442 236 q 422 260 435 257 q 322 265 385 261 q 197 285 258 269 q 90 333 135 301 q 46 418 46 364 l 46 699 q 64 700 47 700 l 400 700 q 572 672 561 693 q 585 621 585 651 l 585 615 q 536 539 585 546 q 505 544 521 542 q 471 553 489 546 q 401 576 453 569 q 353 584 375 582 q 313 589 331 586 l 175 589 l 178 506 q 195 453 178 472 q 242 424 213 433 q 307 410 271 414 q 382 402 343 406 q 457 393 421 399 q 522 374 493 388 q 569 335 551 360 q 586 269 586 311 q 556 163 586 213 q 478 77 525 114 q 374 19 431 40 q 268 -1 318 -1 q 199 9 242 -1 q 115 38 156 19 q 45 84 75 57 q 15 146 15 111 z "},"6":{"ha":629,"x_min":18,"x_max":603,"o":"m 36 126 q 18 208 18 161 q 31 288 18 249 q 56 381 44 328 q 106 491 79 439 q 175 586 132 543 q 270 657 218 629 q 372 685 322 685 q 418 678 383 685 q 490 657 453 671 q 557 623 528 643 q 586 576 586 603 l 585 568 q 569 546 581 557 q 542 525 557 535 q 513 509 528 515 q 488 503 497 503 q 439 511 463 503 q 391 528 415 519 q 342 546 367 538 q 290 554 317 554 q 234 523 260 554 q 208 442 208 492 q 226 381 208 381 l 231 381 q 247 386 238 382 q 276 394 257 390 q 325 401 294 399 q 406 404 356 404 q 478 393 443 401 q 542 369 514 385 q 586 330 569 353 q 603 276 603 307 q 569 165 603 215 q 485 77 536 114 q 374 19 433 40 q 260 -1 314 -1 l 247 -3 q 201 5 228 -3 q 144 28 174 13 q 87 69 115 44 q 36 126 58 93 m 172 204 q 184 174 172 188 q 212 151 196 161 q 242 136 228 142 q 260 131 256 131 q 271 130 261 131 q 294 128 281 129 q 320 126 307 126 q 342 125 333 125 l 422 131 q 452 153 447 140 q 457 185 457 165 q 430 249 457 219 q 360 286 403 278 q 349 288 358 288 q 320 285 338 288 q 283 281 303 283 q 244 276 264 278 q 208 274 225 274 l 194 274 q 172 204 172 269 z "},"7":{"ha":689,"x_min":21,"x_max":657,"o":"m 640 403 q 654 427 651 414 q 657 456 657 440 l 657 478 q 624 585 657 542 q 540 656 590 629 q 429 693 489 682 q 318 704 369 704 q 235 700 286 704 q 137 681 185 696 q 55 640 89 667 q 21 568 21 613 q 25 540 21 556 q 38 512 29 525 q 58 490 46 499 q 88 481 71 481 q 147 493 117 481 q 213 522 178 506 q 289 550 249 538 q 376 563 329 563 l 413 563 q 446 561 429 563 q 476 554 463 560 q 499 540 490 549 q 508 514 508 531 q 508 504 508 510 q 506 497 507 499 q 401 360 451 424 q 295 235 350 296 q 178 113 240 174 q 39 -14 115 53 q 38 -21 38 -15 l 38 -31 q 58 -91 38 -60 q 103 -139 79 -122 q 384 124 246 -17 q 640 403 522 264 z "},"8":{"ha":638,"x_min":13,"x_max":606,"o":"m 17 114 q 13 146 13 122 q 17 193 13 168 q 32 233 21 218 q 65 274 46 263 q 92 294 74 279 q 143 332 111 308 q 79 360 94 339 q 64 413 64 381 l 64 428 q 88 524 64 478 q 152 606 113 571 q 242 661 192 640 q 342 682 292 682 q 399 678 363 682 q 469 660 435 674 q 531 622 506 649 q 568 529 556 594 q 556 471 568 513 q 529 434 549 453 q 476 400 510 415 q 535 381 513 390 q 572 358 558 371 q 592 330 586 346 q 601 293 599 314 q 606 253 606 272 q 574 151 606 197 q 498 71 543 104 q 401 19 453 38 q 310 0 350 0 q 236 6 281 0 q 147 24 192 11 q 66 60 103 38 q 17 114 29 82 m 197 250 q 193 213 193 229 q 198 178 193 193 q 213 157 203 163 q 273 128 242 143 q 338 113 304 113 q 422 144 386 113 q 457 228 457 175 q 442 269 457 257 q 401 289 428 281 l 283 299 q 228 283 250 297 q 197 250 207 268 m 336 407 q 392 449 372 431 q 413 486 413 467 q 396 521 413 504 q 381 532 392 525 q 351 546 369 539 q 310 558 333 553 q 260 564 288 564 l 243 564 q 193 506 193 564 q 198 460 193 479 q 228 422 203 442 q 274 415 242 422 q 336 407 306 408 z "},"9":{"ha":631,"x_min":17,"x_max":600,"o":"m 583 556 q 597 513 593 532 q 600 474 600 493 q 587 376 600 429 q 552 272 574 324 q 502 173 531 219 q 443 96 474 126 q 349 26 400 53 q 247 -1 297 -1 q 201 6 236 -1 q 129 26 167 13 q 63 59 92 39 q 33 106 33 79 l 35 114 q 51 135 39 124 q 77 157 63 147 q 106 174 92 167 q 132 181 121 181 q 182 172 157 181 q 233 154 207 164 q 285 136 258 144 q 338 128 311 128 q 390 158 369 128 q 410 238 410 189 q 389 303 410 303 q 349 296 374 297 q 296 294 325 294 l 238 294 l 225 294 q 213 296 214 294 q 141 305 176 299 q 78 324 106 311 q 33 356 50 336 q 17 406 17 375 q 50 517 17 465 q 135 606 83 568 q 246 664 186 643 q 360 685 306 685 l 368 685 q 415 677 389 685 q 471 654 442 669 q 529 615 500 639 q 583 556 558 590 m 447 478 q 435 508 447 494 q 408 532 424 522 q 378 547 392 542 q 360 553 364 553 q 349 554 357 553 q 331 558 342 556 q 308 562 319 560 q 286 564 296 564 l 278 564 l 197 553 q 167 529 172 542 q 163 497 163 517 q 190 444 163 463 q 260 419 217 426 q 325 410 288 414 q 394 406 363 406 q 408 406 401 406 q 422 408 415 407 q 447 478 447 413 z "}," ":{"ha":467,"x_min":0,"x_max":0,"o":""},"!":{"ha":342,"x_min":11,"x_max":306,"o":"m 113 468 q 115 516 113 499 q 120 548 117 533 q 126 581 124 563 q 128 631 128 599 q 110 682 128 669 q 69 697 92 694 q 29 699 47 699 q 11 717 11 700 q 31 751 11 736 q 79 778 51 767 q 136 794 107 789 q 183 800 165 800 q 231 785 213 800 q 258 748 249 769 q 270 703 267 726 q 274 665 274 681 l 258 526 l 260 506 l 260 418 q 269 399 265 407 q 278 380 274 390 q 290 354 283 369 q 306 315 296 339 l 286 257 q 242 233 267 233 q 195 252 218 233 q 157 299 172 271 q 123 384 133 339 q 113 468 113 429 m 97 81 q 113 112 100 97 q 142 138 125 126 q 177 156 158 150 q 211 163 196 163 q 238 154 225 163 q 259 133 250 146 q 273 106 268 121 q 278 79 278 92 q 266 51 278 64 q 239 26 254 38 q 206 8 224 15 q 179 0 189 1 l 175 0 q 152 8 165 0 q 126 29 139 17 q 106 55 114 42 q 97 78 97 68 l 97 81 z "},"\"":{"ha":488,"x_min":21,"x_max":453,"o":"m 289 622 l 289 614 q 296 606 290 611 q 306 599 301 600 q 309 597 306 599 q 314 596 313 596 q 368 615 343 596 q 412 661 393 633 q 442 720 431 689 q 453 776 453 751 q 416 863 453 835 q 326 892 379 892 q 272 876 290 892 q 254 824 254 861 q 265 792 254 806 q 288 767 275 779 q 312 743 301 756 q 322 715 322 731 l 322 711 q 317 696 322 707 q 307 672 313 685 q 296 647 301 658 q 289 631 290 635 l 289 622 m 57 622 l 57 614 q 64 606 58 611 q 74 599 69 600 q 76 597 74 599 q 82 596 79 596 q 136 615 111 596 q 180 661 161 633 q 210 720 199 689 q 221 776 221 751 q 184 863 221 835 q 94 892 147 892 q 40 876 58 892 q 21 824 21 861 q 31 792 21 804 q 55 768 42 779 q 78 744 68 757 q 89 715 89 732 l 89 711 q 85 695 89 707 q 75 671 81 683 q 64 647 69 658 q 57 631 58 635 l 57 622 z "},"#":{"ha":764,"x_min":10,"x_max":743,"o":"m 676 267 q 688 275 686 272 q 690 279 690 278 q 692 282 690 281 q 706 283 694 283 q 725 281 714 283 q 736 265 736 279 q 730 249 736 261 q 719 232 724 236 q 677 192 694 208 q 644 167 660 176 q 614 152 629 157 q 579 146 599 147 q 590 97 582 115 q 618 78 599 78 q 638 77 633 78 q 644 76 642 76 q 655 76 650 76 q 675 75 660 75 q 662 27 675 50 q 629 -13 649 4 q 585 -41 610 -31 q 539 -51 561 -51 q 488 -33 515 -51 q 458 15 461 -14 l 450 147 l 433 147 q 400 151 406 147 q 394 160 394 154 q 390 164 394 161 q 353 152 372 157 q 314 146 333 147 q 325 97 317 115 q 353 78 333 78 l 393 58 q 383 13 393 33 q 356 -22 372 -7 q 318 -44 339 -36 q 275 -51 297 -51 q 224 -32 250 -51 q 193 15 197 -12 l 185 147 l 169 147 l 94 168 l 10 157 q 45 236 10 206 q 128 267 81 267 l 178 267 l 171 376 q 144 379 149 376 q 139 386 140 382 q 132 393 138 390 q 101 396 126 396 l 17 386 q 51 465 17 435 q 135 496 86 496 l 161 496 l 161 542 q 151 562 158 558 q 137 567 144 565 q 123 573 129 568 q 117 599 117 578 q 131 639 117 619 q 167 673 146 658 q 210 697 188 688 q 250 706 233 706 q 280 689 268 706 q 299 643 292 672 q 309 576 306 614 q 315 496 313 538 l 418 496 l 428 500 l 426 542 q 418 567 424 560 q 407 578 413 574 q 397 592 401 583 q 393 621 393 600 q 406 659 393 643 q 437 685 418 675 q 477 701 456 696 q 515 706 499 706 q 545 689 533 706 q 564 643 557 672 q 574 576 571 614 q 581 494 578 538 l 644 494 q 678 508 664 504 q 711 513 692 513 q 732 510 721 513 q 743 494 743 508 q 736 478 743 490 q 726 461 729 465 q 722 458 725 460 q 715 451 719 456 q 676 415 692 429 q 645 393 660 401 q 615 381 631 385 q 579 375 600 376 q 578 319 579 346 q 575 267 576 292 l 676 267 m 411 267 q 440 279 428 272 l 436 376 q 407 380 411 376 q 403 386 403 383 q 399 393 403 390 q 358 380 378 383 q 314 375 338 376 q 310 267 314 317 l 411 267 z "},"$":{"ha":631,"x_min":15,"x_max":603,"o":"m 17 197 q 56 160 28 178 q 120 131 85 143 q 194 110 156 118 q 267 101 233 103 l 254 -3 l 338 -3 l 351 101 l 356 103 q 406 114 403 114 q 485 136 442 114 q 571 208 539 161 q 603 300 603 256 q 574 346 603 331 q 500 367 544 361 q 447 378 476 371 q 376 400 417 386 l 383 490 q 449 467 424 475 q 488 458 475 458 q 513 463 497 458 q 544 475 529 468 q 570 491 558 482 q 585 507 582 500 l 586 513 q 560 544 586 531 q 497 567 533 558 q 449 577 476 574 q 390 582 422 581 l 396 686 l 318 692 l 313 589 q 258 567 296 586 q 180 520 219 549 q 110 456 140 492 q 81 385 81 421 l 81 379 q 96 341 82 354 q 136 319 110 328 q 201 305 163 311 q 293 289 240 299 l 279 192 q 191 222 232 203 q 131 256 150 242 l 114 256 q 89 251 106 256 q 56 238 72 246 q 27 220 39 229 q 15 203 15 211 q 17 197 15 199 m 299 400 q 271 396 286 396 q 228 406 247 396 q 210 436 210 417 q 230 478 210 460 q 281 497 250 497 l 308 497 l 299 400 m 372 276 q 383 278 379 278 q 388 279 386 279 l 403 279 q 458 267 435 279 q 481 236 481 256 q 475 213 481 222 q 439 197 469 203 q 418 197 432 197 q 364 192 404 196 l 372 276 z "},"%":{"ha":813,"x_min":15,"x_max":796,"o":"m 528 138 q 538 174 528 160 q 563 197 547 189 q 596 209 578 206 q 631 213 614 213 q 710 192 678 213 q 743 114 743 171 q 716 68 743 86 q 657 50 689 50 q 618 58 636 50 q 556 96 585 74 q 528 138 528 118 m 79 463 q 89 499 79 485 q 114 522 99 514 q 147 534 129 531 q 182 538 165 538 q 262 517 229 538 q 294 439 294 496 q 267 393 294 411 q 208 375 240 375 q 169 383 188 375 q 108 421 136 399 q 79 463 79 443 m 210 17 q 185 1 199 4 q 156 -1 171 -1 l 133 -1 q 67 17 96 -1 q 15 65 39 36 q 26 79 18 69 q 45 99 35 89 q 65 119 56 110 q 79 131 75 128 l 340 325 q 499 472 415 400 q 665 618 582 543 q 672 619 667 618 q 681 619 678 619 q 710 613 690 619 q 749 595 729 606 q 782 572 768 585 q 796 547 796 560 l 796 544 q 749 466 790 508 q 649 378 708 424 q 520 284 590 332 q 387 190 450 236 q 275 99 324 143 q 210 17 226 54 z "},"&":{"ha":585,"x_min":17,"x_max":571,"o":"m 522 228 q 515 150 522 190 q 490 76 508 110 q 440 20 471 42 q 360 -1 408 -1 q 290 13 328 -1 q 213 53 251 28 q 140 110 175 78 q 77 178 104 143 q 33 251 50 214 q 17 322 17 289 q 35 403 17 371 q 75 455 53 435 q 115 485 97 475 q 133 503 133 496 q 128 535 133 519 q 115 567 122 551 q 103 599 108 583 q 97 635 97 615 q 108 679 97 658 q 146 700 118 700 q 194 687 172 700 q 239 658 217 674 q 284 628 261 642 q 335 615 307 615 q 360 621 350 615 q 379 633 369 626 q 400 646 389 640 q 429 651 411 651 q 469 647 444 651 q 516 632 493 642 q 555 606 539 622 q 571 568 571 590 q 550 549 565 565 q 497 490 535 533 q 461 476 483 476 q 410 489 439 476 q 322 543 349 514 q 240 572 294 572 q 252 511 240 538 q 278 460 264 485 q 306 410 293 436 q 318 351 318 385 q 276 353 296 351 q 240 354 257 354 q 183 338 204 354 q 163 267 163 322 q 192 168 163 208 q 281 128 222 128 q 333 145 314 128 q 363 188 353 163 q 374 244 372 214 q 376 299 376 274 q 500 386 376 336 q 505 365 501 381 q 513 326 508 349 q 519 278 517 304 q 522 228 522 253 z "},"'":{"ha":260,"x_min":21,"x_max":221,"o":"m 57 622 l 57 614 q 64 606 58 611 q 74 599 69 600 q 76 597 74 599 q 82 596 79 596 q 136 615 111 596 q 180 661 161 633 q 210 720 199 689 q 221 776 221 751 q 184 863 221 835 q 94 892 147 892 q 40 876 58 892 q 21 824 21 861 q 31 792 21 804 q 55 768 42 779 q 78 744 68 757 q 89 715 89 732 l 89 711 q 85 695 89 707 q 75 671 81 683 q 64 647 69 658 q 57 631 58 635 l 57 622 z "},"(":{"ha":426,"x_min":6,"x_max":392,"o":"m 151 336 q 169 415 151 382 q 214 475 188 449 q 272 524 240 501 q 329 573 303 547 q 374 628 356 599 q 392 699 392 658 q 322 677 363 699 q 240 620 282 656 q 155 538 197 585 q 80 442 113 492 q 26 342 47 392 q 6 249 6 292 q 21 160 6 201 q 60 84 36 119 q 113 17 83 49 q 169 -42 142 -14 q 176 -44 171 -42 q 185 -47 182 -47 q 215 -40 197 -47 q 248 -19 232 -32 q 274 11 264 -6 q 285 44 285 28 q 264 118 285 85 q 218 184 243 151 q 172 253 193 217 q 151 336 151 289 z "},")":{"ha":426,"x_min":6,"x_max":392,"o":"m 246 315 q 228 236 246 269 q 183 176 210 203 q 126 127 157 150 q 68 78 94 104 q 24 23 42 53 q 6 -47 6 -7 q 75 -26 35 -47 q 158 31 115 -4 q 242 113 200 67 q 317 210 285 160 q 371 310 350 260 q 392 403 392 360 q 378 487 392 447 q 342 560 364 526 q 292 625 319 594 q 239 683 265 656 l 228 694 q 221 697 226 694 q 211 699 215 699 q 182 691 199 699 q 149 670 165 683 q 123 641 133 657 q 113 608 113 625 q 133 533 113 567 q 179 467 154 500 q 225 399 204 435 q 246 315 246 363 z "},"*":{"ha":238,"x_min":18,"x_max":182,"o":"m 18 603 q 27 631 18 617 q 49 658 36 646 q 76 678 61 669 q 101 692 90 688 l 108 692 q 134 685 121 692 q 158 667 147 678 q 175 644 168 657 q 182 619 182 632 q 174 588 182 601 q 151 564 165 574 q 122 549 138 554 q 92 544 106 544 q 42 560 67 544 q 18 603 18 575 z "},"+":{"ha":604,"x_min":26,"x_max":579,"o":"m 369 143 q 383 110 379 124 q 386 76 386 96 q 384 57 386 68 q 369 46 382 46 q 353 52 365 46 q 336 61 340 58 q 263 156 288 115 q 231 240 239 196 q 206 243 210 240 q 200 250 201 246 q 193 257 199 254 q 164 260 188 260 l 26 239 q 44 288 26 261 q 89 337 63 314 q 145 374 115 360 q 199 389 175 389 q 216 397 208 394 q 229 404 224 399 q 238 422 235 410 q 240 460 240 435 q 230 528 240 497 q 219 599 219 560 q 268 581 242 599 q 317 535 294 563 q 355 478 340 508 q 369 426 369 449 l 369 389 l 481 389 q 514 402 500 399 q 547 406 528 406 q 567 403 556 406 q 579 389 579 401 q 572 372 579 385 q 563 356 565 360 q 462 279 504 303 q 369 247 419 256 l 369 143 z "},",":{"ha":276,"x_min":13,"x_max":229,"o":"m 85 -54 q 76 -94 85 -76 q 56 -130 67 -112 q 38 -165 46 -147 q 29 -204 29 -183 q 100 -184 64 -204 q 165 -133 136 -164 q 211 -64 193 -101 q 229 10 229 -26 q 219 64 229 38 q 191 111 208 90 q 149 144 174 132 q 94 157 124 157 q 37 137 61 157 q 13 83 13 117 q 24 44 13 60 q 49 15 35 29 q 74 -16 63 0 q 85 -54 85 -32 z "},"-":{"ha":514,"x_min":17,"x_max":472,"o":"m 192 178 q 213 124 192 146 q 267 103 233 103 q 297 109 279 103 q 332 126 315 115 q 361 150 349 136 q 374 179 374 164 l 374 185 q 361 209 371 194 q 339 236 351 224 q 312 258 326 249 q 285 267 297 267 q 251 258 268 267 q 222 238 235 250 q 200 209 208 225 q 192 178 192 193 m 17 365 q 26 326 17 347 q 49 285 35 304 q 80 252 63 265 q 115 239 97 239 q 142 244 128 239 q 171 260 157 250 q 194 283 185 269 q 203 313 203 297 q 192 345 203 325 q 165 384 181 365 q 131 417 149 403 q 101 431 114 431 l 99 429 q 78 419 92 426 q 50 404 64 413 q 26 385 36 396 q 17 365 17 375 m 276 381 l 276 372 q 285 340 276 357 q 306 310 293 324 q 335 289 319 297 q 364 281 350 281 q 398 287 379 281 q 433 304 417 293 q 461 331 450 315 q 472 364 472 346 q 444 423 472 399 q 383 447 417 447 q 355 441 372 447 q 321 426 338 435 q 291 405 304 417 q 276 381 278 393 m 161 542 q 165 512 161 529 q 178 478 169 494 q 201 452 186 463 q 236 442 215 442 q 269 452 253 442 q 299 478 286 463 q 319 509 311 493 q 328 538 328 525 q 324 560 328 547 q 313 586 319 574 q 294 608 306 599 q 271 621 283 618 l 260 622 q 223 615 240 622 q 192 597 206 608 q 169 572 178 586 q 161 542 161 557 z "},".":{"ha":572,"x_min":17,"x_max":538,"o":"m 144 8 q 158 -19 144 -4 q 192 -48 172 -35 q 230 -72 211 -61 q 260 -86 249 -82 q 267 -87 261 -87 q 292 -83 276 -87 q 322 -69 307 -78 q 349 -47 338 -60 q 360 -17 360 -33 q 327 62 360 40 q 247 83 294 83 q 213 80 231 83 q 179 68 194 76 q 154 45 164 60 q 144 8 144 31 m 324 183 q 338 147 324 164 q 373 119 353 131 q 416 100 393 107 q 456 93 439 93 q 515 121 493 93 q 538 183 538 149 q 510 238 538 217 q 449 258 482 258 q 410 255 432 258 q 369 242 388 251 q 337 219 350 233 q 324 183 324 204 m 17 224 q 27 183 17 204 q 54 146 38 163 q 91 119 71 129 q 132 108 111 108 q 181 135 164 108 q 197 189 197 161 q 188 247 197 219 q 146 294 179 275 q 109 292 131 294 q 67 282 88 289 q 31 260 46 275 q 17 224 17 246 m 178 386 q 187 358 178 376 q 210 320 196 339 q 242 288 225 301 q 276 274 260 274 q 312 283 297 274 q 337 308 326 293 q 352 342 347 324 q 357 379 357 361 l 357 386 q 346 408 353 392 q 330 441 339 424 q 310 472 321 458 q 286 485 299 485 q 247 477 267 485 q 213 456 228 469 q 188 425 197 443 q 178 386 178 407 z "},"/":{"ha":813,"x_min":15,"x_max":796,"o":"m 210 17 q 185 1 199 4 q 156 -1 171 -1 l 133 -1 q 67 17 96 -1 q 15 65 39 36 q 26 79 18 69 q 45 99 35 89 q 65 119 56 110 q 79 131 75 128 l 340 325 q 499 472 415 400 q 665 618 582 543 q 672 619 667 618 q 681 619 678 619 q 710 613 690 619 q 749 595 729 606 q 782 572 768 585 q 796 547 796 560 l 796 544 q 749 466 790 508 q 649 378 708 424 q 520 284 590 332 q 387 190 450 236 q 275 99 324 143 q 210 17 226 54 z "},":":{"ha":299,"x_min":15,"x_max":229,"o":"m 15 35 q 29 7 15 22 q 63 -22 43 -8 q 101 -45 82 -35 q 131 -60 119 -56 q 136 -61 132 -61 q 160 -56 144 -61 q 191 -42 175 -51 q 218 -20 207 -33 q 229 10 229 -7 q 197 88 229 67 q 117 108 164 108 q 83 105 100 108 q 50 93 65 101 q 25 71 35 85 q 15 35 15 57 m 28 386 q 38 358 28 376 q 65 320 49 339 q 101 288 82 301 q 136 274 119 274 q 175 283 158 274 q 203 308 192 293 q 222 342 215 324 q 228 379 228 361 l 228 388 q 221 414 228 397 q 203 446 214 431 q 177 473 192 461 q 147 485 163 485 q 103 477 125 485 q 65 456 82 469 q 38 425 49 443 q 28 386 28 407 z "},";":{"ha":274,"x_min":21,"x_max":228,"o":"m 21 -144 q 31 -165 21 -160 q 56 -171 42 -171 q 110 -152 81 -171 q 163 -106 139 -133 q 203 -47 188 -78 q 219 10 219 -15 q 213 45 219 25 q 193 83 206 65 q 164 112 181 100 q 128 124 147 124 q 104 117 121 124 q 69 101 88 111 q 36 76 50 90 q 22 46 22 63 l 22 42 l 56 -39 q 56 -46 56 -40 q 57 -56 57 -51 q 56 -64 57 -58 q 56 -71 56 -69 q 51 -83 56 -74 q 40 -104 46 -93 q 29 -125 35 -115 q 22 -136 24 -135 q 22 -140 22 -136 q 21 -144 21 -143 m 28 386 q 38 358 28 376 q 65 320 49 339 q 101 288 82 301 q 136 274 119 274 q 175 283 158 274 q 203 308 192 293 q 222 342 215 324 q 228 379 228 361 l 228 386 q 215 408 222 392 q 197 441 207 424 q 175 472 188 458 q 147 485 163 485 q 103 477 125 485 q 65 456 82 469 q 38 425 49 443 q 28 386 28 407 z "},"<":{"ha":510,"x_min":17,"x_max":453,"o":"m 17 383 q 38 349 26 363 q 60 324 49 335 q 83 303 71 313 q 106 279 94 293 l 258 69 q 299 22 278 46 q 344 -1 321 -1 q 368 13 350 -1 q 405 47 386 26 q 438 91 424 68 q 453 133 453 114 l 439 133 q 406 135 419 133 q 379 142 392 136 q 354 159 367 147 q 328 192 342 171 l 197 383 q 190 391 196 383 q 176 408 183 399 q 162 426 168 418 q 156 436 156 435 q 155 443 156 436 q 154 453 154 450 q 165 496 154 476 q 190 528 175 515 q 221 549 206 542 q 247 557 236 557 l 331 539 q 370 559 350 539 q 390 619 390 579 q 373 669 390 658 q 335 681 356 681 l 313 681 q 231 653 274 681 q 149 582 189 625 q 75 486 110 539 q 17 383 40 433 z "},"=":{"ha":689,"x_min":28,"x_max":665,"o":"m 567 497 l 201 496 q 149 481 178 496 q 92 444 119 467 q 47 396 65 422 q 29 346 29 369 q 98 356 67 346 q 168 367 129 367 l 325 350 q 422 353 382 350 q 497 367 463 356 q 567 401 532 378 q 649 465 603 425 q 658 481 651 468 q 665 497 665 494 q 653 513 665 511 q 633 515 642 515 q 600 511 614 515 q 567 497 586 507 m 565 281 l 200 279 q 147 265 176 279 q 90 228 117 250 q 46 179 64 206 q 28 131 28 153 l 165 151 l 324 133 q 421 136 381 133 q 497 151 461 139 q 567 185 532 163 q 647 249 601 208 q 656 265 650 253 q 663 281 663 278 q 651 297 663 294 q 632 299 640 299 q 599 295 613 299 q 565 281 585 292 z "},">":{"ha":510,"x_min":17,"x_max":453,"o":"m 453 296 q 431 330 443 317 q 408 353 419 343 q 385 374 397 364 q 364 400 374 385 l 211 610 q 171 657 193 633 q 125 681 149 681 q 101 667 118 681 q 65 632 83 653 q 31 588 46 611 q 17 546 17 564 l 31 546 q 90 538 67 546 q 142 488 114 529 l 274 296 q 281 288 274 296 q 294 270 288 279 q 308 253 301 261 q 314 243 314 244 q 315 236 314 243 q 315 226 315 229 q 305 183 315 203 q 279 151 294 164 q 248 130 264 138 q 222 122 232 122 l 140 140 q 99 120 119 140 q 79 60 79 100 q 97 10 79 21 q 135 -1 114 -1 l 157 -1 q 240 26 197 -1 q 322 97 282 54 q 395 193 361 140 q 453 296 429 246 z "},"?":{"ha":676,"x_min":15,"x_max":635,"o":"m 15 514 q 48 589 15 557 q 126 642 81 621 q 220 674 172 664 q 300 685 268 685 q 404 658 346 685 q 514 588 463 631 q 600 494 565 546 q 635 393 635 442 q 616 329 635 353 q 567 292 597 306 q 499 274 538 279 q 422 268 461 269 q 321 258 368 265 q 240 231 274 250 q 157 204 214 213 l 143 203 q 79 236 101 203 q 110 324 79 294 q 185 367 140 354 q 284 384 231 381 q 383 392 338 388 q 458 410 428 397 q 489 456 489 422 q 476 499 489 481 q 442 531 463 518 q 397 549 422 543 q 350 556 372 556 q 232 526 283 556 q 132 454 181 496 l 114 440 q 107 440 113 440 q 97 439 101 439 q 51 460 68 439 q 17 506 35 482 q 16 508 17 506 q 15 514 15 510 m 40 28 q 49 58 40 46 q 72 76 58 69 q 101 86 85 83 q 133 89 118 89 q 205 72 176 89 q 233 7 233 54 q 223 -19 233 -8 q 199 -38 213 -31 q 170 -50 185 -46 q 149 -54 156 -54 l 144 -54 q 119 -42 136 -51 q 85 -22 103 -33 q 53 2 67 -11 q 40 26 40 15 l 40 28 z "},"@":{"ha":1008,"x_min":17,"x_max":974,"o":"m 393 278 q 397 239 393 258 q 407 204 400 219 q 424 178 414 189 q 450 168 435 168 q 481 179 467 168 q 508 204 496 190 q 533 229 521 218 q 556 240 544 240 l 563 240 l 600 190 l 610 189 q 625 193 619 189 q 640 211 631 197 q 652 228 644 217 q 667 251 660 239 q 680 272 674 263 q 686 281 686 281 l 686 294 q 664 287 672 294 q 644 279 656 279 l 640 281 q 598 349 621 301 q 551 443 575 396 q 501 526 526 490 q 451 563 476 563 q 433 556 444 563 q 410 538 421 549 q 391 512 399 526 q 383 482 383 497 l 386 482 q 408 481 394 482 q 433 474 421 479 q 456 456 446 468 q 465 424 465 444 q 454 396 465 408 q 429 367 443 383 q 404 330 415 351 q 393 278 393 308 m 456 300 q 465 331 456 319 q 485 342 474 342 q 494 334 489 342 q 506 316 500 326 q 515 294 511 306 q 519 275 519 283 q 514 262 519 268 q 501 250 508 256 q 488 241 494 244 q 479 238 481 238 q 468 244 472 238 q 461 261 464 251 q 457 282 458 271 q 456 300 456 293 m 17 383 q 38 349 26 363 q 60 324 49 335 q 83 303 71 313 q 106 279 94 293 l 258 69 q 299 22 278 46 q 344 -1 321 -1 q 368 13 350 -1 q 405 47 386 26 q 438 91 424 68 q 453 133 453 114 l 439 133 q 406 135 419 133 q 379 142 392 136 q 354 159 367 147 q 328 192 342 171 l 197 383 q 190 391 196 383 q 176 408 183 399 q 162 426 168 418 q 156 436 156 435 q 155 443 156 436 q 154 453 154 450 q 165 496 154 476 q 190 528 175 515 q 221 549 206 542 q 247 557 236 557 l 331 539 q 370 559 350 539 q 390 619 390 579 q 373 669 390 658 q 335 681 356 681 l 313 681 q 231 653 274 681 q 149 582 189 625 q 75 486 110 539 q 17 383 40 433 m 974 303 q 952 337 964 324 q 928 360 940 350 q 904 381 915 371 q 883 406 893 390 l 731 615 q 690 664 713 640 q 644 688 668 688 q 620 674 638 688 q 584 639 603 660 q 551 594 565 618 q 536 553 536 571 l 550 553 q 610 544 586 553 q 661 494 633 536 l 793 303 q 799 294 793 301 q 813 277 806 286 q 827 260 821 268 q 833 250 833 251 q 834 243 833 250 q 835 232 835 236 q 824 190 835 208 q 799 157 814 171 q 769 135 785 143 q 743 128 753 128 l 660 146 q 619 126 639 146 q 600 67 600 106 q 617 17 600 28 q 656 6 635 6 l 678 6 q 760 33 718 6 q 841 104 801 61 q 915 200 881 147 q 974 303 949 253 z "},"A":{"ha":790,"x_min":8,"x_max":764,"o":"m 164 254 q 174 289 164 272 q 199 317 183 306 q 235 336 215 329 q 274 343 254 343 q 306 326 288 343 q 342 287 325 310 q 370 240 358 264 q 382 200 382 215 q 365 173 382 186 q 326 149 349 160 q 281 133 303 139 q 247 126 258 126 q 210 140 225 126 q 184 174 194 154 q 169 215 174 193 q 164 254 164 238 m 31 188 q 40 122 31 156 q 68 61 50 89 q 113 16 86 33 q 172 -1 139 -1 q 253 18 215 -1 q 323 61 290 38 q 385 104 356 85 q 440 124 414 124 l 456 122 l 553 36 q 562 34 554 36 q 575 32 569 32 q 614 40 600 32 q 650 71 628 49 q 683 103 664 83 q 721 143 703 124 q 751 177 739 163 q 764 192 764 192 l 764 214 q 737 210 749 214 q 714 202 725 207 q 692 194 703 197 q 667 190 681 190 q 657 191 663 190 q 650 192 651 192 q 586 264 621 218 q 513 364 551 310 q 431 474 474 418 q 347 574 389 529 q 262 648 304 619 q 179 676 219 676 q 131 665 160 676 q 74 635 101 654 q 28 592 47 617 q 8 543 8 568 q 60 541 26 543 q 128 528 94 539 q 188 497 163 518 q 213 440 213 476 q 184 392 213 414 q 122 342 156 369 q 59 278 88 314 q 31 188 31 242 z "},"B":{"ha":672,"x_min":8,"x_max":644,"o":"m 8 575 q 33 555 15 558 q 67 549 50 551 q 99 538 85 546 q 113 507 113 531 l 113 85 q 144 19 113 40 q 208 -1 175 -1 q 278 7 235 -1 q 369 33 321 15 q 467 76 418 50 q 555 138 515 103 q 619 216 594 172 q 644 313 644 260 q 626 388 644 360 q 586 435 608 417 q 546 469 564 454 q 528 506 528 485 q 539 566 528 539 q 550 629 550 593 q 549 663 550 650 q 543 683 549 676 q 526 692 538 690 q 493 694 514 694 q 435 683 465 694 q 373 660 404 672 q 313 636 342 647 q 258 625 283 625 q 240 635 247 625 q 223 658 232 646 q 201 681 214 671 q 169 692 189 692 q 124 680 147 692 q 78 650 100 668 q 38 612 56 632 q 8 575 19 592 m 240 242 q 248 285 240 263 q 261 332 256 308 q 286 334 271 332 q 318 338 301 336 q 351 342 335 340 q 381 344 368 344 q 464 326 431 344 q 497 260 497 308 q 483 206 497 232 q 444 159 468 179 q 392 126 421 139 q 333 114 363 114 q 312 118 326 114 q 282 129 297 122 q 256 144 267 136 q 244 161 244 153 q 240 242 240 200 m 250 482 q 269 515 250 499 q 315 542 288 531 q 371 560 342 553 q 419 567 400 567 l 419 540 q 392 462 419 489 q 315 413 364 435 q 279 416 297 413 q 257 431 261 419 q 250 461 250 461 l 250 482 z "},"C":{"ha":660,"x_min":15,"x_max":629,"o":"m 161 385 q 193 504 161 471 q 304 538 225 538 q 399 510 353 538 q 485 439 444 483 q 529 417 503 417 q 590 440 554 417 q 629 499 629 467 q 611 543 629 521 q 507 639 563 603 q 448 667 476 657 q 392 676 419 676 q 253 647 321 676 q 133 568 186 618 q 48 451 81 518 q 15 308 15 383 q 49 182 15 239 q 134 85 82 125 q 249 22 186 44 q 374 0 313 0 q 481 26 422 0 q 592 92 539 51 q 625 135 625 117 q 610 160 625 149 q 575 171 594 171 l 572 171 q 556 167 564 171 q 542 160 549 164 q 463 138 511 138 q 359 150 413 138 q 262 191 306 163 q 190 267 218 219 q 161 385 161 314 z "},"D":{"ha":742,"x_min":11,"x_max":700,"o":"m 15 318 q 48 210 15 267 q 130 107 81 154 q 237 29 179 60 q 346 -1 294 -1 q 470 28 407 -1 q 584 107 533 58 q 667 215 635 156 q 700 336 700 275 q 678 437 700 389 q 619 528 656 485 q 538 612 583 572 q 444 687 492 651 q 353 753 397 722 q 276 813 310 785 q 253 831 261 824 q 238 841 244 838 q 224 846 232 844 q 204 847 217 847 q 148 840 181 847 q 85 820 115 833 q 33 786 54 807 q 11 738 11 765 q 29 738 18 738 q 53 739 40 739 q 111 735 81 739 q 163 715 142 731 q 186 694 172 707 q 213 668 200 681 q 234 645 225 656 q 243 633 243 635 q 183 595 208 614 q 140 558 158 576 q 46 432 92 513 q 19 373 24 396 q 15 318 15 350 m 144 374 q 159 431 144 397 q 196 494 174 464 q 246 547 218 525 q 300 568 274 568 q 349 554 321 568 q 408 517 378 540 q 468 463 439 493 q 520 401 497 433 q 557 339 543 369 q 571 285 571 308 q 559 228 571 258 q 528 173 547 199 q 483 131 508 147 q 431 114 457 114 q 382 127 411 114 q 321 161 353 140 q 258 210 289 182 q 201 266 226 238 q 160 323 176 294 q 144 374 144 351 z "},"E":{"ha":864,"x_min":15,"x_max":838,"o":"m 15 290 q 35 201 15 251 q 85 106 54 151 q 158 31 117 61 q 243 0 199 0 q 357 -12 299 -12 q 471 0 413 -12 q 516 23 488 4 q 572 66 544 42 q 620 115 600 90 q 640 154 640 139 q 594 149 615 154 q 554 135 574 143 q 515 122 535 128 q 472 117 494 117 q 392 122 436 117 q 306 144 347 128 q 234 190 265 161 q 194 267 203 219 q 236 274 214 271 q 282 278 258 278 l 292 278 l 601 267 q 663 278 624 267 q 742 311 703 290 q 809 359 781 332 q 838 418 838 386 q 750 398 792 410 q 664 386 708 386 q 644 388 646 386 l 242 410 l 182 401 q 178 407 178 401 q 196 463 178 436 q 240 508 214 489 q 295 538 265 526 q 350 549 325 549 q 430 525 400 549 q 493 461 460 501 l 504 449 l 528 447 q 560 453 542 447 q 594 468 578 458 q 622 492 611 478 q 633 522 633 506 q 615 585 633 556 q 570 635 597 614 q 510 669 543 657 q 447 681 478 681 q 309 646 385 681 q 168 556 233 611 q 59 431 103 501 q 15 290 15 361 z "},"F":{"ha":781,"x_min":11,"x_max":733,"o":"m 99 306 l 97 565 q 90 576 96 569 q 81 582 85 582 q 47 585 71 582 q 11 589 22 589 q 28 632 11 614 q 69 660 44 650 q 120 676 93 671 q 169 681 147 681 q 206 676 192 681 q 228 663 219 672 q 242 638 236 653 q 254 601 247 622 q 256 592 256 597 q 260 582 257 588 q 331 618 297 600 q 399 650 365 636 q 469 672 433 664 q 544 681 504 681 q 602 673 569 681 q 664 649 635 665 q 713 610 693 633 q 733 557 733 588 q 719 528 733 543 q 685 501 704 514 q 647 480 665 489 q 618 468 628 471 q 615 467 618 468 q 610 467 611 467 q 589 482 601 467 q 558 516 576 497 q 514 551 539 535 q 456 567 489 567 q 391 554 428 567 q 322 520 354 542 q 266 469 289 499 q 243 408 243 440 l 260 169 l 268 169 q 329 175 299 169 q 391 188 360 181 q 454 200 422 194 q 519 206 486 206 q 547 207 526 206 q 592 208 568 208 q 626 207 610 208 q 650 201 642 206 q 685 185 669 196 q 700 153 700 174 q 688 110 700 128 q 655 79 675 92 q 611 60 635 67 q 567 54 588 54 q 544 62 549 54 q 533 79 539 69 q 515 97 528 89 q 471 104 503 104 q 444 102 465 104 q 397 97 422 100 q 346 90 371 93 q 308 86 321 88 q 260 55 276 81 q 231 -6 243 29 q 209 -80 219 -40 q 180 -153 199 -119 q 129 -208 161 -186 q 44 -229 97 -229 q 46 -206 44 -225 q 49 -182 47 -186 q 90 -1 82 -85 q 99 175 99 82 l 99 306 z "},"G":{"ha":633,"x_min":13,"x_max":592,"o":"m 356 -236 q 366 -256 356 -251 q 390 -261 376 -261 q 421 -255 410 -261 q 457 -229 432 -249 q 529 -159 503 -196 q 569 -81 556 -122 q 588 4 583 -40 q 592 97 592 49 l 592 251 q 526 235 553 251 q 474 198 499 218 q 423 161 450 178 q 357 144 396 144 q 280 164 318 144 q 212 215 242 183 q 163 285 182 246 q 144 364 144 324 q 153 432 144 396 q 179 498 161 468 q 225 548 197 528 q 293 568 253 568 q 351 553 326 568 q 399 519 376 538 q 444 486 421 501 q 496 471 467 471 q 525 478 510 471 q 554 498 540 486 q 577 524 568 510 q 586 553 586 539 q 585 561 586 556 q 585 568 585 567 q 542 621 563 599 q 501 657 522 643 q 452 678 479 671 q 390 685 425 685 q 255 650 322 685 q 133 561 188 615 q 46 440 79 507 q 13 308 13 372 q 31 206 13 258 q 84 112 50 154 q 165 42 118 69 q 268 15 211 15 q 305 20 286 15 q 342 31 324 25 q 378 43 360 38 q 414 49 396 49 q 436 38 428 49 q 449 10 444 26 q 454 -22 453 -6 q 456 -49 456 -39 q 447 -110 456 -86 q 426 -151 439 -133 q 394 -186 413 -169 q 357 -228 376 -203 q 356 -231 357 -228 q 356 -236 356 -233 z "},"H":{"ha":725,"x_min":7,"x_max":685,"o":"m 15 189 q 20 128 15 164 q 37 60 25 93 q 69 3 49 26 q 122 -21 90 -21 q 161 -10 138 -21 q 207 18 185 1 q 245 53 229 35 q 261 86 261 71 q 245 106 261 101 q 210 125 229 111 q 176 173 192 139 q 161 281 161 207 l 161 299 q 162 328 161 313 q 163 371 163 343 q 186 397 168 379 q 225 436 204 415 q 265 475 246 457 q 293 500 285 493 q 324 527 313 519 q 356 535 335 535 q 427 503 392 535 q 490 428 463 472 q 535 336 518 383 q 553 257 553 289 q 542 194 553 222 q 517 138 531 165 q 492 84 503 111 q 481 26 481 57 q 494 28 485 26 q 504 29 503 29 q 521 36 508 31 q 536 46 533 42 q 605 110 576 82 q 651 167 633 138 q 676 231 668 196 q 685 318 685 267 q 666 418 685 360 q 615 532 647 476 q 542 629 583 588 q 456 679 501 671 q 440 681 454 681 q 374 656 404 681 q 315 601 344 631 q 258 547 286 572 q 197 522 229 522 q 204 678 197 601 q 211 835 211 756 q 208 873 211 847 q 195 924 204 899 q 172 969 186 950 q 138 988 158 988 q 100 978 122 988 q 57 956 78 969 q 22 924 36 942 q 7 889 7 906 q 23 853 7 865 q 65 825 39 842 l 65 761 q 58 619 65 690 q 40 475 50 547 q 23 331 31 403 q 15 189 15 260 z "},"I":{"ha":383,"x_min":17,"x_max":350,"o":"m 81 564 q 65 556 78 564 q 49 547 53 549 q 33 545 46 546 q 17 544 19 544 l 17 564 q 35 598 17 578 q 80 637 54 618 q 133 668 106 656 q 178 681 161 681 l 188 681 q 214 678 200 681 q 228 663 228 676 l 228 157 q 229 151 228 153 q 239 124 229 132 q 254 117 249 117 l 260 117 q 269 119 261 117 q 285 125 276 122 q 300 131 293 128 q 308 133 307 133 q 329 135 313 135 q 350 136 346 136 q 332 84 350 108 q 288 40 314 60 q 231 10 261 21 q 178 -1 201 -1 q 138 8 154 -1 q 113 35 122 18 q 101 72 104 51 q 97 117 97 93 l 97 547 q 91 558 97 551 q 81 564 85 564 z "},"J":{"ha":693,"x_min":17,"x_max":660,"o":"m 660 281 q 643 348 660 318 q 606 404 626 378 q 567 458 585 431 q 549 518 550 485 l 547 557 q 557 588 547 574 q 604 601 567 601 l 619 601 q 643 622 640 601 q 578 684 624 668 q 482 700 532 700 q 417 681 438 700 q 397 619 397 663 l 397 618 q 418 538 397 571 q 464 474 439 504 q 510 415 489 444 q 531 346 531 385 q 517 276 531 314 q 478 204 504 238 q 413 147 453 171 q 318 122 372 124 l 311 122 q 251 129 281 122 q 197 144 221 136 q 158 158 174 151 q 139 165 142 165 q 117 178 136 165 q 75 204 97 190 q 35 229 53 218 q 17 239 17 240 q 35 197 17 221 q 84 146 54 172 q 151 94 114 119 q 224 47 188 68 q 294 14 261 26 q 350 1 328 1 q 451 27 397 1 q 552 93 506 53 q 629 183 599 133 q 660 281 660 232 z "},"K":{"ha":881,"x_min":15,"x_max":850,"o":"m 17 878 q 16 881 17 879 q 15 886 15 883 q 32 921 15 904 q 71 950 49 938 q 117 969 93 963 q 156 976 140 976 q 179 970 165 976 q 206 954 193 964 q 227 933 218 944 q 236 910 236 921 l 236 456 l 276 501 q 352 558 311 528 q 437 615 393 589 q 527 657 481 640 q 622 674 574 674 l 661 674 q 722 651 694 674 q 749 593 749 629 q 717 538 749 557 q 653 518 686 518 q 587 527 619 518 q 519 536 554 536 q 478 529 503 536 q 428 509 453 522 q 388 478 404 496 q 371 439 371 460 q 372 428 371 435 q 374 422 374 422 q 385 412 375 419 q 406 396 394 404 q 426 381 417 388 q 439 374 436 375 l 646 194 q 692 164 671 175 q 734 147 713 153 q 780 141 756 142 q 836 140 804 140 l 850 140 q 827 101 850 122 q 774 60 804 79 q 716 28 744 42 q 676 15 688 15 q 601 36 638 15 q 536 81 565 57 l 293 276 q 276 286 288 279 q 260 293 264 293 q 244 279 246 293 q 242 254 242 265 l 242 246 q 245 188 242 211 q 260 150 249 164 q 293 130 271 136 q 351 124 315 124 q 333 82 351 104 q 290 41 315 60 q 239 10 265 22 q 194 -1 213 -1 q 142 21 161 -1 q 113 74 122 43 q 100 139 103 106 q 97 194 97 172 l 97 796 q 75 853 97 835 q 17 878 53 872 z "},"L":{"ha":599,"x_min":15,"x_max":571,"o":"m 17 260 q 24 382 17 321 q 42 504 32 443 q 59 626 51 565 q 67 747 67 686 q 58 779 67 765 q 41 806 50 793 q 24 829 32 818 q 15 853 15 840 q 31 881 15 868 q 66 905 46 894 q 106 921 86 915 q 138 926 126 926 q 179 912 164 926 q 202 876 194 897 q 211 832 210 856 q 213 790 213 808 q 207 685 213 738 q 195 581 201 633 q 183 476 189 529 q 178 369 178 424 q 184 270 178 317 q 210 188 190 224 q 268 132 231 153 q 367 111 306 111 q 418 113 396 111 q 461 122 440 115 q 503 142 482 129 q 553 179 525 156 q 569 165 567 174 q 571 146 571 157 q 537 87 571 114 q 456 40 503 60 q 363 10 410 21 q 289 -1 315 -1 q 184 17 233 -1 q 97 68 135 35 q 38 150 60 101 q 17 260 17 199 z "},"M":{"ha":1026,"x_min":13,"x_max":994,"o":"m 13 357 q 40 478 13 417 q 112 589 67 540 q 215 669 157 638 q 336 700 274 700 q 385 677 367 700 q 420 626 404 654 q 455 574 436 597 q 504 551 474 551 q 513 552 507 551 q 519 553 518 553 l 525 557 q 565 590 542 571 q 616 626 589 608 q 670 656 643 643 q 721 668 697 668 q 792 650 757 668 q 857 602 826 632 q 913 534 888 572 q 956 456 938 496 q 984 379 974 417 q 994 313 994 342 q 980 218 994 268 q 937 126 965 168 q 867 57 908 85 q 775 29 826 29 q 786 80 775 58 q 811 124 797 101 q 836 174 825 146 q 847 242 847 201 q 832 328 847 276 q 789 426 817 379 q 724 506 761 472 q 640 539 686 539 q 628 538 636 539 q 618 536 619 538 l 536 456 l 536 422 q 545 398 536 422 q 567 340 554 374 q 594 269 581 306 q 618 211 608 233 q 638 183 624 193 q 665 164 651 172 q 690 147 679 156 q 701 124 701 138 q 688 85 701 104 q 656 51 675 67 q 616 25 638 35 q 576 15 594 15 q 517 56 544 15 q 465 159 490 97 q 413 293 439 221 q 362 427 388 365 q 307 530 336 489 q 246 571 278 571 q 202 556 221 571 q 171 517 183 540 q 152 469 158 494 q 146 422 146 443 q 163 342 146 381 q 205 270 179 304 q 260 207 231 236 q 316 154 290 178 q 358 114 342 131 q 375 89 375 97 q 354 56 375 74 q 313 28 333 39 q 283 12 299 19 q 260 0 268 4 q 163 51 208 10 q 85 145 118 92 q 32 256 51 199 q 13 357 13 314 z "},"N":{"ha":979,"x_min":15,"x_max":939,"o":"m 81 -140 q 65 -201 69 -172 q 61 -261 61 -229 q 137 -241 107 -261 q 185 -189 167 -221 q 212 -118 203 -157 q 226 -42 221 -79 q 230 -1 228 -29 q 235 63 232 28 q 242 138 239 99 q 248 212 244 176 q 253 275 251 247 q 257 315 256 303 l 254 351 q 256 356 254 356 q 285 340 269 356 q 342 286 301 325 q 462 179 383 247 q 678 7 540 111 l 701 6 q 789 34 749 6 q 860 105 829 63 q 910 197 890 147 q 936 290 931 247 l 936 293 q 938 319 938 306 q 939 351 939 332 q 930 438 939 383 q 901 546 921 493 q 851 637 882 599 q 778 675 821 675 q 722 663 746 675 q 678 624 699 651 q 726 549 704 590 q 765 465 749 508 q 790 376 781 421 q 799 290 799 332 q 793 265 799 286 q 779 219 788 243 q 760 175 771 194 q 740 156 750 156 q 732 158 739 156 q 717 162 725 160 q 703 166 710 164 q 694 168 696 168 l 339 478 q 299 519 328 490 q 236 578 269 549 q 173 632 203 608 q 132 656 143 656 q 97 651 117 656 q 59 639 78 647 q 28 617 40 631 q 15 583 15 603 q 22 559 15 572 q 39 532 29 546 q 57 504 49 518 q 68 478 65 490 q 85 376 79 422 q 92 286 92 331 l 92 264 q 91 220 92 249 q 89 144 90 192 q 85 26 88 96 q 81 -140 83 -43 z "},"O":{"ha":783,"x_min":15,"x_max":749,"o":"m 15 283 q 47 159 15 213 q 131 70 79 106 q 246 17 182 35 q 374 -1 310 -1 q 499 23 433 -1 q 621 89 565 47 q 713 186 676 131 q 749 306 749 242 q 723 448 749 379 q 651 569 697 517 q 539 653 604 622 q 396 685 474 685 q 258 647 326 685 q 136 549 190 608 q 49 419 82 490 q 15 283 15 349 m 161 357 q 165 410 161 382 q 178 465 169 438 q 203 515 188 492 q 243 553 219 538 q 260 553 249 553 q 285 554 271 554 q 309 555 299 554 q 325 556 319 556 q 448 531 396 556 q 534 464 500 507 q 585 363 568 421 q 603 238 603 304 q 602 210 603 226 q 601 194 601 194 q 588 175 599 188 q 565 150 578 163 q 539 127 551 138 q 519 114 526 117 l 506 113 l 447 113 q 340 128 392 113 q 249 176 289 144 q 185 252 210 207 q 161 357 161 297 z "},"P":{"ha":701,"x_min":15,"x_max":668,"o":"m 114 211 q 112 269 114 228 q 107 357 110 311 q 101 444 104 403 q 97 500 99 485 q 88 508 94 504 q 74 518 82 511 l 65 518 q 49 508 61 517 q 32 500 36 500 q 25 507 31 500 q 17 518 19 514 l 15 526 l 17 535 q 46 572 28 551 q 86 612 64 593 q 132 644 108 631 q 179 657 156 657 q 217 644 206 657 q 235 613 229 632 q 244 574 240 594 q 260 535 249 553 q 313 577 285 556 q 373 617 342 599 q 438 646 404 635 q 504 657 471 657 q 576 635 546 657 q 627 578 607 613 q 658 503 647 543 q 668 426 668 463 l 668 360 q 650 296 668 326 q 293 22 576 61 q 284 20 292 22 q 267 15 276 18 q 251 10 258 13 q 243 7 244 8 q 214 -75 224 -25 q 188 -173 204 -125 q 140 -255 171 -221 q 44 -289 108 -289 q 51 -240 44 -264 q 67 -192 58 -215 q 85 -145 76 -169 q 96 -96 93 -121 q 100 -29 97 -75 q 106 65 103 17 q 112 156 110 114 q 114 211 114 197 m 243 335 q 245 298 243 324 q 250 243 247 272 q 256 188 253 214 q 260 151 258 161 l 317 147 q 393 160 354 147 q 464 197 432 174 q 516 256 496 221 q 536 335 536 290 q 528 394 536 361 q 503 457 519 428 q 463 506 488 486 q 408 525 439 525 q 347 507 376 525 q 294 461 318 489 q 257 399 271 433 q 243 335 243 365 z "},"Q":{"ha":731,"x_min":15,"x_max":717,"o":"m 715 -287 l 667 -189 q 663 -150 665 -187 q 657 -61 660 -112 q 652 44 654 -10 q 650 131 650 97 l 650 529 q 672 551 658 543 q 699 564 685 558 q 644 634 682 603 q 561 665 607 665 q 532 658 543 665 q 513 640 521 651 q 500 613 506 628 q 488 581 494 597 l 479 581 q 422 594 450 581 q 365 623 393 607 q 307 652 338 639 q 243 665 276 665 l 194 663 q 129 601 161 635 q 72 528 97 567 q 31 444 46 489 q 15 353 15 400 q 44 231 15 292 q 120 121 74 169 q 225 41 167 72 q 343 10 283 10 q 369 11 351 10 q 390 13 386 13 l 406 29 q 356 74 383 57 q 302 105 329 92 q 249 131 275 118 q 204 163 224 143 q 173 210 185 182 q 161 285 161 239 q 172 365 161 319 q 203 451 182 410 q 255 520 224 492 q 328 549 286 549 q 374 540 347 549 q 426 517 401 532 q 470 485 451 503 q 492 447 489 467 l 528 -154 q 547 -197 528 -171 q 593 -247 567 -222 q 647 -290 619 -272 q 690 -307 674 -307 q 695 -306 692 -307 q 699 -304 699 -304 q 710 -294 704 -300 q 715 -287 717 -289 z "},"R":{"ha":874,"x_min":17,"x_max":850,"o":"m 114 -39 q 108 -81 114 -61 q 97 -122 103 -101 q 85 -164 90 -143 q 79 -207 79 -185 q 162 -187 132 -207 q 208 -138 192 -168 q 232 -74 224 -108 q 250 -9 240 -39 q 276 40 260 21 q 325 60 292 60 q 398 51 363 60 q 469 34 433 43 q 539 17 504 25 q 610 8 574 8 q 675 20 635 8 q 754 53 715 32 q 822 101 793 74 q 850 157 850 128 l 717 124 l 699 124 q 683 126 694 124 q 658 131 671 128 q 634 136 646 133 q 618 140 622 139 q 591 147 607 142 q 559 158 575 153 q 532 168 543 164 q 519 172 521 172 l 519 189 q 560 232 538 207 q 603 286 583 257 q 638 346 624 315 q 651 404 651 376 q 636 497 651 449 q 593 586 621 546 q 526 652 565 626 q 438 678 486 678 q 419 677 431 678 q 406 676 408 676 q 380 664 401 674 q 333 642 358 654 q 287 622 308 631 q 260 611 265 613 l 243 611 q 239 626 243 617 q 230 646 235 636 q 219 665 225 656 q 211 676 214 674 q 200 678 211 676 q 182 679 189 679 q 137 672 165 679 q 82 651 108 664 q 36 619 56 638 q 17 579 17 601 q 24 565 17 567 q 42 563 31 563 l 44 563 q 66 560 56 563 q 81 546 76 557 q 110 290 106 415 q 114 33 114 164 l 114 -39 m 238 468 l 238 488 l 318 568 q 326 569 318 568 q 340 571 335 571 q 408 550 378 571 q 458 498 438 529 q 488 430 478 467 q 499 360 499 393 q 483 288 499 321 q 440 230 467 254 q 379 192 414 206 q 308 178 344 178 q 303 179 304 178 l 254 179 q 249 230 251 193 q 243 308 246 267 q 239 387 240 350 q 238 439 238 424 l 238 468 z "},"S":{"ha":728,"x_min":15,"x_max":700,"o":"m 15 163 q 46 219 15 199 q 114 240 76 240 q 174 221 142 240 q 242 178 206 201 q 317 137 278 156 q 401 118 357 118 q 444 121 419 118 q 489 132 468 124 q 524 154 510 140 q 539 192 539 168 q 506 256 539 235 q 424 288 474 276 q 317 306 375 299 q 210 329 260 313 q 128 378 161 346 q 96 471 96 410 q 134 571 96 528 q 228 642 172 614 q 349 685 285 671 q 465 700 413 700 l 471 700 q 494 698 488 700 q 519 685 500 696 q 549 669 528 682 q 594 642 571 657 q 639 613 618 626 q 667 594 660 599 q 668 581 667 593 q 669 565 669 569 q 658 531 669 549 q 630 497 647 513 q 592 470 613 481 q 553 460 571 460 q 520 478 538 460 q 481 520 503 497 q 430 563 458 543 q 367 582 401 582 l 360 582 q 317 581 338 582 q 279 573 296 579 q 252 553 263 567 q 242 518 242 540 q 276 456 242 476 q 360 423 310 435 q 471 402 411 411 q 581 376 531 393 q 666 328 632 360 q 700 240 700 297 q 680 182 700 211 q 627 126 660 153 q 554 76 594 99 q 473 35 514 53 q 394 8 432 18 q 332 -1 357 -1 q 285 6 315 -1 q 220 24 256 13 q 149 51 185 36 q 83 85 113 67 q 34 124 53 104 q 15 163 15 143 z "},"T":{"ha":735,"x_min":11,"x_max":708,"o":"m 199 571 q 149 562 172 571 q 105 542 126 553 q 60 523 83 532 q 11 514 38 514 q 28 557 11 528 q 69 615 44 586 q 119 665 93 643 q 163 686 144 686 l 585 686 l 682 718 q 697 719 686 718 q 708 721 707 721 q 675 642 708 674 q 596 592 642 611 q 501 563 550 572 q 422 553 453 554 l 406 535 l 390 268 l 390 251 q 392 228 390 246 q 397 192 394 211 q 402 156 400 172 q 406 135 404 139 l 414 135 q 467 144 442 135 q 524 154 492 154 q 504 97 524 125 q 457 47 485 69 q 398 11 429 25 q 343 -3 367 -3 q 280 27 300 -3 q 260 101 260 57 l 260 553 q 243 568 260 564 q 214 572 226 572 q 203 572 208 572 q 199 571 199 571 z "},"U":{"ha":858,"x_min":15,"x_max":829,"o":"m 15 336 q 41 215 15 275 q 110 106 67 154 q 209 28 153 58 q 326 -1 265 -1 q 387 17 358 -1 q 442 58 415 36 q 497 98 469 79 q 553 117 524 117 q 578 98 569 117 q 596 58 586 79 q 619 17 606 36 q 657 -1 632 -1 q 706 11 676 -1 q 763 43 735 24 q 810 86 790 63 q 829 133 829 110 q 823 142 829 136 q 813 150 817 147 q 797 151 807 150 q 772 151 786 151 q 747 151 758 151 q 731 150 736 150 q 715 180 721 161 q 705 218 708 199 q 700 256 701 238 q 699 283 699 274 q 693 358 696 304 q 688 472 690 411 q 683 588 685 533 q 682 663 682 642 q 672 678 679 675 q 656 681 665 681 l 642 681 q 613 674 631 681 q 578 657 594 668 q 549 632 561 646 q 536 604 536 618 l 536 596 q 543 580 538 593 q 553 564 549 567 l 553 217 q 535 183 553 199 q 495 156 518 168 q 447 138 472 144 q 408 131 422 131 q 310 153 356 131 q 232 215 265 176 q 180 301 199 253 q 161 401 161 350 q 176 458 161 432 q 210 510 192 485 q 245 563 229 535 q 261 624 261 590 q 238 674 261 651 q 188 697 215 697 q 148 690 172 697 q 99 672 124 683 q 56 645 75 660 q 32 614 38 631 q 27 588 29 604 q 25 572 25 572 l 114 572 q 122 544 122 557 q 119 528 122 536 q 114 514 117 521 l 17 365 q 16 354 17 365 q 15 336 15 343 z "},"V":{"ha":815,"x_min":15,"x_max":783,"o":"m 15 288 q 38 356 15 325 q 90 416 61 388 q 141 473 118 444 q 164 535 164 501 q 149 573 164 564 q 107 582 133 582 l 71 582 q 89 623 71 604 q 132 656 107 642 q 183 677 157 669 q 228 685 210 685 q 284 661 260 685 q 308 606 308 638 q 285 534 308 564 q 235 478 263 504 q 184 424 207 451 q 161 360 161 397 q 192 288 161 328 q 267 210 222 247 q 360 149 311 174 q 449 124 410 124 q 519 142 483 124 q 585 188 556 160 q 633 251 614 217 q 651 318 651 285 q 626 408 651 369 q 568 480 600 447 q 507 542 536 513 q 471 606 478 572 l 471 610 q 485 639 471 625 q 517 663 499 653 q 552 679 535 674 q 576 685 569 685 q 628 667 603 685 q 677 623 654 650 q 719 562 700 596 q 753 494 739 528 q 775 432 767 461 q 783 385 783 403 q 751 258 783 311 q 668 164 718 206 q 557 88 618 122 q 439 17 496 53 q 417 10 435 15 q 390 0 399 4 l 382 0 q 317 13 354 0 q 239 49 279 26 q 158 101 199 72 q 86 163 118 131 q 35 227 54 194 q 15 288 15 260 z "},"W":{"ha":1174,"x_min":15,"x_max":1139,"o":"m 15 296 q 33 239 15 271 q 78 174 50 207 q 141 110 106 142 q 214 55 176 79 q 287 16 251 31 q 350 1 322 1 l 357 1 q 374 8 361 3 q 390 18 386 14 l 536 115 l 544 117 q 599 98 574 117 q 649 58 624 79 q 701 17 674 36 q 764 -1 729 -1 q 876 33 811 -1 q 999 119 940 67 q 1098 231 1057 171 q 1139 346 1139 292 q 1126 431 1139 378 q 1090 534 1113 483 q 1035 622 1067 585 q 968 658 1004 658 q 912 643 932 658 q 892 592 892 628 q 910 515 892 551 q 951 442 929 478 q 991 367 972 406 q 1010 286 1010 329 q 995 228 1010 257 q 958 178 981 200 q 906 142 935 156 q 847 128 876 128 q 762 155 810 128 q 670 223 714 182 q 597 312 626 264 q 567 403 567 360 q 580 458 567 433 q 609 507 593 483 q 638 555 625 531 q 651 608 651 579 q 647 643 651 628 q 619 658 643 658 q 580 652 603 658 q 536 635 557 646 q 501 609 515 625 q 486 575 486 593 q 489 561 486 567 q 496 551 492 556 q 503 542 500 547 q 506 526 506 536 q 492 474 506 497 q 463 429 479 451 q 434 382 447 407 q 421 325 421 357 q 429 283 421 303 q 447 247 438 264 q 464 211 456 229 q 472 174 472 193 q 457 142 472 153 q 422 131 442 131 q 390 137 407 131 q 354 153 372 143 q 320 176 336 164 q 293 199 304 188 q 256 233 278 211 q 213 275 233 254 q 177 311 192 296 q 163 328 163 326 l 163 411 l 260 575 q 263 589 261 576 q 264 606 264 601 q 245 665 264 639 q 190 692 226 692 q 149 686 174 692 q 102 670 125 681 q 63 644 79 660 q 47 608 47 629 l 115 543 q 115 533 115 539 q 114 526 114 528 q 83 472 100 500 q 51 416 65 444 q 26 358 36 388 q 15 296 15 328 z "},"X":{"ha":924,"x_min":13,"x_max":897,"o":"m 472 256 q 448 190 460 218 q 421 139 436 161 q 386 98 406 117 q 340 61 367 79 q 267 26 304 36 q 193 15 231 15 l 157 15 q 108 27 131 15 q 86 76 86 39 q 112 133 86 113 q 163 153 138 153 l 275 135 q 310 142 289 135 q 349 163 331 149 q 381 194 368 176 q 394 236 394 213 q 392 249 394 239 q 382 288 389 260 q 377 296 381 290 q 356 321 374 301 q 298 379 338 340 q 183 488 258 418 q 144 519 163 508 q 108 535 126 531 q 68 542 89 540 q 22 543 47 543 l 13 543 q 31 583 13 561 q 74 625 50 606 q 122 658 99 644 q 153 671 144 671 q 184 662 167 671 q 232 627 201 653 q 310 555 263 601 q 436 432 358 508 q 477 522 450 479 q 541 599 504 565 q 622 651 578 632 q 715 671 667 671 l 747 671 q 797 660 774 671 q 821 611 821 649 q 794 555 821 575 q 740 535 767 535 l 633 553 q 598 546 618 553 q 559 525 578 539 q 527 492 540 511 q 514 451 514 474 q 515 419 514 438 q 521 383 517 400 l 729 192 q 784 152 758 160 q 842 144 810 144 l 897 144 q 878 104 897 126 q 836 62 860 82 q 790 28 813 42 q 758 15 767 15 q 726 24 743 15 q 679 58 710 32 q 600 131 649 83 q 472 256 551 178 z "},"Y":{"ha":881,"x_min":15,"x_max":847,"o":"m 342 -274 q 355 -290 346 -286 q 375 -294 364 -294 q 429 -272 410 -294 q 458 -219 449 -250 q 470 -156 468 -189 q 472 -103 472 -124 q 464 -21 472 -61 q 447 60 456 19 q 429 140 438 100 q 421 221 421 179 q 435 265 421 238 q 470 325 449 293 q 518 389 492 357 q 571 447 544 421 q 621 490 597 474 q 658 507 644 507 q 695 497 678 507 q 733 486 713 486 q 763 493 743 486 q 801 511 782 500 q 833 536 819 522 q 847 565 847 550 q 835 598 847 585 q 806 619 822 611 q 770 630 789 626 q 739 633 751 633 q 664 613 701 633 q 590 563 626 593 q 522 497 554 532 q 460 432 489 463 q 409 381 432 401 q 371 361 386 361 q 337 381 351 363 q 310 428 322 400 q 285 489 297 456 q 261 553 274 522 q 235 609 249 585 q 204 643 221 633 q 183 658 192 656 q 161 661 175 661 l 146 661 q 107 656 129 661 q 65 639 85 650 q 30 611 44 628 q 15 574 15 594 q 16 564 15 569 q 17 557 17 558 q 29 558 18 558 q 105 513 67 558 q 178 394 143 467 q 243 231 213 321 q 296 51 274 140 q 331 -116 318 -37 q 343 -243 343 -194 l 343 -258 q 342 -274 343 -272 z "},"Z":{"ha":539,"x_min":14,"x_max":506,"o":"m 88 546 l 126 508 q 168 500 149 500 q 212 506 192 500 q 256 513 232 513 l 260 513 q 284 508 275 513 q 293 472 293 503 q 275 413 293 439 q 235 363 257 386 q 196 313 214 339 q 178 254 178 288 q 183 228 178 239 q 203 218 188 218 q 248 228 226 218 q 296 238 269 238 q 340 226 319 238 q 360 183 360 214 q 348 144 360 158 q 313 115 336 131 q 288 99 300 107 q 262 80 276 90 q 228 56 247 69 q 179 21 208 42 q 138 -56 157 -12 q 101 -154 119 -100 q 83 -217 89 -192 q 78 -256 78 -242 q 85 -271 78 -271 l 88 -271 q 175 -171 113 -265 l 264 -39 q 347 10 289 -3 q 436 81 408 22 q 486 181 467 143 q 506 246 506 218 q 488 299 506 278 q 448 338 469 321 q 408 371 426 354 q 390 410 390 388 q 395 448 390 429 q 406 485 400 467 q 418 524 413 504 q 424 565 424 544 q 407 638 424 619 q 343 657 390 657 q 301 651 321 657 q 263 638 282 644 q 226 624 244 631 q 185 618 207 618 q 161 626 168 618 q 148 645 154 635 q 133 664 142 656 q 106 672 124 672 q 49 658 75 672 q 25 639 33 651 q 14 585 17 626 q 18 561 14 574 q 36 538 22 549 l 88 546 z "},"[":{"ha":383,"x_min":28,"x_max":356,"o":"m 28 290 l 28 200 q 32 119 28 161 q 48 42 36 76 q 81 -16 60 7 q 136 -39 101 -39 q 188 -35 160 -39 q 250 -32 217 -32 q 296 31 283 -32 q 300 71 300 56 q 289 96 300 96 l 197 96 q 182 149 188 122 q 175 194 176 176 l 175 529 l 174 544 q 178 586 174 558 q 225 625 183 625 q 240 624 236 625 q 261 622 244 622 q 333 650 310 622 q 356 717 356 678 l 354 725 q 295 733 321 729 q 247 738 269 736 q 201 742 224 740 q 150 743 178 743 l 110 743 l 44 635 q 35 616 42 629 q 29 601 29 603 l 44 583 l 44 567 q 36 430 44 499 q 28 290 28 361 z "},"\\":{"ha":813,"x_min":15,"x_max":796,"o":"m 601 17 q 319 245 450 125 q 65 504 188 365 q 51 509 60 506 q 35 518 43 513 q 21 530 26 524 q 15 544 15 536 q 28 571 15 557 q 60 595 42 585 q 99 613 79 606 q 131 619 118 619 q 139 619 133 619 q 146 618 144 618 q 189 583 158 608 q 253 528 219 557 q 316 474 286 500 q 357 439 346 449 q 378 417 361 435 q 414 381 394 400 q 450 344 433 361 q 471 325 467 328 q 508 292 479 317 q 574 240 538 268 q 646 185 611 211 q 699 146 681 158 l 731 131 q 744 119 735 128 q 765 99 754 110 q 784 79 775 89 q 796 65 793 69 q 744 17 772 36 q 678 -1 715 -1 l 656 -1 q 626 1 640 -1 q 601 17 613 4 z "},"]":{"ha":371,"x_min":15,"x_max":343,"o":"m 343 413 l 343 504 q 339 585 343 543 q 323 663 335 628 q 290 720 311 697 q 233 743 268 743 q 181 740 210 743 q 121 736 153 736 q 75 671 88 736 q 71 647 72 658 q 69 629 69 636 q 81 608 69 608 l 172 608 q 188 555 182 582 q 194 508 193 528 l 197 489 l 197 342 l 194 308 l 194 174 q 197 163 196 167 q 197 156 197 158 q 192 115 197 126 q 142 76 186 76 l 128 78 q 117 79 126 79 l 106 79 q 38 53 61 79 q 15 -12 15 26 q 16 -17 15 -15 q 17 -21 17 -19 q 75 -30 50 -26 q 123 -35 100 -33 q 169 -38 146 -37 q 219 -39 192 -39 l 260 -39 l 303 43 q 322 87 318 72 q 325 129 325 101 l 343 413 z "},"^":{"ha":790,"x_min":8,"x_max":764,"o":"m 164 254 q 174 289 164 272 q 199 317 183 306 q 235 336 215 329 q 274 343 254 343 q 306 326 288 343 q 342 287 325 310 q 370 240 358 264 q 382 200 382 215 q 365 173 382 186 q 326 149 349 160 q 281 133 303 139 q 247 126 258 126 q 210 140 225 126 q 184 174 194 154 q 169 215 174 193 q 164 254 164 238 m 31 188 q 40 122 31 156 q 68 61 50 89 q 113 16 86 33 q 172 -1 139 -1 q 253 18 215 -1 q 323 61 290 38 q 385 104 356 85 q 440 124 414 124 l 456 122 l 553 36 q 562 34 554 36 q 575 32 569 32 q 614 40 600 32 q 650 71 628 49 q 683 103 664 83 q 721 143 703 124 q 751 177 739 163 q 764 192 764 192 l 764 214 q 737 210 749 214 q 714 202 725 207 q 692 194 703 197 q 667 190 681 190 q 657 191 663 190 q 650 192 651 192 q 586 264 621 218 q 513 364 551 310 q 431 474 474 418 q 347 574 389 529 q 262 648 304 619 q 179 676 219 676 q 131 665 160 676 q 74 635 101 654 q 28 592 47 617 q 8 543 8 568 q 60 541 26 543 q 128 528 94 539 q 188 497 163 518 q 213 440 213 476 q 184 392 213 414 q 122 342 156 369 q 59 278 88 314 q 31 188 31 242 z "},"_":{"ha":621,"x_min":-37,"x_max":663,"o":"m 126 -56 q 70 -72 99 -62 q 17 -95 42 -81 q -22 -133 -7 -110 q -37 -190 -37 -156 l -19 -189 q 1 -182 -15 -187 q 38 -171 18 -176 q 74 -160 57 -165 q 94 -156 90 -156 q 122 -153 107 -154 q 153 -153 136 -153 q 240 -155 193 -153 q 336 -157 288 -157 q 442 -152 389 -157 q 539 -133 494 -147 q 616 -94 583 -119 q 663 -26 649 -68 l 614 -26 l 126 -56 z "},"`":{"ha":286,"x_min":28,"x_max":251,"o":"m 201 735 q 172 755 183 744 q 152 776 161 765 q 135 797 143 786 q 114 818 126 807 l 28 901 l 157 901 q 176 888 169 893 q 187 878 182 883 q 196 867 192 872 q 207 853 200 861 q 243 804 228 840 q 251 776 251 788 q 240 757 251 764 l 201 735 z "},"a":{"ha":740,"x_min":15,"x_max":711,"o":"m 43 193 q 56 120 43 156 q 90 58 68 85 q 144 15 113 31 q 215 -1 176 -1 q 276 15 249 -1 q 328 51 303 31 q 380 87 354 71 q 435 103 406 103 l 451 101 q 468 83 456 94 q 497 58 481 71 q 527 33 513 44 q 549 18 542 22 q 560 17 550 18 q 578 17 571 17 q 621 24 597 17 q 665 47 644 32 q 698 81 685 61 q 711 126 711 101 l 711 135 q 644 170 681 142 q 558 255 608 199 q 437 397 507 311 q 268 603 367 482 q 251 624 261 613 q 230 645 242 635 q 205 663 218 656 q 178 669 192 669 l 163 669 q 158 668 160 669 q 124 653 147 664 q 76 629 100 643 q 33 598 51 615 q 15 563 15 581 q 50 553 15 554 q 92 551 69 553 q 140 535 114 549 q 213 389 213 433 q 186 356 213 374 q 128 314 160 338 q 69 260 96 290 q 43 193 43 231 m 176 242 q 199 289 176 269 q 249 308 221 308 l 251 308 q 299 294 276 308 q 339 259 322 279 q 365 218 356 239 q 375 183 375 197 q 363 162 375 172 q 335 144 350 151 q 306 131 319 136 q 292 126 293 126 l 283 126 q 245 138 264 126 q 211 166 226 149 q 186 203 196 183 q 176 242 176 224 z "},"b":{"ha":703,"x_min":10,"x_max":674,"o":"m 111 547 q 131 545 119 547 q 143 529 143 543 l 143 51 q 157 25 143 35 q 189 9 171 15 q 225 1 207 3 q 253 -1 243 -1 q 331 7 286 -1 q 422 33 375 15 q 513 76 468 50 q 594 139 558 103 q 651 220 629 175 q 674 321 674 265 l 674 375 q 633 453 668 424 q 560 496 597 482 l 560 513 q 572 570 560 543 q 585 632 585 597 q 584 642 585 635 q 583 658 583 650 q 583 673 583 667 q 582 682 582 679 q 559 697 569 693 q 533 701 549 701 q 474 690 504 701 q 415 665 444 679 q 356 640 386 651 q 297 629 326 629 q 271 635 282 629 q 249 649 260 642 q 227 662 239 656 q 201 668 215 668 q 136 660 169 668 q 74 635 103 653 q 28 590 46 618 q 10 524 10 563 q 38 527 25 524 q 62 535 50 531 q 85 544 74 540 q 111 547 97 547 m 272 211 q 276 347 272 283 q 290 488 281 410 q 308 523 290 507 q 348 551 325 539 q 394 569 371 563 q 428 575 417 575 q 449 564 443 575 q 454 539 454 553 q 442 497 454 519 q 415 454 431 475 q 384 415 399 433 q 364 386 369 396 q 363 383 364 386 q 363 376 363 379 q 389 351 363 351 q 404 350 390 350 l 457 353 q 507 341 485 353 q 529 285 529 329 q 515 220 529 251 q 476 165 500 189 q 420 126 451 140 q 357 113 389 113 q 291 141 310 113 q 272 211 272 169 z "},"c":{"ha":676,"x_min":17,"x_max":636,"o":"m 17 286 q 38 162 17 215 q 96 72 58 108 q 185 16 133 35 q 300 -3 238 -3 l 306 -3 q 410 6 353 -3 q 518 33 468 14 q 602 83 568 53 q 636 158 636 114 q 619 203 636 200 q 608 204 618 204 q 564 193 608 204 q 507 163 533 179 q 453 130 479 143 q 388 117 428 117 q 222 177 283 117 q 161 346 161 238 q 169 425 161 388 q 193 491 176 463 q 238 537 210 519 q 307 554 265 554 q 358 549 333 554 q 408 536 383 543 q 456 524 432 529 q 504 518 479 518 q 538 519 521 518 q 570 527 556 521 q 594 546 585 533 q 603 579 603 558 q 583 627 603 608 q 536 656 564 646 q 478 671 508 667 q 426 675 449 675 q 274 645 349 675 q 143 563 200 615 q 51 440 86 511 q 17 286 17 369 z "},"d":{"ha":783,"x_min":17,"x_max":749,"o":"m 31 308 q 59 197 31 253 q 133 98 88 142 q 236 26 179 54 q 350 -1 293 -1 q 473 28 404 -1 q 603 104 542 57 q 706 210 664 151 q 749 331 749 269 q 733 424 749 375 q 682 504 717 472 l 325 844 q 263 885 294 874 q 192 896 232 896 q 92 869 133 896 q 17 796 50 842 l 35 796 q 113 788 81 796 q 170 765 144 781 q 220 726 196 749 q 274 672 244 703 q 283 662 279 667 q 293 650 288 657 l 290 639 q 271 610 290 626 q 223 572 251 593 q 160 525 194 551 q 98 466 126 499 q 50 394 69 433 q 31 308 31 354 m 178 374 l 178 386 q 187 437 178 415 q 214 477 196 458 q 260 514 232 496 q 325 553 288 532 q 344 567 332 556 q 357 578 356 578 l 374 578 q 449 516 408 549 q 524 445 489 483 q 582 364 558 407 q 606 272 606 321 l 606 271 q 605 256 606 268 q 601 211 604 244 q 570 176 588 194 q 533 144 553 158 q 491 122 513 131 q 447 113 469 113 q 349 135 397 113 q 263 195 301 158 q 201 278 225 232 q 178 374 178 325 z "},"e":{"ha":825,"x_min":19,"x_max":800,"o":"m 19 278 q 56 416 19 346 q 150 542 93 486 q 276 635 207 599 q 410 671 344 671 q 508 635 468 671 q 589 550 547 600 q 590 541 589 549 q 590 529 590 533 q 583 495 590 510 q 557 461 575 481 q 599 443 575 443 l 644 443 q 712 452 681 443 q 776 461 743 461 l 785 461 q 793 454 788 460 q 800 446 799 449 l 796 442 q 771 411 788 431 q 734 372 754 392 q 693 339 714 353 q 654 325 672 325 q 592 329 622 328 q 529 331 561 331 q 396 324 461 331 q 264 317 331 317 q 209 318 236 317 q 154 325 182 319 q 182 238 154 276 q 251 174 210 200 q 340 134 293 147 q 428 121 388 121 q 463 126 447 121 q 495 139 479 132 q 528 151 511 146 q 565 157 544 157 q 538 87 565 117 q 471 38 510 57 q 390 8 432 18 q 318 -1 347 -1 q 207 19 261 -1 q 111 76 153 39 q 44 164 69 113 q 19 278 19 215 m 338 558 q 285 546 313 558 q 233 512 257 533 q 194 463 210 490 q 179 406 179 435 q 244 411 211 406 q 313 426 276 417 q 354 435 336 432 q 388 442 372 439 q 419 451 404 446 q 450 468 433 457 q 433 508 442 501 q 420 521 429 513 q 399 538 411 529 q 371 552 386 546 q 338 558 356 558 z "},"f":{"ha":735,"x_min":15,"x_max":700,"o":"m 15 -207 q 17 -226 15 -218 q 32 -240 19 -233 q 113 -176 83 -208 q 161 -108 143 -144 q 190 -26 179 -71 q 211 78 200 19 q 317 108 261 101 q 428 114 374 114 q 453 113 438 114 q 471 113 469 113 q 481 107 474 113 q 496 95 488 101 q 510 83 504 89 q 519 78 517 78 q 534 84 522 78 q 553 94 546 90 q 567 106 554 97 q 593 124 579 114 q 619 144 607 133 q 633 161 632 154 q 635 174 635 163 q 622 206 635 192 q 590 228 608 219 q 552 242 572 238 q 519 246 532 246 q 441 238 479 246 q 365 222 403 231 q 289 206 326 214 q 213 199 251 199 l 211 229 q 213 269 211 240 q 217 329 214 297 q 222 390 219 361 q 228 429 225 418 q 276 454 257 435 q 313 494 294 474 q 351 531 331 515 q 406 547 372 547 q 469 531 440 547 q 521 495 497 515 q 564 459 544 475 q 600 443 583 443 q 675 469 650 443 q 700 539 700 494 q 679 601 700 576 q 627 640 658 625 q 561 660 596 654 q 499 665 526 665 q 422 649 457 665 q 356 613 386 633 q 297 577 325 593 q 243 561 269 561 q 235 562 240 561 q 228 563 229 563 q 222 574 225 565 q 216 595 219 583 q 208 620 213 607 q 200 643 204 633 q 191 669 194 663 q 179 679 188 675 l 171 679 q 135 670 156 679 q 94 647 114 661 q 61 616 75 633 q 47 582 47 599 q 49 561 47 571 q 65 546 51 551 q 69 497 67 532 q 74 422 72 461 q 78 346 76 382 q 81 296 81 310 l 81 229 l 49 -106 q 40 -122 44 -110 q 30 -148 35 -135 q 22 -174 25 -161 q 17 -190 18 -186 q 16 -197 17 -192 q 15 -207 15 -203 z "},"g":{"ha":711,"x_min":15,"x_max":672,"o":"m 457 -244 q 468 -231 461 -240 q 483 -212 475 -222 q 497 -192 490 -201 q 506 -181 503 -183 q 526 -140 522 -161 q 531 -74 531 -119 q 528 -29 531 -50 q 518 7 525 -8 l 365 -7 q 245 10 307 -7 q 133 60 183 26 q 49 142 82 93 q 15 256 15 190 q 35 362 15 308 q 91 463 56 415 q 173 553 126 511 q 273 625 219 594 q 383 673 326 656 q 496 690 440 690 q 529 687 513 690 q 560 676 546 683 q 583 656 574 668 q 592 628 592 644 q 566 571 592 594 q 504 547 540 547 q 444 556 471 547 q 382 565 417 565 q 291 543 332 565 q 221 485 250 521 q 176 406 192 450 q 161 315 161 361 q 190 224 161 261 q 263 163 219 186 q 359 128 307 139 q 457 118 411 118 q 506 128 482 118 q 551 156 529 139 q 592 192 574 172 q 625 229 611 211 q 636 238 628 231 q 647 246 644 246 q 658 244 653 246 q 668 231 663 242 q 672 61 672 140 q 668 -117 672 -32 l 669 -115 l 671 -115 q 651 -137 671 -118 q 607 -180 631 -157 q 562 -223 583 -203 q 539 -244 540 -243 q 515 -258 525 -256 q 490 -261 504 -261 q 471 -259 479 -261 q 457 -244 463 -257 z "},"h":{"ha":742,"x_min":3,"x_max":700,"o":"m 49 258 q 54 393 49 326 q 66 526 60 460 q 78 660 72 593 q 83 796 83 728 q 71 832 83 821 q 43 850 58 843 q 15 866 28 857 q 3 896 3 875 q 16 930 3 917 q 48 949 29 943 q 88 958 67 956 q 126 960 110 960 q 152 959 138 960 q 180 953 167 958 q 202 938 193 949 q 211 910 211 928 l 211 539 q 272 559 244 539 q 326 603 299 579 q 382 648 353 628 q 447 668 411 668 q 477 666 465 668 q 504 650 489 664 l 528 622 q 592 546 561 583 q 647 468 624 508 q 685 383 671 428 q 700 285 700 339 q 690 197 700 242 q 658 114 679 151 q 601 53 636 76 q 515 29 565 29 q 522 77 515 56 q 535 121 528 99 q 549 167 543 143 q 556 219 556 190 q 540 308 556 254 q 500 413 525 363 q 442 501 475 464 q 374 538 408 538 q 354 535 361 538 q 341 529 347 533 q 328 519 335 525 q 308 504 321 513 l 194 406 l 193 385 l 193 300 q 192 276 193 290 q 192 244 192 261 q 195 190 192 217 q 211 146 199 164 l 260 97 q 260 92 260 97 q 261 83 261 86 q 249 49 261 65 q 220 22 238 33 q 182 4 203 11 q 144 -3 161 -3 q 89 30 108 -3 q 60 106 69 63 q 50 192 51 149 q 49 258 49 236 z "},"i":{"ha":369,"x_min":15,"x_max":342,"o":"m 65 81 q 69 60 65 74 q 80 34 74 47 q 95 10 86 21 q 114 0 104 0 q 143 -5 129 -3 q 169 -7 157 -7 q 194 -5 179 -7 q 228 0 208 -3 q 299 47 269 21 q 342 110 328 72 q 338 115 340 111 q 328 118 335 118 l 271 108 q 224 124 236 108 q 211 181 211 140 l 229 497 l 228 522 l 228 614 q 196 657 208 647 q 157 667 183 667 q 116 660 140 667 q 69 642 92 654 q 31 613 47 631 q 15 572 15 594 q 31 550 15 557 q 65 532 46 543 q 92 490 85 521 q 100 418 100 460 q 94 333 100 375 q 83 249 89 290 q 71 165 76 207 q 65 81 65 122 m 65 814 q 87 756 65 778 q 146 733 108 733 q 178 737 160 733 q 212 748 196 740 q 238 769 228 756 q 249 801 249 782 q 248 809 249 804 q 247 815 247 814 q 185 890 203 883 q 160 897 174 897 q 151 899 158 899 q 90 874 115 899 q 65 814 65 850 z "},"j":{"ha":335,"x_min":-89,"x_max":274,"o":"m -89 -346 q 85 -132 68 -206 q 97 -54 93 -93 q 101 25 100 -15 q 103 42 103 26 l 103 58 l 103 90 q 99 215 103 157 q 96 325 96 272 l 93 376 l 93 564 q 78 582 89 581 q 56 584 68 583 q 36 590 44 585 q 28 621 28 596 l 29 644 q 64 680 49 667 q 94 700 79 693 q 125 709 108 707 q 164 711 142 711 q 210 698 190 711 q 244 665 231 685 q 265 620 258 644 q 272 574 272 596 l 272 564 l 256 467 q 248 381 253 435 q 243 261 243 328 q 245 214 243 228 q 251 192 247 200 q 256 176 254 185 q 258 147 258 168 q 255 108 258 133 q 245 49 251 82 q 229 -21 239 17 q 207 -96 219 -58 q 178 -168 194 -137 q 143 -224 163 -199 q 101 -272 124 -249 q 54 -319 79 -294 q 5 -346 25 -336 q -39 -356 -15 -356 q -89 -346 -71 -356 m 90 869 q 115 930 90 906 q 176 954 140 954 q 185 953 183 954 q 211 946 176 953 q 272 872 228 939 l 274 857 q 263 824 274 838 q 238 803 253 811 q 204 792 222 796 q 172 789 186 789 q 112 812 133 789 q 90 869 90 835 z "},"k":{"ha":874,"x_min":15,"x_max":850,"o":"m 17 878 q 75 853 53 872 q 97 796 97 835 l 97 194 q 100 139 97 172 q 113 74 103 106 q 142 21 122 43 q 194 -1 161 -1 q 239 10 213 -1 q 290 41 265 22 q 333 82 315 60 q 351 124 351 104 q 293 130 315 124 q 260 150 271 136 q 245 188 249 164 q 242 246 242 211 l 242 254 q 244 279 242 265 q 260 293 246 293 q 276 286 264 293 q 293 276 288 279 l 536 81 q 601 36 565 57 q 676 15 638 15 q 716 28 688 15 q 774 60 744 42 q 827 101 804 79 q 850 140 850 122 l 817 140 q 768 142 789 140 q 728 148 747 143 q 690 164 708 153 q 649 194 671 175 l 439 374 q 426 381 436 375 q 406 396 417 388 q 385 412 394 404 q 374 422 375 419 q 372 428 374 422 q 371 439 371 435 q 388 478 371 460 q 428 509 404 496 q 478 529 453 522 q 519 536 503 536 q 587 527 554 536 q 653 518 619 518 q 717 538 686 518 q 749 593 749 557 q 717 641 749 629 q 622 656 685 653 q 527 640 574 656 q 437 599 481 624 q 352 544 393 574 q 276 488 311 514 l 236 488 l 236 910 q 227 933 236 921 q 206 954 218 944 q 179 970 193 964 q 156 976 165 976 q 117 969 140 976 q 71 950 93 963 q 32 921 49 938 q 15 886 15 904 q 16 881 15 883 q 17 878 17 879 z "},"l":{"ha":628,"x_min":17,"x_max":589,"o":"m 17 829 q 76 886 40 861 q 156 911 113 911 q 212 885 189 911 q 243 829 235 858 l 243 806 q 244 772 243 790 q 247 738 246 753 l 226 322 q 234 224 226 267 q 264 154 242 182 q 324 112 286 126 q 422 97 361 97 l 589 151 q 570 95 589 122 q 517 47 551 68 q 433 12 482 25 q 325 -1 385 -1 l 313 -1 q 242 3 281 -1 q 172 21 204 7 q 119 60 140 35 q 97 131 97 86 l 97 764 q 88 792 97 785 q 64 803 78 800 q 37 810 50 807 q 17 829 24 814 z "},"m":{"ha":1060,"x_min":15,"x_max":1026,"o":"m 15 300 q 33 210 15 251 q 78 131 50 168 q 140 61 106 93 q 211 0 175 29 l 236 -1 q 267 5 249 -1 q 303 22 286 11 q 331 45 319 32 q 343 74 343 58 l 342 81 l 328 93 q 266 151 296 122 q 213 213 236 181 q 175 282 189 246 q 161 363 161 318 q 166 413 161 378 q 181 483 171 447 q 209 544 192 518 q 251 571 226 571 q 308 531 283 571 q 352 431 332 490 q 390 301 372 371 q 428 171 408 231 q 472 71 449 111 q 528 31 496 31 q 567 41 540 31 q 619 68 593 51 q 665 106 646 85 q 685 146 685 126 q 683 156 685 150 q 682 163 682 161 q 609 192 638 167 q 564 253 581 217 q 541 333 547 290 q 535 417 535 376 q 547 459 535 435 q 576 504 558 483 q 616 540 594 525 q 658 554 638 554 l 667 553 q 736 485 699 524 q 806 401 774 446 q 858 309 838 357 q 879 214 879 261 q 870 163 879 185 q 850 121 861 142 q 830 78 839 100 q 821 29 821 57 q 899 51 863 29 q 965 108 936 74 q 1010 182 993 142 q 1026 260 1026 222 q 1014 325 1026 285 q 980 411 1001 365 q 930 503 958 457 q 871 585 901 549 q 810 645 840 622 q 753 668 779 668 q 681 656 714 668 q 619 626 649 644 q 561 583 589 607 q 504 536 533 560 q 469 574 485 550 q 435 622 453 599 q 397 664 418 646 q 350 682 376 682 q 220 646 281 682 q 114 553 160 610 q 42 430 68 497 q 15 300 15 363 z "},"n":{"ha":979,"x_min":15,"x_max":939,"o":"m 81 -140 q 65 -201 69 -172 q 61 -261 61 -229 q 137 -241 107 -261 q 185 -189 167 -221 q 212 -118 203 -157 q 226 -42 221 -79 q 230 -1 228 -29 q 235 63 232 28 q 242 138 239 99 q 248 212 244 176 q 253 275 251 247 q 257 315 256 303 l 254 351 q 256 356 254 356 q 285 340 269 356 q 342 286 301 325 q 462 179 383 247 q 678 7 540 111 l 701 6 q 789 34 749 6 q 860 105 829 63 q 910 197 890 147 q 936 290 931 247 l 936 293 q 938 319 938 306 q 939 351 939 332 q 930 438 939 383 q 901 546 921 493 q 851 637 882 599 q 778 675 821 675 q 722 663 746 675 q 678 624 699 651 q 726 549 704 590 q 765 465 749 508 q 790 376 781 421 q 799 290 799 332 q 793 265 799 286 q 779 219 788 243 q 760 175 771 194 q 740 156 750 156 q 732 158 739 156 q 717 162 725 160 q 703 166 710 164 q 694 168 696 168 l 339 478 q 299 519 328 490 q 236 578 269 549 q 173 632 203 608 q 132 656 143 656 q 97 651 117 656 q 59 639 78 647 q 28 617 40 631 q 15 583 15 603 q 22 559 15 572 q 39 532 29 546 q 57 504 49 518 q 68 478 65 490 q 85 376 79 422 q 90 286 90 331 l 90 264 q 90 220 90 249 q 88 144 89 192 q 85 26 88 96 q 81 -140 83 -43 z "},"o":{"ha":751,"x_min":15,"x_max":717,"o":"m 15 299 q 38 401 15 340 q 94 517 60 461 q 173 613 129 574 q 260 653 217 653 q 350 665 306 665 q 439 653 394 665 q 455 647 446 653 q 471 638 464 640 q 548 587 506 614 q 628 526 590 560 q 691 452 665 493 q 717 361 717 411 q 683 236 717 300 q 596 120 649 172 q 479 34 543 68 q 357 0 415 0 q 238 22 299 0 q 128 85 178 44 q 47 179 79 125 q 15 299 15 233 m 146 367 q 173 269 146 311 q 241 199 200 228 q 331 156 282 171 q 422 142 379 142 q 532 173 493 142 q 571 283 571 204 q 539 386 571 339 q 459 468 507 433 q 355 522 411 503 q 249 542 299 542 q 204 522 224 542 q 172 475 185 503 q 153 417 160 447 q 146 367 146 388 z "},"p":{"ha":751,"x_min":15,"x_max":717,"o":"m 17 -279 l 65 -182 q 69 -143 67 -181 q 74 -55 71 -106 q 78 49 76 -4 q 81 133 81 101 l 83 160 l 83 333 l 81 372 l 81 532 q 62 553 74 547 q 38 564 50 560 l 32 565 q 55 604 40 586 q 88 635 69 622 q 128 657 107 649 q 171 665 150 665 q 200 658 189 665 q 218 640 211 651 q 231 613 225 628 q 243 582 236 599 l 251 582 q 310 595 282 582 q 366 624 338 608 q 424 652 394 639 q 488 665 454 665 q 513 664 494 665 q 536 663 531 663 q 602 603 569 636 q 660 530 635 569 q 701 447 685 490 q 717 356 717 403 q 688 234 717 294 q 612 125 658 174 q 506 46 565 76 q 389 15 447 15 q 362 17 379 15 q 342 18 344 18 l 325 35 q 402 96 360 76 q 482 135 444 115 q 545 188 519 156 q 571 288 571 221 q 560 366 571 321 q 528 453 550 411 q 476 523 507 494 q 403 551 444 551 q 354 542 383 551 q 297 519 325 533 q 249 487 269 506 q 229 450 229 468 q 219 149 226 292 q 194 -147 211 7 q 176 -190 194 -164 q 134 -240 158 -215 q 83 -283 110 -265 q 40 -300 57 -300 q 35 -298 39 -300 q 32 -296 32 -296 q 22 -286 28 -292 q 17 -279 15 -281 z "},"q":{"ha":689,"x_min":15,"x_max":668,"o":"m 568 211 q 570 156 568 197 q 575 65 572 114 q 581 -29 578 17 q 586 -96 583 -75 q 596 -145 588 -121 q 614 -192 604 -169 q 631 -240 624 -215 q 639 -289 639 -264 q 542 -255 575 -289 q 493 -173 510 -221 q 467 -75 476 -125 q 439 7 457 -25 q 431 10 438 8 q 415 15 424 13 q 399 20 407 18 q 390 22 392 22 q 281 56 340 31 q 169 119 222 82 q 78 202 117 157 q 32 296 40 247 q 15 360 15 326 l 15 426 q 25 503 15 463 q 56 578 35 543 q 107 635 76 613 q 179 657 138 657 q 245 646 213 657 q 309 617 278 635 q 369 577 340 599 q 422 535 397 556 q 438 574 433 553 q 447 613 442 594 q 465 644 453 632 q 504 657 476 657 q 551 644 526 657 q 597 612 575 631 q 636 572 618 593 q 667 535 654 551 l 668 526 l 667 518 q 657 507 663 514 q 650 500 651 500 q 633 508 646 500 q 618 518 621 517 l 610 518 q 594 508 600 513 q 585 500 588 503 q 581 444 583 485 q 575 357 578 403 q 570 269 572 311 q 568 211 568 228 m 439 335 q 425 399 439 365 q 388 461 411 433 q 335 507 365 489 q 275 525 306 525 q 219 506 243 525 q 178 457 194 486 q 154 394 163 428 q 146 335 146 361 q 166 256 146 290 q 218 197 186 221 q 289 160 250 174 q 365 147 328 147 l 422 151 q 426 188 424 161 q 432 243 429 214 q 437 298 435 272 q 439 335 439 324 z "},"r":{"ha":819,"x_min":8,"x_max":797,"o":"m 76 -135 q 66 -181 76 -161 q 42 -218 56 -200 q 19 -255 29 -236 q 8 -299 8 -274 q 115 -262 72 -299 q 182 -174 157 -226 q 217 -63 207 -121 q 228 39 228 -6 q 274 77 242 63 q 332 92 306 92 q 410 71 374 92 q 480 25 446 50 q 549 -21 514 0 q 622 -42 583 -42 q 678 -33 656 -42 q 719 -8 700 -24 q 756 29 738 7 q 797 76 774 51 q 771 88 790 88 q 742 83 756 88 q 731 79 728 79 q 696 83 715 79 q 671 86 676 86 l 536 165 q 535 167 536 165 q 535 172 535 169 q 553 221 535 199 q 594 264 571 243 q 638 306 617 285 q 667 353 660 328 q 668 383 667 361 q 669 422 669 404 l 669 439 q 662 515 669 472 q 635 596 654 558 q 586 659 617 633 q 510 685 556 685 q 450 672 481 685 q 390 640 419 658 q 331 603 360 622 q 276 574 303 585 q 273 615 276 594 q 260 651 269 635 q 236 676 251 667 q 197 685 221 685 q 111 658 144 685 q 44 589 78 631 q 44 585 44 586 q 43 582 43 583 q 51 564 43 571 q 69 552 58 557 q 90 545 79 547 q 107 542 100 543 l 107 494 q 99 182 107 335 q 76 -135 92 29 m 429 563 q 485 538 464 563 q 516 480 506 514 q 530 410 526 446 q 533 353 533 375 q 517 304 533 325 q 474 267 500 283 q 415 240 447 251 q 349 219 382 228 q 288 204 317 210 q 242 194 260 199 l 242 281 l 243 303 l 243 408 q 251 444 246 422 q 260 469 256 465 l 406 561 q 417 563 407 563 l 429 563 z "},"s":{"ha":644,"x_min":15,"x_max":617,"o":"m 15 150 q 53 85 15 113 q 142 38 92 57 q 244 8 193 18 q 321 -1 294 -1 q 414 26 364 -1 q 506 95 464 53 q 575 188 547 138 q 603 283 603 238 q 573 361 603 332 q 499 406 543 390 q 403 426 454 421 q 313 431 353 431 l 256 431 q 243 432 244 431 q 215 456 219 443 q 210 488 210 468 q 222 520 210 506 q 253 544 235 535 q 293 559 272 554 q 331 564 314 564 q 383 553 358 564 q 430 530 407 543 q 476 506 453 517 q 526 496 499 496 q 555 501 539 496 q 585 515 571 506 q 608 538 599 525 q 617 565 617 550 q 595 613 617 592 q 543 649 574 633 q 481 672 513 664 q 428 681 449 681 q 317 661 379 681 q 198 607 254 642 q 103 523 142 572 q 64 414 64 474 q 76 353 64 376 q 110 319 89 331 q 158 303 131 307 q 215 299 185 299 q 226 300 225 299 l 313 300 q 367 297 342 300 q 413 285 393 294 q 443 256 432 275 q 454 207 454 238 q 446 176 454 190 q 425 151 438 161 q 397 134 413 140 q 364 128 381 128 q 299 139 332 128 q 233 166 265 150 q 169 200 200 182 q 114 232 139 218 l 106 232 q 76 224 92 232 q 47 206 60 217 q 24 179 33 194 q 15 150 15 164 z "},"t":{"ha":822,"x_min":17,"x_max":790,"o":"m 308 157 l 322 547 l 146 547 l 49 465 q 45 464 49 465 q 40 463 42 463 q 35 464 39 463 q 32 465 32 465 q 23 474 29 467 q 17 482 17 481 q 23 499 17 486 q 32 515 29 511 q 76 561 49 533 q 130 615 104 589 q 175 660 156 642 q 194 679 194 679 q 315 675 254 676 q 440 674 376 674 q 567 675 503 674 q 699 679 632 676 q 790 719 739 719 q 761 642 790 676 q 690 582 732 607 q 599 544 647 557 q 514 531 551 531 l 500 531 q 488 532 489 531 l 456 497 q 452 474 454 497 q 447 420 450 451 q 442 355 444 389 q 439 300 440 321 l 439 236 q 448 177 439 204 q 488 150 457 150 q 519 156 504 150 q 547 169 533 163 q 575 183 561 176 q 606 189 589 189 q 584 127 606 158 q 531 69 563 96 q 466 25 500 43 q 406 1 432 7 q 393 0 404 0 q 356 19 372 0 q 330 65 340 39 q 314 117 319 90 q 308 157 308 143 z "},"u":{"ha":815,"x_min":15,"x_max":783,"o":"m 15 281 q 36 348 15 318 q 81 404 57 378 q 126 458 106 431 q 147 518 147 485 q 138 539 147 533 q 113 544 128 544 l 40 538 q 17 558 18 538 q 46 602 26 581 q 90 640 65 624 q 141 667 114 657 q 193 676 168 676 q 258 659 238 676 q 278 599 278 642 l 278 597 q 257 519 278 550 q 211 464 236 489 q 165 412 186 439 q 144 346 144 385 q 174 274 144 311 q 245 205 203 236 q 334 153 288 174 q 414 132 381 132 q 488 153 460 132 q 531 208 515 175 q 551 280 546 240 q 556 356 556 319 q 555 374 556 365 q 553 392 554 383 l 553 510 q 543 526 549 514 q 536 543 538 539 q 535 546 536 543 q 535 553 535 549 q 535 556 535 554 q 536 558 536 558 l 618 640 q 626 641 618 640 q 639 642 633 642 l 649 642 q 676 638 663 642 q 690 624 690 635 l 690 164 q 702 139 690 147 q 730 126 714 131 q 761 122 746 122 q 783 121 776 121 q 767 78 783 100 q 726 38 750 56 q 676 8 701 19 q 635 -3 651 -3 q 597 6 613 -3 q 570 29 582 15 q 551 61 558 43 q 536 99 543 79 q 485 71 510 88 q 436 39 461 54 q 383 13 411 24 q 325 1 356 1 q 224 27 278 1 q 123 93 169 53 q 46 183 76 133 q 15 281 15 232 z "},"v":{"ha":822,"x_min":15,"x_max":783,"o":"m 15 288 q 35 226 15 258 q 86 161 54 193 q 158 100 118 129 q 239 49 199 71 q 317 13 279 26 q 382 0 356 0 l 390 0 q 417 10 399 4 q 439 17 435 15 q 557 84 496 50 q 668 160 618 118 q 751 256 718 203 q 783 383 783 310 q 775 433 783 403 q 753 496 767 463 q 719 563 739 529 q 677 623 700 596 q 628 667 654 650 q 576 685 603 685 q 553 679 571 685 q 517 663 536 674 q 484 640 499 653 q 469 613 469 626 l 471 606 q 507 540 478 569 q 568 477 536 510 q 626 406 600 444 q 651 317 651 368 q 633 249 651 283 q 585 188 614 215 q 519 142 556 160 q 449 124 483 124 q 360 149 410 124 q 267 210 311 174 q 192 287 222 246 q 161 360 161 328 q 184 423 161 394 q 235 479 207 451 q 285 538 263 507 q 308 606 308 568 q 284 661 308 638 q 228 685 260 685 q 183 677 210 685 q 132 656 157 669 q 89 623 107 642 q 71 582 71 604 l 107 582 q 149 572 133 582 q 164 535 164 563 q 141 472 164 501 q 90 414 118 443 q 38 354 61 385 q 15 288 15 324 z "},"w":{"ha":1189,"x_min":17,"x_max":1156,"o":"m 47 276 q 78 176 47 219 q 153 99 108 132 q 249 42 199 65 q 342 1 300 18 q 349 0 343 1 q 357 -1 354 -1 q 402 13 376 -1 q 452 46 428 28 q 495 81 476 64 q 519 101 514 97 l 544 103 q 600 90 574 103 q 653 60 626 76 q 707 30 679 43 q 767 17 735 17 q 837 35 796 17 q 921 83 878 53 q 1006 153 964 114 q 1081 235 1049 193 q 1135 322 1114 278 q 1156 403 1156 365 q 1142 472 1156 439 q 1106 533 1128 504 q 1058 589 1085 563 q 1006 639 1031 615 l 992 653 q 985 654 990 653 q 975 656 979 656 q 945 649 963 656 q 913 631 928 642 q 887 606 897 619 q 876 579 876 593 q 897 515 876 543 q 943 458 918 486 q 989 398 968 429 q 1010 326 1010 367 q 996 260 1010 294 q 958 199 982 226 q 902 153 933 171 q 838 135 871 135 q 797 146 822 135 q 744 175 772 157 q 688 215 717 193 q 637 261 660 238 q 599 306 614 285 q 585 344 585 328 q 601 407 585 378 q 635 465 617 436 q 670 523 654 493 q 686 586 686 553 q 667 641 686 626 q 613 656 649 656 q 571 651 596 656 q 523 635 546 646 q 484 609 500 625 q 468 571 468 593 q 479 547 468 553 q 503 538 490 542 q 526 524 515 533 q 538 493 538 515 q 524 441 538 465 q 495 392 511 417 q 466 342 479 368 q 453 288 453 317 q 463 235 453 258 q 472 183 472 211 q 461 149 472 164 q 431 133 450 133 l 422 135 q 358 163 399 144 q 278 207 318 181 q 208 268 238 233 q 179 344 179 303 q 192 408 179 379 q 220 466 204 438 q 249 524 236 494 q 261 586 261 553 q 235 648 261 626 q 171 669 208 669 q 125 660 147 669 q 83 637 103 651 q 46 605 63 622 q 17 571 29 588 q 24 560 18 567 q 32 553 29 554 q 48 549 36 551 q 73 543 60 546 q 98 538 86 540 q 114 536 110 536 l 115 504 q 105 447 115 474 q 81 392 94 419 q 58 338 68 365 q 47 276 47 310 z "},"x":{"ha":929,"x_min":14,"x_max":899,"o":"m 436 256 q 460 190 449 218 q 485 138 471 161 q 517 97 499 115 q 563 61 535 79 q 638 26 599 36 q 715 15 678 15 l 751 15 q 800 27 778 15 q 822 76 822 39 q 797 133 822 113 q 746 153 771 153 l 633 135 q 599 142 618 135 q 563 163 581 149 q 534 194 546 176 q 522 236 522 213 q 519 242 522 239 q 517 251 517 244 q 520 267 517 258 q 526 288 524 275 q 532 296 528 290 q 556 321 536 301 q 615 379 575 340 q 731 488 656 418 q 769 519 751 508 q 804 536 786 531 q 842 542 822 542 q 889 543 863 543 l 899 543 q 880 583 899 561 q 837 625 861 606 q 790 658 813 644 q 758 671 767 671 q 726 662 743 671 q 678 627 708 653 q 599 555 647 601 q 472 432 550 508 q 431 522 458 479 q 367 599 404 565 q 286 651 331 632 q 193 671 242 671 l 161 671 q 113 660 135 671 q 92 611 92 649 q 117 555 92 575 q 168 535 142 535 l 275 553 q 310 546 289 553 q 349 525 331 539 q 381 492 368 511 q 394 451 394 474 q 393 419 394 438 q 388 383 392 400 l 186 192 q 130 152 157 160 q 71 144 103 144 l 14 144 q 33 104 14 126 q 76 62 51 82 q 123 28 100 42 q 154 15 146 15 q 183 22 168 15 q 222 49 197 29 q 285 107 246 69 q 386 206 324 144 l 436 256 z "},"y":{"ha":874,"x_min":15,"x_max":847,"o":"m 519 -271 q 486 -294 513 -294 q 432 -272 451 -294 q 403 -217 413 -249 q 391 -153 393 -186 q 389 -99 389 -119 q 397 -17 389 -57 q 415 64 406 24 q 432 145 424 104 q 440 229 440 186 q 426 274 440 246 q 391 333 413 301 q 343 399 369 365 q 290 458 317 432 q 240 501 264 485 q 203 518 217 518 q 166 508 183 518 q 128 497 149 497 q 99 503 118 497 q 62 522 81 510 q 29 548 43 533 q 15 579 15 563 q 27 610 15 597 q 56 631 39 624 q 92 642 74 639 q 122 646 110 646 q 197 626 160 646 q 270 575 235 606 q 338 508 306 544 q 397 442 369 472 q 448 391 425 411 q 488 371 471 371 q 522 390 506 371 q 551 437 538 408 q 576 499 564 465 q 602 565 589 533 q 629 622 615 597 q 660 657 643 647 q 684 674 675 672 q 711 676 693 676 l 715 676 q 754 670 732 676 q 797 652 776 664 q 833 624 818 640 q 847 586 847 607 q 846 578 847 583 q 844 571 844 572 q 832 572 843 572 q 756 526 794 572 q 683 405 718 479 q 618 239 649 331 q 565 57 588 147 q 531 -112 543 -33 q 518 -240 518 -192 l 518 -257 q 519 -271 518 -269 z "},"z":{"ha":604,"x_min":28,"x_max":564,"o":"m 146 546 l 185 508 q 222 503 194 503 l 317 513 q 341 508 332 513 q 350 472 350 503 q 332 413 350 439 q 292 363 314 386 q 253 313 271 339 q 235 254 235 288 q 240 228 235 239 q 261 218 246 218 q 306 228 285 218 q 354 238 328 238 q 397 226 378 238 q 417 183 417 214 q 405 144 417 158 q 369 114 393 131 l 236 21 q 158 -154 197 -29 q 136 -256 136 -212 q 143 -271 136 -271 l 146 -271 q 233 -171 171 -265 l 321 -39 q 406 10 349 -3 q 494 81 465 22 q 545 181 526 143 q 564 246 564 218 q 546 299 564 278 q 506 338 528 321 q 467 371 485 354 q 449 410 449 388 q 453 448 449 429 q 465 485 458 467 q 476 524 471 504 q 482 565 482 544 q 465 638 482 619 q 401 657 449 657 q 360 651 379 657 q 322 638 340 644 q 284 624 303 631 q 243 618 265 618 q 219 626 226 618 q 206 645 213 635 q 191 664 200 656 q 164 672 182 672 q 107 658 133 672 q 73 637 89 651 q 42 603 57 622 q 28 576 28 589 q 33 554 28 569 q 51 535 38 539 q 72 527 63 528 q 101 526 82 526 q 121 535 110 526 q 146 546 132 543 z "},"{":{"ha":426,"x_min":6,"x_max":392,"o":"m 151 315 q 172 399 151 363 q 218 467 193 435 q 264 533 243 500 q 285 608 285 567 q 274 641 285 625 q 248 670 264 657 q 215 691 232 683 q 185 699 197 699 q 176 697 182 699 q 169 694 171 694 q 113 635 142 667 q 60 567 83 604 q 21 490 36 531 q 6 403 6 449 q 26 310 6 360 q 80 210 47 260 q 155 113 113 160 q 240 31 197 67 q 322 -26 282 -4 q 392 -47 363 -47 q 374 23 392 -7 q 329 78 356 53 q 272 127 303 104 q 214 176 240 150 q 169 236 188 203 q 151 315 151 269 z "},"|":{"ha":325,"x_min":15,"x_max":310,"o":"m 65 94 q 67 22 65 63 q 80 -56 69 -19 q 112 -119 90 -93 q 172 -144 133 -144 q 210 -133 186 -144 q 256 -103 233 -121 q 294 -65 278 -85 q 310 -29 310 -44 q 301 -9 310 -15 q 282 1 293 -3 q 260 7 271 4 q 243 15 249 10 q 225 40 232 24 q 215 77 218 57 q 210 119 211 97 q 210 160 210 140 l 210 203 q 219 424 210 317 q 229 649 229 532 l 229 690 q 228 756 229 724 q 228 822 228 789 l 228 864 q 214 899 224 881 q 192 934 204 918 q 164 960 179 950 q 132 969 149 969 q 97 963 117 969 q 59 944 78 956 q 28 916 40 932 q 15 882 15 900 q 26 857 15 865 q 48 835 36 849 q 70 798 60 822 q 81 726 81 774 q 73 410 81 567 q 65 94 65 254 z "},"}":{"ha":426,"x_min":6,"x_max":392,"o":"m 246 336 q 225 253 246 289 q 179 184 204 217 q 133 118 154 151 q 113 44 113 85 q 123 11 113 28 q 149 -19 133 -6 q 182 -40 165 -32 q 211 -47 199 -47 q 221 -44 215 -47 q 228 -42 226 -42 l 242 -26 q 294 30 267 0 q 342 94 321 60 q 378 166 364 128 q 392 249 392 204 q 371 342 392 292 q 317 442 350 392 q 242 538 285 492 q 158 620 200 585 q 75 677 115 656 q 6 699 35 699 q 24 628 6 658 q 68 573 42 599 q 126 524 94 547 q 183 475 157 501 q 228 415 210 449 q 246 336 246 382 z "},"~":{"ha":551,"x_min":31,"x_max":525,"o":"m 378 364 l 203 392 l 194 392 q 142 376 171 392 q 89 339 114 361 q 47 290 64 317 q 31 242 31 264 q 99 253 68 242 q 169 264 131 264 l 243 243 q 327 245 296 243 q 382 256 358 247 q 428 284 406 265 q 488 336 451 303 q 498 345 493 340 q 508 356 503 350 q 519 372 513 360 q 525 389 525 385 q 514 403 525 401 q 494 406 503 406 q 468 401 483 406 q 436 389 453 396 q 403 375 419 382 q 378 364 388 368 z "},"":{"ha":307,"x_min":0,"x_max":0,"o":""},"":{"ha":844,"x_min":19,"x_max":806,"o":"m 517 296 q 536 303 528 301 q 551 304 544 304 l 582 303 q 601 301 590 303 q 613 285 613 299 q 606 268 613 281 q 596 251 600 256 q 538 206 563 222 q 490 182 513 190 q 444 172 467 174 q 392 171 421 171 q 546 117 450 117 q 617 130 586 117 q 676 163 649 143 q 733 193 703 179 q 778 204 778 204 q 788 203 786 204 q 806 158 806 201 q 805 140 806 150 q 803 118 804 129 q 780 103 796 115 q 744 78 764 92 q 736 72 739 74 q 733 69 733 69 l 728 65 q 708 51 717 57 q 688 38 699 44 q 662 25 678 32 q 621 8 646 18 q 547 0 581 1 q 469 -1 514 -1 q 292 47 365 -1 q 194 192 219 96 q 178 194 186 193 q 157 194 171 194 l 19 174 q 37 218 19 196 q 79 258 54 240 q 133 285 104 275 q 183 296 161 296 l 185 296 q 188 336 185 317 q 197 375 192 356 q 179 378 188 376 q 157 379 171 379 l 19 357 q 38 403 19 381 q 81 442 56 425 q 137 470 107 460 q 190 481 167 481 l 242 481 q 393 622 300 569 q 594 675 486 675 q 647 671 617 675 q 706 656 678 667 q 753 627 733 646 q 772 579 772 608 q 763 546 772 558 q 740 527 754 533 q 707 519 725 521 q 672 518 689 518 q 624 524 647 518 q 576 536 600 529 q 528 549 553 543 q 476 554 503 554 q 401 534 432 554 q 356 481 371 514 l 524 481 q 557 490 542 490 q 574 489 565 490 q 593 488 582 488 q 613 485 601 488 q 624 469 624 483 q 617 453 624 467 q 608 438 611 440 q 551 393 576 410 q 503 368 526 376 q 458 357 481 360 q 410 354 436 354 l 385 354 l 371 354 q 358 356 360 354 l 331 357 l 331 319 q 331 308 331 314 q 333 296 332 303 l 517 296 z "},"":{"ha":276,"x_min":13,"x_max":229,"o":"m 85 -54 q 76 -94 85 -76 q 56 -130 67 -112 q 38 -165 46 -147 q 29 -204 29 -183 q 100 -184 64 -204 q 165 -133 136 -164 q 211 -64 193 -101 q 229 10 229 -26 q 219 64 229 38 q 191 111 208 90 q 149 144 174 132 q 94 157 124 157 q 37 137 61 157 q 13 83 13 117 q 24 44 13 60 q 49 15 35 29 q 74 -16 63 0 q 85 -54 85 -32 z "},"":{"ha":735,"x_min":-93,"x_max":700,"o":"m -93 -242 q -92 -233 -93 -239 q -92 -226 -92 -228 q -69 -203 -90 -221 q -24 -166 -49 -186 q 23 -128 1 -146 q 49 -106 44 -111 l 81 229 l 81 310 q 83 363 81 333 q 100 426 86 393 q 144 494 114 460 q 228 563 174 529 q 235 562 229 563 q 243 561 240 561 q 297 577 269 561 q 356 613 325 593 q 422 649 386 633 q 499 665 457 665 q 561 660 526 665 q 627 640 596 654 q 679 601 658 625 q 700 539 700 576 q 675 469 700 494 q 600 443 650 443 q 564 459 583 443 q 521 495 544 475 q 469 531 497 515 q 406 547 440 547 q 352 531 374 547 q 313 494 331 515 q 275 454 294 474 q 228 429 256 435 q 222 390 225 418 q 217 329 219 361 q 213 269 214 297 q 211 229 211 240 l 213 199 q 289 206 251 199 q 365 222 326 214 q 441 238 403 231 q 519 246 479 246 q 552 242 532 246 q 590 228 572 238 q 622 206 608 219 q 635 174 635 192 q 633 161 635 163 q 619 144 632 154 q 593 124 607 133 q 567 106 579 114 q 553 94 554 97 q 534 84 546 90 q 519 78 522 78 q 510 83 517 78 q 496 95 504 89 q 481 107 488 101 q 471 113 474 113 q 453 113 469 113 q 428 114 438 114 q 317 108 374 114 q 211 78 261 101 q 118 -187 197 -99 q -75 -276 39 -276 q -91 -261 -89 -269 q -93 -242 -93 -253 z "},"":{"ha":533,"x_min":21,"x_max":486,"o":"m 342 -54 q 331 -16 342 -32 q 306 15 319 0 q 281 44 292 29 q 269 83 269 60 q 294 137 269 117 q 351 157 318 157 q 406 144 381 157 q 448 111 431 132 q 476 64 465 90 q 486 10 486 38 q 468 -64 486 -26 q 422 -133 450 -101 q 357 -184 393 -164 q 286 -204 321 -204 q 294 -165 286 -183 q 313 -130 303 -147 q 333 -94 324 -112 q 342 -54 342 -76 m 93 -57 l 21 79 q 45 134 21 114 q 103 154 69 154 q 157 141 132 154 q 199 107 182 128 q 227 60 217 86 q 238 7 238 33 q 219 -66 238 -28 q 173 -135 201 -104 q 108 -187 144 -167 q 38 -208 72 -208 q 46 -169 38 -187 q 65 -134 54 -151 q 84 -98 75 -117 q 93 -57 93 -79 z "},"":{"ha":963,"x_min":28,"x_max":860,"o":"m 340 35 q 353 7 340 22 q 384 -22 365 -8 q 424 -44 403 -35 q 465 -54 446 -54 l 471 -54 q 526 -35 499 -50 q 554 10 554 -19 q 522 88 554 67 q 442 108 489 108 q 408 105 425 108 q 375 93 390 101 q 350 71 360 85 q 340 35 340 57 m 644 40 q 657 14 644 29 q 689 -15 669 -1 q 730 -38 708 -29 q 771 -47 751 -47 l 776 -47 q 832 -28 804 -43 q 860 17 860 -12 q 827 94 860 74 q 747 115 794 115 q 713 112 731 115 q 679 100 694 108 q 654 77 664 92 q 644 40 644 63 m 28 40 q 40 14 28 29 q 72 -15 53 -1 q 113 -38 90 -29 q 154 -47 135 -47 l 160 -47 q 215 -28 188 -43 q 242 17 242 -12 q 210 94 242 74 q 131 115 178 115 q 96 112 114 115 q 63 100 78 108 q 38 77 47 92 q 28 40 28 63 z "},"":{"ha":593,"x_min":17,"x_max":568,"o":"m 471 546 q 504 560 490 556 q 538 564 518 564 q 557 562 546 564 q 568 546 568 560 q 562 530 568 543 q 553 514 556 517 q 455 447 496 464 q 367 426 414 429 q 365 342 365 382 q 364 268 364 301 q 372 168 364 208 q 406 128 381 128 l 513 147 q 492 96 513 122 q 442 48 471 69 q 381 13 413 26 q 328 -1 350 -1 q 277 17 304 -1 q 247 65 250 36 l 224 428 q 197 431 201 428 q 192 438 193 433 q 185 444 190 442 q 154 447 179 447 l 17 426 q 35 470 17 449 q 79 508 53 492 q 135 535 106 525 q 189 546 165 546 l 217 546 l 214 592 q 189 611 211 611 l 143 607 q 124 612 132 607 q 115 632 115 617 q 138 676 115 654 q 192 715 161 697 q 256 744 224 733 q 304 756 288 756 q 334 739 322 756 q 353 693 346 722 q 363 626 360 664 q 369 546 367 588 l 471 546 z "},"":{"ha":593,"x_min":10,"x_max":568,"o":"m 465 317 q 499 331 485 328 q 532 335 513 335 q 551 333 540 335 q 563 317 563 331 q 556 301 563 314 q 546 285 550 288 q 451 218 490 236 q 367 197 411 200 q 379 147 371 165 q 406 128 388 128 l 513 147 q 492 96 513 122 q 442 48 471 69 q 381 13 413 26 q 328 -1 350 -1 q 277 17 304 -1 q 247 65 250 36 l 239 199 l 222 199 q 192 201 197 199 q 185 208 186 204 q 179 215 185 213 q 147 218 174 218 l 10 197 q 28 241 10 219 q 73 279 46 263 q 129 306 100 296 q 182 317 158 317 l 231 317 l 224 428 q 197 431 201 428 q 192 438 193 433 q 185 444 190 442 q 154 447 179 447 l 17 426 q 35 470 17 449 q 79 508 53 492 q 135 535 106 525 q 189 546 165 546 l 217 546 l 214 592 q 189 611 211 611 l 143 607 q 124 612 132 607 q 115 632 115 617 q 138 676 115 654 q 192 715 161 697 q 256 744 224 733 q 304 756 288 756 q 334 739 322 756 q 353 693 346 722 q 363 626 360 664 q 369 546 367 588 l 471 546 q 504 560 490 556 q 538 564 518 564 q 557 562 546 564 q 568 546 568 560 q 562 530 568 543 q 553 514 556 517 q 455 447 496 464 q 367 426 414 429 q 366 369 367 396 q 364 317 365 343 l 465 317 z "},"":{"ha":471,"x_min":29,"x_max":429,"o":"m 213 901 q 252 879 231 892 q 299 849 274 867 q 355 803 322 831 q 429 736 388 775 l 324 736 q 306 753 313 746 q 295 765 300 760 q 283 776 290 771 q 261 790 275 782 q 253 792 257 792 q 246 793 250 793 q 218 783 232 793 q 198 759 204 767 q 169 736 192 751 l 29 736 l 125 819 q 147 840 138 829 q 164 860 156 850 q 183 881 172 871 q 213 901 194 892 z "},"":{"ha":1028,"x_min":15,"x_max":1000,"o":"m 528 138 q 538 174 528 160 q 563 197 547 189 q 596 209 578 206 q 631 213 614 213 q 710 192 678 213 q 743 114 743 171 q 716 68 743 86 q 657 50 689 50 q 618 58 636 50 q 556 96 585 74 q 528 138 528 118 m 79 463 q 89 499 79 485 q 114 522 99 514 q 147 534 129 531 q 182 538 165 538 q 262 517 229 538 q 294 439 294 496 q 267 393 294 411 q 208 375 240 375 q 169 383 188 375 q 108 421 136 399 q 79 463 79 443 m 210 17 q 185 1 199 4 q 156 -1 171 -1 l 133 -1 q 67 17 96 -1 q 15 65 39 36 q 26 79 18 69 q 45 99 35 89 q 65 119 56 110 q 79 131 75 128 l 340 325 q 499 472 415 400 q 665 618 582 543 q 672 619 667 618 q 681 619 678 619 q 710 613 690 619 q 749 595 729 606 q 782 572 768 585 q 796 547 796 560 l 796 544 q 749 466 790 508 q 649 378 708 424 q 520 284 590 332 q 387 190 450 236 q 275 99 324 143 q 210 17 226 54 m 785 186 q 794 223 785 208 q 819 246 804 238 q 853 258 835 254 q 888 261 871 261 q 967 240 935 261 q 1000 163 1000 219 q 973 117 1000 135 q 914 99 946 99 q 875 107 893 99 q 813 144 842 122 q 785 186 785 167 z "},"":{"ha":728,"x_min":15,"x_max":700,"o":"m 389 735 q 349 757 371 744 q 303 788 328 769 q 247 833 279 806 q 172 900 214 861 l 276 900 q 292 885 286 892 q 303 873 297 879 q 317 861 310 867 q 340 847 325 856 q 351 845 347 846 q 353 844 354 844 q 383 853 367 844 q 403 877 397 869 q 432 901 410 885 l 572 901 l 476 818 q 456 797 464 807 q 438 776 447 786 q 417 755 429 765 q 389 735 406 744 m 15 163 q 46 219 15 199 q 114 240 76 240 q 174 221 142 240 q 242 178 206 201 q 317 137 278 156 q 401 118 357 118 q 444 121 419 118 q 489 132 468 124 q 524 154 510 140 q 539 192 539 168 q 506 256 539 235 q 424 288 474 276 q 317 306 375 299 q 210 329 260 313 q 128 378 161 346 q 96 471 96 410 q 134 571 96 528 q 228 642 172 614 q 349 685 285 671 q 465 700 413 700 l 471 700 q 494 698 488 700 q 519 685 500 696 q 549 669 528 682 q 594 642 571 657 q 639 613 618 626 q 667 594 660 599 q 668 581 667 593 q 669 565 669 569 q 658 531 669 549 q 630 497 647 513 q 592 470 613 481 q 553 460 571 460 q 520 478 538 460 q 481 520 503 497 q 430 563 458 543 q 367 582 401 582 l 360 582 q 317 581 338 582 q 279 573 296 579 q 252 553 263 567 q 242 518 242 540 q 276 456 242 476 q 360 423 310 435 q 471 402 411 411 q 581 376 531 393 q 666 328 632 360 q 700 240 700 297 q 680 182 700 211 q 627 126 660 153 q 554 76 594 99 q 473 35 514 53 q 394 8 432 18 q 332 -1 357 -1 q 285 6 315 -1 q 220 24 256 13 q 149 51 185 36 q 83 85 113 67 q 34 124 53 104 q 15 163 15 143 z "},"":{"ha":254,"x_min":38,"x_max":204,"o":"m 38 314 q 63 270 50 292 q 92 228 76 249 q 136 172 108 204 q 203 97 164 139 l 203 182 q 175 219 185 203 q 150 265 165 236 q 156 308 142 286 q 180 328 172 322 q 204 357 188 335 l 203 497 l 121 401 q 99 381 110 389 q 78 363 89 372 q 58 342 68 354 q 38 314 47 331 z "},"":{"ha":1213,"x_min":15,"x_max":1174,"o":"m 507 639 q 542 615 526 628 q 572 586 557 601 q 676 648 622 625 q 783 671 731 671 q 837 660 813 671 q 883 633 861 650 q 924 593 904 615 q 963 547 943 571 q 963 540 963 546 q 963 524 964 533 q 947 488 956 503 q 929 461 938 472 q 972 443 947 443 l 1017 443 q 1085 452 1053 443 q 1149 461 1117 461 l 1157 461 q 1167 454 1161 460 q 1174 446 1172 449 q 1149 417 1167 438 q 1111 377 1132 397 q 1067 341 1090 357 q 1026 325 1044 325 l 526 325 q 555 238 526 276 q 625 174 583 200 q 715 134 667 147 q 801 121 763 121 q 837 126 821 121 q 868 139 853 132 q 900 151 883 146 q 938 157 917 157 q 910 87 938 117 q 843 38 882 57 q 762 8 804 18 q 690 -1 719 -1 q 522 47 600 -1 q 374 0 442 0 q 249 22 313 0 q 134 85 186 44 q 49 182 82 125 q 15 308 15 239 q 48 451 15 383 q 133 568 81 518 q 253 647 186 618 q 392 676 321 676 q 448 667 419 676 q 507 639 476 657 m 392 278 q 410 374 392 326 q 458 465 428 421 q 380 517 421 497 q 299 538 339 538 q 190 504 219 538 q 161 385 161 471 q 185 287 161 331 q 247 212 208 243 q 333 163 285 181 q 429 140 381 144 q 392 278 392 200 m 774 536 q 744 552 758 546 q 710 558 729 558 q 658 546 685 558 q 607 512 631 533 q 568 463 583 490 q 553 406 553 435 q 686 426 615 406 q 747 443 722 438 q 782 450 771 449 q 822 469 807 454 q 806 508 817 500 q 795 518 803 511 q 774 536 788 525 z "},"":{"ha":539,"x_min":14,"x_max":506,"o":"m 36 538 q 18 561 22 549 q 14 585 14 574 q 25 639 17 626 q 49 658 33 651 q 106 672 75 672 q 133 664 124 672 q 148 645 142 656 q 161 626 154 635 q 185 618 168 618 q 226 624 207 618 q 263 638 244 631 q 301 651 282 644 q 343 657 321 657 q 407 638 390 657 q 424 565 424 619 q 418 524 424 544 q 406 485 413 504 q 395 448 400 467 q 390 410 390 429 q 408 371 390 388 q 448 338 426 354 q 488 299 469 321 q 506 246 506 278 q 486 181 506 218 q 436 81 467 143 q 347 10 408 22 q 264 -39 289 -3 l 175 -171 q 88 -271 113 -265 l 85 -271 q 78 -256 78 -271 q 83 -217 78 -242 q 101 -154 89 -192 q 138 -56 119 -100 q 179 21 157 -12 q 228 56 208 42 q 262 80 247 69 q 288 99 276 90 q 313 115 300 107 q 348 144 336 131 q 360 183 360 158 q 340 226 360 214 q 296 238 319 238 q 248 228 269 238 q 203 218 226 218 q 183 228 188 218 q 178 254 178 239 q 196 313 178 288 q 235 363 214 339 q 275 413 257 386 q 293 472 293 439 q 284 508 293 503 q 260 513 275 513 l 256 513 q 212 506 232 513 q 168 500 192 500 q 126 508 149 500 l 88 546 l 36 538 m 267 735 q 227 757 249 744 q 181 788 206 769 q 124 833 157 806 q 50 900 92 861 l 154 900 q 169 885 164 892 q 181 873 175 879 q 195 861 188 867 q 218 847 203 856 q 228 845 225 846 q 231 844 232 844 q 261 853 244 844 q 281 877 275 869 q 310 901 288 885 l 450 901 l 354 818 q 333 797 342 807 q 316 776 325 786 q 295 755 307 765 q 267 735 283 744 z "},"":{"ha":260,"x_min":11,"x_max":211,"o":"m 175 622 l 175 614 q 168 606 174 611 q 160 599 163 600 q 156 597 160 599 q 151 596 153 596 q 97 615 122 596 q 53 661 72 633 q 22 720 33 689 q 11 776 11 751 q 48 863 11 835 q 138 892 85 892 q 192 876 174 892 q 211 824 211 861 q 199 791 211 804 q 174 766 188 778 q 151 742 161 754 q 143 711 140 729 q 147 695 143 707 q 157 671 151 683 q 168 647 163 658 q 175 631 174 635 l 175 622 z "},"":{"ha":260,"x_min":13,"x_max":213,"o":"m 49 622 l 49 614 q 56 606 50 611 q 65 599 61 600 q 68 597 65 599 q 74 596 71 596 q 128 615 103 596 q 172 661 153 633 q 201 720 190 689 q 213 776 213 751 q 176 863 213 835 q 86 892 139 892 q 31 876 50 892 q 13 824 13 861 q 24 791 13 804 q 48 766 35 778 q 72 742 61 754 q 81 711 82 729 q 76 695 81 707 q 67 671 72 683 q 56 647 61 658 q 49 631 50 635 l 49 622 z "},"":{"ha":507,"x_min":11,"x_max":471,"o":"m 175 622 l 175 614 q 168 606 174 611 q 160 599 163 600 q 156 597 160 599 q 151 596 153 596 q 97 615 122 596 q 53 661 72 633 q 22 720 33 689 q 11 776 11 751 q 48 863 11 835 q 138 892 85 892 q 192 876 174 892 q 211 824 211 861 q 199 791 211 804 q 174 766 188 778 q 151 742 161 754 q 143 711 140 729 q 147 695 143 707 q 157 671 151 683 q 168 647 163 658 q 175 631 174 635 l 175 622 m 436 622 l 436 614 q 428 606 433 611 q 419 599 422 600 q 416 597 419 599 q 411 596 413 596 q 357 615 382 596 q 313 661 332 633 q 282 720 293 689 q 271 776 271 751 q 308 863 271 835 q 399 892 346 892 q 453 876 435 892 q 471 824 471 861 q 460 791 471 804 q 435 765 449 778 q 412 740 422 753 q 403 711 401 728 q 407 696 403 707 q 417 671 411 685 q 428 646 424 657 q 436 631 433 635 l 436 622 z "},"":{"ha":507,"x_min":13,"x_max":472,"o":"m 308 622 l 308 614 q 315 606 310 611 q 325 599 321 600 q 328 597 325 599 q 333 596 332 596 q 388 615 363 596 q 431 661 413 633 q 461 720 450 689 q 472 776 472 751 q 435 863 472 835 q 346 892 399 892 q 292 876 310 892 q 274 824 274 861 q 285 791 274 804 q 309 765 296 778 q 333 740 322 753 q 342 711 343 728 q 337 696 342 707 q 326 672 332 685 q 315 647 321 658 q 308 631 310 635 l 308 622 m 49 622 l 49 614 q 56 606 50 611 q 65 599 61 600 q 68 597 65 599 q 74 596 71 596 q 128 615 103 596 q 172 661 153 633 q 201 720 190 689 q 213 776 213 751 q 176 863 213 835 q 86 892 139 892 q 31 876 50 892 q 13 824 13 861 q 24 791 13 804 q 48 766 35 778 q 72 742 61 754 q 81 711 82 729 q 76 695 81 707 q 67 671 72 683 q 56 647 61 658 q 49 631 50 635 l 49 622 z "},"":{"ha":497,"x_min":31,"x_max":456,"o":"m 31 367 q 58 269 31 311 q 126 199 85 228 q 215 156 167 171 q 307 142 264 142 q 417 173 378 142 q 456 283 456 204 q 428 382 456 339 q 359 455 401 425 q 265 500 317 485 q 163 515 213 515 q 114 500 138 515 q 72 462 90 485 q 42 413 53 439 q 31 367 31 388 z "},"":{"ha":604,"x_min":26,"x_max":579,"o":"m 481 389 l 199 389 q 145 374 175 389 q 89 337 115 360 q 44 288 63 314 q 26 239 26 261 q 95 249 64 239 q 164 260 126 260 q 194 257 189 260 q 201 250 200 254 q 208 243 203 246 q 239 240 214 240 q 336 243 296 240 q 412 258 376 246 q 482 292 447 269 q 563 356 517 315 q 572 372 565 360 q 579 389 579 385 q 567 403 579 401 q 547 406 556 406 q 514 402 528 406 q 481 389 500 399 z "},"":{"ha":689,"x_min":28,"x_max":663,"o":"m 565 389 l 200 386 q 147 372 176 386 q 90 335 117 357 q 46 286 64 313 q 28 238 28 260 l 165 258 l 324 240 q 421 243 381 240 q 497 258 461 246 q 567 292 532 269 q 647 356 601 315 q 656 372 650 360 q 663 389 663 385 q 651 403 663 401 q 632 406 640 406 q 599 402 613 406 q 565 389 585 399 z "},"":{"ha":519,"x_min":17,"x_max":500,"o":"m 293 735 l 261 735 q 235 759 242 750 q 217 783 229 768 q 174 790 203 797 q 131 765 146 774 q 96 736 115 756 l 17 736 q 81 807 53 778 q 131 851 110 836 q 179 881 156 871 q 221 901 203 890 q 250 881 239 892 q 269 860 261 869 q 285 843 278 850 q 300 835 292 836 q 319 841 310 839 q 340 847 329 843 q 383 872 368 863 q 418 900 399 882 l 500 900 q 383 790 424 811 q 333 755 354 764 q 293 735 311 746 z "},"":{"ha":897,"x_min":17,"x_max":876,"o":"m 113 619 q 65 606 85 619 q 17 592 44 592 q 25 613 17 599 q 45 642 33 628 q 70 667 57 657 q 93 678 83 678 l 304 678 l 353 694 q 359 695 354 694 q 365 696 364 696 q 349 656 365 672 q 308 630 332 640 q 260 615 285 619 q 222 611 236 611 l 214 601 l 207 468 l 207 465 l 207 460 q 208 449 207 457 q 210 431 210 440 q 213 413 211 421 q 214 401 214 404 l 218 401 q 245 406 233 401 q 274 411 257 411 q 264 383 274 397 q 240 358 254 369 q 210 340 225 347 q 182 333 194 333 q 142 385 142 333 l 142 611 q 126 619 142 619 l 113 619 m 369 496 q 383 560 369 526 q 419 623 396 594 q 472 669 442 651 q 536 688 503 688 q 560 678 550 688 q 579 658 571 669 q 595 633 588 646 q 614 614 603 621 q 672 658 643 638 q 738 679 700 679 q 783 655 758 679 q 828 597 807 631 q 863 530 849 564 q 876 476 876 496 q 868 436 876 457 q 846 399 860 415 q 813 372 832 382 q 772 361 793 361 q 777 384 772 374 q 787 405 782 394 q 797 426 792 415 q 801 453 801 438 q 791 501 801 476 q 765 547 781 525 q 730 589 749 569 q 696 622 711 608 l 690 622 q 670 615 681 622 q 651 598 660 608 q 635 576 642 588 q 629 554 629 564 q 633 513 629 535 q 644 473 636 492 q 667 442 653 454 q 704 428 682 429 l 704 419 q 694 398 704 408 q 672 379 685 388 q 645 366 658 371 q 625 361 632 361 q 598 381 610 361 q 576 431 586 401 q 558 496 567 461 q 538 560 549 531 q 516 610 528 590 q 488 631 504 631 q 467 617 475 631 q 453 586 458 604 q 444 551 447 568 q 442 526 442 535 q 471 449 442 482 q 533 386 500 417 l 533 382 q 513 356 533 368 q 479 344 493 344 q 474 345 478 344 q 468 346 469 346 q 400 411 431 375 q 369 496 369 447 z "},"":{"ha":631,"x_min":15,"x_max":617,"o":"m 350 735 q 398 775 383 754 q 438 818 413 796 l 533 901 l 393 901 q 365 877 371 885 q 344 853 358 869 q 314 844 328 844 q 310 845 314 844 q 300 847 307 846 q 278 861 285 856 q 266 872 271 867 q 256 884 261 878 q 242 900 251 890 l 133 900 q 208 833 175 861 q 264 788 240 806 q 310 757 289 769 q 350 735 332 744 m 15 150 q 53 85 15 113 q 142 38 92 57 q 244 8 193 18 q 321 -1 294 -1 q 414 26 364 -1 q 506 95 464 53 q 575 188 547 138 q 603 283 603 238 q 573 361 603 332 q 499 406 543 390 q 403 426 454 421 q 313 431 353 431 l 256 431 q 243 432 244 431 q 215 456 219 443 q 210 488 210 468 q 222 520 210 506 q 253 544 235 535 q 293 559 272 554 q 331 564 314 564 q 383 553 358 564 q 430 530 407 543 q 476 506 453 517 q 526 496 499 496 q 555 501 539 496 q 585 515 571 506 q 608 538 599 525 q 617 565 617 550 q 595 613 617 592 q 543 649 574 633 q 481 672 513 664 q 428 681 449 681 q 317 661 379 681 q 198 607 254 642 q 103 523 142 572 q 64 414 64 474 q 76 353 64 376 q 110 319 89 331 q 158 303 131 307 q 215 299 185 299 q 226 300 225 299 l 313 300 q 367 297 342 300 q 413 285 393 294 q 443 256 432 275 q 454 207 454 238 q 446 176 454 190 q 425 151 438 161 q 397 134 413 140 q 364 128 381 128 q 299 139 332 128 q 233 166 265 150 q 169 200 200 182 q 114 232 139 218 l 106 232 q 76 224 92 232 q 47 206 60 217 q 24 179 33 194 q 15 150 15 164 z "},"":{"ha":254,"x_min":40,"x_max":207,"o":"m 207 314 q 182 273 196 294 q 153 228 168 251 q 108 172 136 204 q 40 97 81 139 l 40 197 q 57 214 50 207 q 69 227 64 221 q 81 242 75 233 q 94 265 86 250 q 99 276 96 269 q 103 286 103 282 q 98 297 103 293 q 88 308 93 301 q 63 328 71 322 q 40 357 56 335 l 40 497 l 124 401 q 165 362 143 376 q 207 314 188 347 z "},"":{"ha":1274,"x_min":17,"x_max":1240,"o":"m 17 286 q 51 440 17 369 q 143 563 86 511 q 274 645 200 615 q 426 675 349 675 q 477 672 449 675 q 532 658 506 668 q 578 632 558 649 q 601 590 597 615 q 722 657 660 633 q 838 681 785 681 q 901 669 868 681 q 960 635 933 657 q 1006 585 988 614 q 1024 522 1024 556 q 1013 492 1024 506 q 985 468 1001 478 q 950 453 968 458 q 918 447 932 447 l 893 449 q 858 490 874 471 q 824 522 842 508 q 787 542 807 535 q 739 549 767 549 q 685 539 715 549 q 629 511 656 529 q 585 468 603 493 q 567 414 567 443 q 567 406 567 411 q 568 399 568 400 q 597 415 586 413 l 1031 392 l 1240 418 q 1210 359 1240 386 q 1138 311 1179 332 q 1056 278 1097 290 q 992 267 1014 267 l 585 267 q 615 203 596 226 l 619 203 q 633 188 628 200 q 685 153 656 167 q 745 131 714 139 q 807 120 776 124 q 863 117 838 117 q 905 122 885 117 q 944 135 925 128 q 985 149 964 143 q 1031 154 1006 154 q 1010 113 1031 139 q 963 63 990 88 q 907 19 936 38 q 861 0 878 0 l 633 0 q 532 44 585 0 q 501 28 518 35 q 451 8 485 22 q 378 0 413 1 q 300 -1 344 -1 q 185 17 238 -1 q 96 71 133 35 q 38 161 58 107 q 17 286 17 215 m 404 290 q 435 408 404 350 q 517 518 467 465 l 504 518 q 456 524 479 518 q 408 536 432 529 q 358 549 383 543 q 307 554 333 554 q 238 537 265 554 q 193 491 210 519 q 169 425 176 463 q 161 346 161 388 q 217 177 161 238 q 376 117 272 117 q 457 133 419 117 q 418 216 432 174 q 404 290 404 258 z "},"":{"ha":539,"x_min":14,"x_max":506,"o":"m 36 538 q 18 561 22 549 q 14 585 14 574 q 25 639 17 626 q 49 658 33 651 q 106 672 75 672 q 133 664 124 672 q 148 645 142 656 q 161 626 154 635 q 185 618 168 618 q 226 624 207 618 q 263 638 244 631 q 301 651 282 644 q 343 657 321 657 q 407 638 390 657 q 424 565 424 619 q 418 524 424 544 q 406 485 413 504 q 395 448 400 467 q 390 410 390 429 q 408 371 390 388 q 448 338 426 354 q 488 299 469 321 q 506 246 506 278 q 486 181 506 218 q 436 81 467 143 q 347 10 408 22 q 264 -39 289 -3 l 175 -171 q 88 -271 113 -265 l 85 -271 q 78 -256 78 -271 q 83 -217 78 -242 q 101 -154 89 -192 q 138 -56 119 -100 q 179 21 157 -12 q 228 56 208 42 q 262 80 247 69 q 288 99 276 90 q 313 115 300 107 q 348 144 336 131 q 360 183 360 158 q 340 226 360 214 q 296 238 319 238 q 248 228 269 238 q 203 218 226 218 q 183 228 188 218 q 178 254 178 239 q 196 313 178 288 q 235 363 214 339 q 275 413 257 386 q 293 472 293 439 q 284 508 293 503 q 260 513 275 513 l 256 513 q 212 506 232 513 q 168 500 192 500 q 126 508 149 500 l 88 546 l 36 538 m 267 735 q 227 757 249 744 q 181 788 206 769 q 124 833 157 806 q 50 900 92 861 l 154 900 q 169 885 164 892 q 181 873 175 879 q 195 861 188 867 q 218 847 203 856 q 228 845 225 846 q 231 844 232 844 q 261 853 244 844 q 281 877 275 869 q 310 901 288 885 l 450 901 l 354 818 q 333 797 342 807 q 316 776 325 786 q 295 755 307 765 q 267 735 283 744 z "},"":{"ha":874,"x_min":15,"x_max":847,"o":"m 519 -271 q 518 -256 518 -269 l 518 -239 q 531 -110 518 -190 q 565 59 543 -31 q 618 240 588 149 q 683 406 649 332 q 756 526 718 479 q 832 572 794 572 q 844 571 843 572 q 846 578 844 572 q 847 586 847 583 q 833 624 847 607 q 797 652 818 640 q 754 670 776 664 q 715 676 732 676 l 711 676 q 679 674 693 676 q 650 657 665 672 q 625 626 639 650 q 596 571 611 603 q 565 504 581 539 q 534 440 549 469 q 507 392 519 411 q 485 372 494 372 q 479 375 482 372 q 435 394 458 375 q 384 444 411 414 q 327 508 357 474 q 265 573 297 543 q 197 622 232 603 q 122 642 161 642 q 92 639 110 642 q 56 629 74 636 q 27 610 39 622 q 15 579 15 597 q 29 548 15 563 q 62 522 43 533 q 99 503 81 510 q 128 497 118 497 q 166 508 149 497 q 203 518 183 518 q 240 501 217 518 q 290 458 264 485 q 343 399 317 432 q 391 333 369 365 q 426 274 413 301 q 440 229 440 246 q 432 145 440 186 q 415 64 424 104 q 397 -17 406 24 q 389 -99 389 -57 q 391 -153 389 -119 q 403 -217 393 -186 q 432 -272 413 -249 q 486 -294 451 -294 q 519 -271 513 -294 m 194 814 q 217 756 194 778 q 276 733 239 733 q 308 737 290 733 q 342 748 326 740 q 369 769 358 756 q 379 801 379 782 q 378 809 379 804 q 376 815 376 814 q 315 890 336 885 q 289 897 304 897 q 281 899 288 899 q 219 874 244 899 q 194 814 194 850 m 451 814 q 473 756 451 778 q 533 733 494 733 q 565 737 547 733 q 599 748 583 740 q 624 769 614 756 q 635 801 635 782 q 634 809 635 804 q 633 815 633 814 q 572 890 590 883 q 546 897 561 897 q 538 899 544 899 q 476 874 501 899 q 451 814 451 850 z "},"":{"ha":467,"x_min":0,"x_max":0,"o":""},"":{"ha":342,"x_min":10,"x_max":304,"o":"m 203 328 q 201 281 203 299 q 195 249 199 264 q 190 215 192 233 q 188 165 188 197 q 206 114 188 126 q 246 99 224 101 q 286 97 268 97 q 304 79 304 96 q 284 44 304 60 q 236 19 264 29 q 179 3 208 8 q 132 -3 150 -3 q 85 13 103 -3 q 58 49 67 28 q 45 94 49 71 q 42 132 42 117 q 44 173 42 158 q 49 199 46 188 q 55 226 53 211 q 57 269 57 240 l 56 290 l 56 379 q 38 413 44 396 q 17 465 32 429 q 14 472 15 468 q 10 481 13 475 l 29 539 q 71 561 46 561 q 118 542 94 561 q 157 497 142 522 q 192 413 182 457 q 203 328 203 368 m 218 715 q 203 684 215 699 q 174 658 190 669 q 138 640 157 646 q 104 633 119 633 q 77 642 89 633 q 56 664 65 651 q 42 691 47 676 q 38 717 38 706 q 49 744 38 731 q 76 769 61 758 q 108 788 92 781 q 136 796 125 794 l 139 796 q 163 788 149 796 q 189 767 176 779 q 210 742 201 756 q 218 718 218 728 l 218 715 z "},"":{"ha":676,"x_min":10,"x_max":631,"o":"m 365 0 l 288 7 l 293 115 q 88 167 165 115 q 10 317 10 218 q 34 406 10 364 q 100 483 58 449 q 197 542 142 517 q 314 579 253 567 l 318 692 l 396 686 l 392 586 q 397 589 394 589 l 419 589 q 472 587 442 589 q 529 577 501 585 q 576 556 557 569 q 596 522 596 543 q 587 499 596 507 q 564 486 578 490 q 532 481 550 482 q 497 479 514 479 q 443 484 469 479 q 389 494 417 489 l 374 199 q 443 208 414 199 q 500 231 472 217 q 557 251 526 244 q 576 258 567 257 q 597 260 586 260 l 613 260 q 631 225 631 258 q 630 213 631 219 q 628 200 629 207 q 603 188 618 194 q 568 172 589 182 l 564 169 q 542 155 551 161 q 520 144 532 149 q 491 134 508 139 q 446 124 474 129 q 407 118 425 119 q 371 117 389 117 l 365 0 m 154 360 q 296 204 154 235 l 310 506 l 300 506 q 231 494 258 506 q 186 462 203 482 q 162 415 169 442 q 154 360 154 389 z "},"":{"ha":672,"x_min":10,"x_max":628,"o":"m 514 231 q 483 201 493 218 q 463 167 472 183 q 439 140 453 151 q 399 128 425 128 l 376 128 q 301 174 326 135 q 275 267 275 213 q 289 347 275 322 q 339 371 303 371 q 374 369 347 371 q 433 365 401 367 q 492 360 464 363 q 532 358 521 358 q 519 395 532 381 q 485 422 506 410 q 442 447 465 435 q 399 474 419 458 q 366 513 379 490 q 353 568 353 535 l 353 572 l 360 572 q 400 570 383 572 q 429 554 417 568 q 469 533 447 533 q 497 549 489 533 q 506 583 506 565 q 497 614 506 601 q 456 626 488 626 l 435 626 q 387 638 408 626 q 345 663 365 650 q 304 688 325 676 q 258 700 283 700 q 220 679 231 700 q 210 635 210 658 q 215 599 210 615 q 228 567 221 583 q 240 535 235 551 q 246 503 246 519 q 239 493 246 500 q 130 463 174 479 q 59 426 86 446 q 21 386 32 407 q 10 343 10 365 q 72 351 43 343 q 132 363 100 360 q 128 322 128 343 q 154 230 128 278 q 224 138 181 182 l 182 140 q 128 126 158 140 q 72 92 99 113 q 28 46 46 71 q 10 -1 10 21 l 147 19 l 242 11 q 324 12 289 11 q 389 18 358 13 q 471 -1 447 -1 q 551 20 519 -1 q 601 75 582 42 q 617 111 610 93 q 628 150 624 129 l 628 154 q 514 231 628 192 z "},"":{"ha":924,"x_min":10,"x_max":899,"o":"m 254 367 q 255 385 254 376 q 257 406 256 394 q 216 444 238 425 q 171 486 194 463 q 131 519 147 507 q 97 536 114 531 q 60 542 81 542 q 10 543 40 543 q 28 583 10 561 q 72 625 47 606 q 119 658 96 644 q 150 671 142 671 q 209 649 181 671 q 261 603 238 626 l 331 535 q 356 542 342 542 q 471 518 388 542 l 475 526 q 501 569 485 544 q 544 617 517 594 q 613 656 571 640 q 715 671 654 671 l 747 671 q 796 660 774 671 q 818 611 818 649 q 792 555 818 575 q 742 535 767 535 l 633 553 q 578 537 610 553 q 526 493 546 521 q 633 403 589 457 q 678 283 678 350 q 677 267 678 274 q 676 254 676 260 l 738 201 q 774 169 757 181 q 807 151 790 157 q 843 145 824 146 q 889 144 863 144 l 899 144 q 880 104 899 126 q 837 62 861 82 q 790 28 813 42 q 758 15 767 15 q 702 36 729 15 q 651 81 675 57 l 583 146 q 529 142 558 142 q 481 145 506 142 q 431 157 457 149 q 419 141 424 147 q 411 129 415 135 l 408 126 q 376 99 393 113 q 340 71 358 85 q 268 31 306 47 q 193 15 231 15 l 161 15 q 113 27 135 15 q 92 76 92 39 q 117 133 92 113 q 168 153 142 153 l 275 135 q 323 147 293 135 q 372 183 353 160 q 288 258 322 211 q 254 367 254 304 m 344 328 q 383 275 369 296 q 409 242 397 254 q 435 226 421 231 q 478 222 450 222 q 545 228 528 222 q 563 267 563 233 l 563 328 q 551 353 563 332 q 519 397 540 374 q 467 438 499 419 q 393 457 435 457 q 353 443 365 457 q 340 407 340 429 l 344 328 z "},"":{"ha":874,"x_min":15,"x_max":847,"o":"m 726 49 q 760 63 746 58 q 793 67 774 67 q 813 65 801 67 q 824 49 824 63 q 817 33 824 46 q 807 17 811 19 q 735 -41 767 -19 q 672 -75 703 -62 q 608 -92 640 -87 q 533 -99 575 -97 q 522 -176 525 -142 q 518 -237 518 -211 l 518 -256 q 519 -271 518 -269 q 486 -294 513 -294 q 432 -272 451 -294 q 403 -217 413 -249 q 391 -153 393 -186 q 389 -99 389 -119 l 389 -86 q 360 -83 375 -83 q 326 -82 346 -82 l 189 -103 q 207 -53 189 -79 q 251 -4 225 -26 q 308 33 278 18 q 361 47 338 47 l 410 47 q 419 84 415 65 q 428 122 424 103 q 383 130 404 125 q 328 135 363 135 l 190 114 q 208 163 190 136 q 253 212 226 189 q 309 249 279 235 q 363 264 339 264 l 431 264 q 388 340 418 296 q 322 423 357 383 q 254 490 288 463 q 203 518 221 518 q 166 508 183 518 q 128 497 149 497 q 99 503 118 497 q 62 522 81 510 q 29 548 43 533 q 15 579 15 563 q 27 612 15 597 q 56 635 39 626 q 92 649 74 644 q 122 654 110 654 q 197 633 161 654 q 265 582 232 613 q 327 515 297 551 q 384 447 357 478 q 435 396 411 417 q 479 375 458 375 q 507 392 493 375 q 533 431 521 408 q 553 477 544 454 q 567 514 563 500 l 568 518 q 585 545 574 525 q 610 588 597 565 q 635 630 624 610 q 650 657 646 650 q 679 674 665 672 q 711 676 693 676 l 715 676 q 754 670 732 676 q 797 652 776 664 q 833 624 818 640 q 847 586 847 607 q 846 578 847 583 q 844 571 844 572 q 833 572 843 572 q 779 548 807 572 q 725 482 751 524 q 674 384 699 440 q 628 265 649 328 l 728 265 q 761 279 747 275 q 794 283 775 283 q 814 281 803 283 q 825 265 825 279 q 819 249 825 261 q 810 232 813 236 q 749 181 776 201 q 694 148 721 161 q 641 128 668 135 q 583 121 614 122 l 564 49 l 726 49 z "},"":{"ha":325,"x_min":15,"x_max":310,"o":"m 260 94 q 251 410 260 254 q 243 726 243 567 q 253 798 243 774 q 276 835 264 822 q 299 857 289 849 q 310 882 310 865 q 297 916 310 900 q 266 944 285 932 q 227 963 247 956 q 193 969 207 969 q 161 960 176 969 q 133 934 146 950 q 111 899 121 918 q 97 864 101 881 l 97 822 q 97 756 97 789 q 96 690 96 724 l 96 649 q 106 424 96 532 q 115 203 115 317 l 115 160 q 110 77 115 119 q 81 15 104 35 q 65 7 75 10 q 43 0 54 4 q 24 -10 32 -4 q 15 -29 15 -17 q 31 -65 15 -44 q 69 -103 47 -85 q 115 -133 92 -121 q 153 -144 138 -144 q 213 -119 192 -144 q 245 -56 235 -93 q 258 22 256 -19 q 260 94 260 63 z "},"":{"ha":672,"x_min":13,"x_max":650,"o":"m 61 288 l 61 294 q 91 360 65 331 q 157 414 117 390 q 111 486 111 432 q 148 567 111 531 q 238 631 185 604 q 352 672 292 657 q 461 686 413 686 q 514 680 482 686 q 576 663 546 674 q 628 635 607 651 q 650 600 650 619 q 641 578 650 588 q 618 561 632 568 q 588 551 604 554 q 558 547 572 547 q 509 556 532 547 q 463 573 486 564 q 416 590 440 582 q 364 599 392 599 q 328 594 347 599 q 294 583 310 590 q 267 565 278 575 q 257 542 257 554 q 262 517 257 526 q 290 499 267 507 l 344 499 q 435 495 385 499 q 530 480 486 492 q 603 446 574 468 q 633 386 633 424 q 608 319 633 354 q 546 251 583 283 q 575 224 565 238 q 585 188 585 211 q 558 115 585 153 q 490 47 531 78 q 399 -6 449 15 q 306 -26 350 -26 q 231 -19 279 -26 q 133 3 182 -11 q 49 39 85 18 q 13 88 13 60 q 22 110 13 99 q 44 130 31 121 q 74 144 58 139 q 104 150 90 150 l 113 150 q 167 127 138 140 q 228 103 197 114 q 293 83 260 92 q 360 75 326 75 q 415 90 392 75 q 439 131 439 104 q 410 182 439 165 l 406 181 q 375 176 388 178 q 354 174 363 174 q 282 180 328 174 q 189 201 236 186 q 148 221 169 213 q 108 238 126 229 q 77 258 90 247 q 61 286 64 269 l 61 288 m 296 278 q 349 272 306 272 q 402 276 375 272 q 457 285 429 279 q 488 331 488 299 l 485 347 q 442 358 463 350 q 402 376 422 367 q 361 392 382 385 q 315 399 340 399 q 280 394 299 399 q 245 383 261 390 q 219 365 229 375 q 208 342 208 354 l 208 328 q 246 302 226 319 q 286 278 265 285 l 296 278 z "},"":{"ha":504,"x_min":28,"x_max":468,"o":"m 28 814 q 53 874 28 850 q 114 899 78 899 q 122 897 121 899 q 147 890 136 897 q 210 815 165 883 q 208 804 210 813 q 203 785 207 796 q 192 763 199 774 q 174 747 185 753 q 141 736 158 739 q 108 733 124 733 q 49 756 71 733 q 28 814 28 778 m 281 829 q 310 874 285 850 q 371 899 335 899 q 379 897 378 899 q 404 890 393 897 q 467 815 422 883 q 467 809 467 814 q 468 801 468 804 q 458 769 468 782 q 431 748 447 756 q 397 737 415 740 q 365 733 379 733 q 281 829 289 733 z "},"":{"ha":751,"x_min":10,"x_max":711,"o":"m 10 424 q 32 526 10 465 q 90 642 54 586 q 169 738 125 699 q 256 778 213 778 q 344 790 301 790 q 433 778 389 790 q 450 772 440 778 q 467 763 460 765 q 541 723 499 747 q 621 664 583 699 q 685 585 658 629 q 711 486 711 540 q 677 361 711 425 q 590 245 643 297 q 474 159 538 193 q 353 125 411 125 q 234 147 294 125 q 124 210 174 169 q 42 304 74 250 q 10 424 10 358 m 131 503 q 122 451 125 475 q 119 406 119 426 q 140 310 119 344 q 198 258 161 275 q 283 236 235 240 q 389 232 332 232 q 460 251 422 232 q 528 301 497 269 q 580 370 560 332 q 600 449 600 408 q 568 580 600 533 q 488 648 536 626 q 381 673 439 669 q 271 676 322 676 l 265 676 q 216 657 240 676 q 173 610 192 638 q 142 552 154 582 q 131 503 131 522 m 172 436 q 190 513 172 478 q 235 574 207 547 q 301 615 264 600 q 376 629 338 629 q 403 627 388 629 q 432 620 418 625 q 456 606 446 615 q 465 582 465 596 q 451 555 465 558 q 419 551 436 551 l 417 551 q 368 560 392 551 q 317 568 344 568 q 258 538 274 568 q 243 465 243 508 q 272 381 243 411 q 353 351 300 351 q 388 358 372 351 q 418 374 403 364 q 432 383 425 379 q 446 389 439 386 q 467 393 458 393 l 472 393 q 482 372 482 392 l 482 363 q 481 351 482 353 q 470 344 478 350 q 451 332 463 339 q 439 321 444 325 q 427 313 433 317 q 413 305 421 308 q 390 296 404 301 q 354 291 371 292 q 314 290 338 290 q 211 327 250 290 q 172 436 172 364 z "},"":{"ha":404,"x_min":22,"x_max":374,"o":"m 39 463 q 52 497 39 482 q 81 523 65 511 q 109 543 96 535 q 122 558 122 551 q 86 631 122 578 q 40 643 57 643 q 22 649 22 643 q 33 667 22 658 q 56 683 43 676 q 82 695 69 690 q 97 701 94 700 l 101 701 q 127 690 117 701 q 146 668 138 678 q 169 643 151 664 q 208 598 188 622 q 246 552 228 574 q 268 526 264 531 q 283 506 272 519 q 310 477 294 492 q 342 450 325 463 q 374 433 358 438 l 374 431 q 367 408 374 418 q 350 391 360 399 q 328 379 340 383 q 307 375 317 375 l 293 375 q 266 395 283 379 q 243 418 249 411 l 236 418 q 208 410 221 418 q 183 392 196 401 q 156 374 169 382 q 125 365 142 365 q 63 395 86 365 q 39 463 39 425 m 106 488 q 123 449 106 468 q 160 431 140 431 l 164 431 q 174 434 165 431 q 194 444 183 438 q 204 458 204 451 q 197 476 204 465 q 181 498 190 488 q 160 515 171 508 q 143 522 150 522 q 117 513 129 522 q 106 488 106 503 z "},"":{"ha":475,"x_min":38,"x_max":418,"o":"m 38 314 q 63 270 50 292 q 92 228 76 249 q 136 172 108 204 q 203 97 164 139 l 203 190 q 199 194 200 193 q 197 197 199 196 q 173 226 182 214 q 150 265 164 238 q 148 276 149 272 q 147 282 147 281 q 156 308 147 293 q 180 328 172 322 q 203 357 188 335 l 203 497 l 121 401 q 99 381 110 389 q 78 363 89 372 q 58 342 68 354 q 38 314 47 331 m 251 314 q 276 273 263 294 q 306 228 290 251 q 350 172 322 204 q 418 97 378 139 l 418 190 q 389 224 399 211 q 364 265 379 236 q 362 273 363 269 q 361 281 361 276 q 371 308 361 294 q 395 328 388 322 q 418 357 403 335 l 418 497 l 335 401 q 313 381 324 389 q 292 363 303 372 q 272 342 282 354 q 251 314 261 331 z "},"":{"ha":689,"x_min":28,"x_max":663,"o":"m 565 389 q 599 402 585 399 q 632 406 613 406 q 651 403 640 406 q 663 389 663 401 q 656 372 663 385 q 647 356 650 360 l 633 343 q 642 280 639 321 q 648 197 646 239 q 651 120 650 154 q 653 78 653 86 q 651 58 653 69 q 635 47 649 47 q 619 53 632 47 q 603 64 607 60 q 530 156 554 117 q 497 240 506 196 l 324 240 l 165 258 l 28 238 q 46 287 28 260 q 90 336 64 314 q 147 374 117 358 q 200 389 176 389 l 565 389 z "},"":{"ha":551,"x_min":31,"x_max":525,"o":"m 428 389 l 203 392 q 150 377 179 392 q 94 340 121 363 q 49 292 67 318 q 31 242 31 265 q 99 253 68 242 q 169 264 131 264 l 243 243 q 327 245 296 243 q 382 256 358 247 q 428 284 406 265 q 488 336 451 303 q 498 345 493 340 q 508 356 503 350 q 519 372 513 360 q 525 389 525 385 q 514 403 525 401 q 494 406 503 406 q 461 402 475 406 q 428 389 447 399 z "},"":{"ha":751,"x_min":10,"x_max":711,"o":"m 10 424 q 32 526 10 465 q 90 642 54 586 q 169 738 125 699 q 256 778 213 778 q 344 790 301 790 q 433 778 389 790 q 450 772 440 778 q 467 763 460 765 q 542 712 500 739 q 622 651 585 685 q 685 577 660 618 q 711 486 711 536 q 677 361 711 425 q 590 245 643 297 q 474 159 538 193 q 353 125 411 125 q 234 147 294 125 q 124 210 174 169 q 42 304 74 250 q 10 424 10 358 m 242 267 l 242 288 q 240 423 242 358 q 226 558 238 488 q 207 567 219 567 l 197 567 q 193 575 193 567 q 203 595 193 586 q 226 611 213 604 q 254 622 240 618 q 276 625 268 625 q 285 624 279 625 q 290 624 290 624 q 301 609 294 621 q 307 592 307 597 l 315 592 q 328 597 317 592 q 351 607 339 601 q 375 617 364 613 q 389 624 386 622 l 403 624 q 448 610 428 624 q 481 578 468 597 q 502 534 494 558 q 510 488 510 510 q 503 458 510 474 q 486 428 496 443 q 465 401 476 414 q 446 381 454 389 l 446 372 q 455 368 447 372 q 475 360 463 364 q 494 356 488 356 q 513 351 497 354 q 535 347 529 347 l 543 347 q 558 350 556 347 q 574 391 568 369 q 579 436 579 413 q 558 557 579 510 q 496 631 536 604 q 397 667 456 657 q 265 676 339 676 q 216 654 240 676 q 172 601 192 632 q 140 538 153 571 q 128 486 128 506 q 118 406 118 458 q 152 297 118 335 q 239 243 186 258 q 241 255 240 250 q 242 267 242 260 m 304 506 l 304 479 l 304 450 q 306 405 304 429 q 313 375 308 381 q 319 374 314 375 q 328 374 325 374 q 367 381 347 374 q 401 399 386 388 q 424 428 415 411 q 433 465 433 444 q 428 500 433 482 q 413 534 424 518 q 388 560 403 550 q 354 571 374 571 l 344 571 l 304 529 l 304 506 m 393 228 q 463 247 429 228 q 524 296 497 265 q 500 291 508 293 q 489 289 492 289 q 419 302 453 289 q 347 315 386 315 q 313 288 322 315 q 296 232 304 261 q 393 228 342 228 z "},"":{"ha":621,"x_min":-44,"x_max":657,"o":"m 121 1086 l 608 1118 l 657 1118 q 609 1051 642 1076 q 532 1011 576 1025 q 435 992 488 997 q 331 988 383 988 q 233 990 281 988 q 146 992 186 992 q 115 991 129 992 q 88 989 100 990 q 67 984 83 989 q 31 974 50 979 q -6 963 11 968 q -26 956 -22 957 q -35 955 -28 956 q -44 954 -42 954 q -29 1011 -44 989 q 10 1048 -14 1033 q 64 1071 35 1063 q 121 1086 93 1079 z "},"":{"ha":238,"x_min":35,"x_max":217,"o":"m 35 814 q 60 874 35 850 q 121 899 85 899 q 128 897 126 899 q 154 890 143 897 q 217 815 172 883 q 215 804 217 813 q 210 785 214 796 q 199 763 206 774 q 181 747 192 753 q 148 736 165 739 q 115 733 131 733 q 56 756 78 733 q 35 814 35 778 m 86 819 q 114 785 86 785 q 136 790 122 785 q 150 810 150 796 q 149 813 150 811 q 147 815 147 814 q 128 838 132 833 q 121 843 124 843 l 117 843 q 115 844 117 844 q 94 836 101 844 q 86 819 86 828 z "},"":{"ha":604,"x_min":21,"x_max":576,"o":"m 361 243 q 367 224 367 233 q 364 211 367 217 q 361 192 361 206 q 359 172 361 183 q 343 161 357 161 q 326 167 339 161 q 310 178 314 174 q 271 219 285 204 q 249 246 257 233 q 238 272 242 258 q 231 307 235 285 q 206 310 210 307 q 200 317 201 313 q 193 324 199 321 q 164 326 188 326 l 26 306 q 44 350 26 328 q 88 389 63 372 q 144 416 114 406 q 197 426 174 426 l 219 426 q 222 453 219 449 q 229 460 225 458 q 236 467 233 461 q 239 497 239 472 q 238 523 239 517 q 238 535 238 529 q 237 547 238 540 q 236 574 236 554 q 282 565 258 574 q 324 541 306 556 q 355 506 343 526 q 367 463 367 485 l 367 426 l 479 426 q 513 440 499 436 q 546 443 526 443 q 565 441 554 443 q 576 426 576 439 q 570 410 576 422 q 561 393 564 397 q 508 353 532 367 q 461 331 483 339 q 417 321 439 324 q 369 314 394 318 l 361 243 m 182 118 l 465 118 q 499 133 485 129 q 532 136 513 136 q 551 134 540 136 q 563 118 563 132 q 556 103 563 115 q 546 86 550 90 q 495 46 518 61 q 451 22 472 31 q 410 10 431 13 q 367 7 389 7 q 307 9 339 7 q 233 11 275 11 l 160 31 q 90 20 121 31 q 21 10 58 10 q 38 52 21 32 q 78 87 54 72 q 131 110 103 101 q 182 118 158 118 z "},"":{"ha":382,"x_min":25,"x_max":351,"o":"m 115 385 q 154 374 136 385 q 190 351 172 364 q 226 328 208 339 q 264 318 244 318 q 312 333 296 318 q 351 376 328 349 q 348 382 351 379 q 343 385 344 385 l 294 385 l 221 433 q 220 435 221 433 q 219 438 219 436 q 229 463 219 453 q 251 481 239 472 q 273 499 263 489 q 286 524 283 508 q 287 538 286 526 q 288 558 288 549 l 288 567 q 283 606 288 583 q 270 647 279 628 q 246 681 261 667 q 208 694 231 694 q 142 665 174 686 q 93 635 111 643 q 65 606 72 624 q 57 549 57 588 q 76 557 69 549 q 83 578 83 565 l 83 581 l 156 629 q 160 630 156 629 q 168 631 164 631 q 195 617 185 631 q 211 585 206 604 q 219 547 217 567 q 221 517 221 528 q 190 470 221 483 q 123 449 160 457 q 56 431 86 442 q 25 392 25 421 q 26 382 25 388 q 26 376 26 376 q 40 367 28 374 q 58 361 53 361 q 69 369 60 361 q 83 376 79 376 q 99 382 88 379 q 115 385 110 385 z "},"":{"ha":325,"x_min":28,"x_max":304,"o":"m 113 461 q 56 425 56 442 l 56 419 q 59 402 57 411 q 68 383 61 393 q 133 344 86 344 q 187 360 157 344 q 242 399 217 375 q 286 452 268 424 q 304 507 304 481 q 295 548 304 532 q 275 574 286 564 q 255 588 264 583 q 246 596 246 593 q 255 630 246 615 q 264 663 264 644 q 259 686 264 676 q 239 696 254 696 q 214 689 225 696 q 192 674 203 682 q 170 660 182 667 q 144 653 158 653 q 122 662 129 653 q 97 671 115 671 q 77 669 89 671 q 54 662 65 667 q 35 649 43 657 q 28 631 28 642 q 38 619 31 626 q 64 592 44 613 q 82 585 71 585 q 107 590 97 585 l 113 593 q 135 605 126 600 q 151 618 144 610 q 192 632 165 632 q 185 601 192 614 q 172 576 179 588 q 159 551 165 564 q 153 522 153 539 l 192 524 q 221 516 211 524 q 231 479 231 508 q 216 430 231 450 q 172 410 201 410 q 150 415 157 410 q 138 428 143 421 q 127 445 132 436 q 113 461 122 454 z "},"":{"ha":286,"x_min":29,"x_max":251,"o":"m 78 735 q 106 755 94 744 q 127 776 118 765 q 144 797 136 786 q 165 818 153 807 l 251 901 l 122 901 q 94 877 100 885 q 74 853 88 869 q 36 804 51 840 q 31 783 33 790 q 29 776 29 776 q 39 757 29 763 l 78 735 z "},"":{"ha":747,"x_min":-57,"x_max":714,"o":"m 714 281 q 683 183 714 232 q 605 93 651 133 q 504 27 558 53 q 403 1 450 1 q 344 13 371 1 q 292 39 317 24 q 242 71 267 54 q 192 99 218 88 q 181 58 186 86 q 169 -4 175 31 q 156 -76 164 -39 q 140 -143 149 -112 q 119 -193 131 -174 q 92 -212 107 -212 q 50 -201 75 -212 q 1 -172 25 -190 q -40 -132 -24 -154 q -57 -89 -57 -110 q -35 -88 -51 -89 q -3 -83 -19 -87 q 25 -71 13 -79 q 38 -46 38 -62 l 38 624 q 51 638 38 635 q 79 642 65 642 l 89 642 q 103 641 94 642 q 111 640 111 640 l 192 558 q 192 556 192 558 q 193 553 193 554 q 192 546 193 549 q 192 543 192 543 q 185 526 190 539 q 175 510 179 514 l 174 488 l 174 392 q 176 310 174 356 q 192 226 179 265 q 234 159 206 186 q 314 132 263 132 q 394 153 347 132 q 483 205 440 174 q 554 274 525 236 q 583 346 583 311 l 450 599 q 470 659 450 642 q 535 676 490 676 q 587 667 560 676 q 638 640 614 657 q 682 602 663 624 q 711 558 701 581 q 688 538 708 538 l 615 544 q 590 539 600 544 q 581 518 581 533 q 601 458 581 485 q 647 404 622 431 q 693 348 672 378 q 714 281 714 318 z "},"":{"ha":811,"x_min":8,"x_max":796,"o":"m 724 -135 q 705 180 719 25 q 690 494 690 335 l 690 542 q 707 546 696 543 q 729 553 718 549 q 749 564 740 557 q 757 582 757 571 q 756 585 757 583 q 756 589 756 586 q 751 594 754 590 q 743 603 749 597 q 684 662 713 639 q 608 685 656 685 l 294 685 q 218 659 249 685 q 169 596 188 633 q 142 515 150 558 q 135 439 135 472 l 135 422 q 136 383 135 404 q 138 353 138 361 q 166 308 144 328 q 210 272 188 289 q 251 234 233 254 q 269 188 269 214 q 269 183 269 185 q 268 181 268 181 l 122 86 q 103 87 117 86 q 74 88 89 88 q 43 87 57 88 q 25 86 29 86 q 15 80 21 86 q 8 69 8 74 q 49 24 31 44 q 85 -12 67 3 q 126 -34 104 -26 q 182 -42 149 -42 q 256 -22 221 -42 q 328 21 292 -3 q 362 42 347 33 q 396 63 376 51 l 400 65 q 428 99 419 76 q 436 154 436 121 q 386 239 436 222 q 342 259 363 247 q 303 285 321 271 q 267 353 267 313 q 271 410 267 375 q 287 480 275 446 q 319 538 299 514 q 375 563 340 563 l 389 563 q 399 561 397 563 l 544 525 q 553 499 549 521 q 561 464 558 478 l 561 217 l 576 39 q 587 -63 576 -6 q 623 -174 597 -121 q 691 -262 649 -226 q 796 -299 733 -299 q 785 -255 796 -274 q 760 -218 774 -236 q 735 -181 746 -200 q 724 -135 724 -161 z "},"":{"ha":299,"x_min":28,"x_max":228,"o":"m 28 342 q 38 381 28 363 q 65 412 49 399 q 103 432 82 425 q 147 439 125 439 q 175 428 163 439 q 197 402 188 417 q 215 373 207 388 q 228 353 222 358 l 228 333 q 222 297 228 315 q 203 263 215 278 q 175 238 192 247 q 136 228 158 228 q 101 242 119 228 q 65 274 82 256 q 38 312 49 293 q 28 342 28 331 z "},"":{"ha":136,"x_min":-83,"x_max":194,"o":"m -6 -68 l 26 7 l 108 7 l 88 -46 q 168 -74 142 -53 q 194 -124 194 -96 q 145 -201 185 -171 q 38 -232 106 -232 l 22 -232 q -57 -208 -33 -228 l -83 -143 q -31 -157 -57 -157 l -6 -157 q 74 -143 56 -157 q 90 -118 90 -133 q 88 -106 90 -112 q 74 -94 85 -100 q 45 -81 64 -87 q -6 -68 26 -74 z "},"":{"ha":256,"x_min":22,"x_max":221,"o":"m 22 633 q 34 656 22 644 q 62 676 46 667 q 93 690 78 685 q 117 696 108 696 q 140 676 133 696 q 149 627 147 657 q 149 562 150 597 q 147 496 147 526 q 151 447 147 467 q 169 426 156 426 l 221 436 q 211 410 221 424 q 188 386 201 397 q 158 368 174 375 q 131 361 142 361 q 104 370 117 361 q 89 394 92 379 l 74 614 q 64 624 69 624 q 51 622 58 624 q 36 621 43 621 q 22 633 22 621 z "},"":{"ha":411,"x_min":17,"x_max":367,"o":"m 17 517 q 28 568 17 538 q 56 626 39 599 q 96 674 74 654 q 140 694 118 694 q 183 699 161 699 q 229 694 204 699 q 237 691 232 694 q 246 686 242 688 l 260 676 q 295 652 276 665 q 330 623 314 639 q 356 588 346 607 q 367 547 367 569 q 350 485 367 517 q 307 426 333 453 q 249 383 281 400 q 189 367 218 367 q 129 378 160 367 q 74 409 99 389 q 33 457 49 429 q 17 517 17 485 m 83 551 q 97 503 83 524 q 130 467 110 482 q 174 445 150 453 q 221 438 199 438 q 275 453 256 438 q 294 508 294 468 q 278 560 294 536 q 239 601 263 583 q 187 628 215 618 q 133 638 158 638 q 112 628 121 638 q 97 604 103 618 q 87 576 90 590 q 83 551 83 561 z "},"":{"ha":475,"x_min":40,"x_max":421,"o":"m 421 314 l 415 304 q 392 265 404 285 q 362 222 379 246 q 319 167 344 197 q 256 97 293 138 l 256 190 q 259 194 258 193 q 261 197 260 196 q 285 226 275 214 q 308 265 294 238 q 310 276 310 272 q 311 278 311 279 q 308 293 311 285 q 303 308 306 301 q 278 328 286 322 q 256 357 271 335 l 256 497 l 338 401 q 379 362 357 376 q 421 314 401 347 m 207 314 q 182 277 196 294 q 153 236 168 260 q 108 176 136 213 q 40 97 81 139 l 40 190 q 69 224 60 211 q 94 265 79 236 q 97 273 96 269 q 97 281 97 276 q 88 308 97 294 q 63 328 71 322 q 40 357 56 335 l 40 497 l 124 401 q 165 362 143 376 q 207 314 188 347 z "},"":{"ha":810,"x_min":25,"x_max":771,"o":"m 185 29 q 469 260 336 139 q 724 519 601 381 q 737 526 729 521 q 752 540 744 532 q 765 556 760 547 q 771 572 771 565 q 762 594 771 585 q 740 608 753 603 q 713 617 728 614 q 688 619 699 619 q 678 619 683 619 q 671 618 672 618 l 460 439 q 439 417 456 435 q 403 381 422 400 q 368 345 385 361 q 346 325 351 329 q 310 289 338 317 q 249 229 282 261 q 183 168 215 197 q 133 126 151 139 l 88 104 q 74 96 83 101 q 56 83 65 90 q 37 69 46 76 q 25 58 28 63 q 75 14 49 29 q 140 -1 101 -1 q 146 0 146 -1 q 144 3 146 1 q 142 8 142 6 q 150 17 142 13 q 185 29 158 22 m 725 265 l 729 265 q 742 281 742 265 q 721 311 742 300 q 685 322 700 322 q 649 308 665 322 q 622 278 632 293 l 465 118 q 443 108 456 113 q 419 98 431 104 q 399 82 407 92 q 390 57 390 72 l 392 54 q 400 46 392 46 q 408 39 401 43 q 424 31 415 35 q 439 24 432 26 q 449 21 446 21 l 451 19 q 467 21 456 19 q 499 25 479 22 q 536 29 519 28 q 572 35 553 31 q 618 56 603 39 q 619 56 618 56 q 619 58 619 57 q 592 72 619 65 q 526 86 565 79 l 628 188 l 643 188 l 651 54 q 658 8 653 33 q 675 -41 664 -18 q 705 -79 686 -64 q 751 -94 724 -94 l 725 -19 l 725 265 m 85 575 q 99 563 85 563 q 113 564 106 563 q 125 565 119 565 q 135 556 133 565 l 151 336 q 165 312 153 321 q 192 303 178 303 q 219 310 203 303 q 249 328 235 317 q 274 351 264 339 q 283 376 283 364 l 231 367 q 215 383 219 367 q 211 422 211 399 l 211 540 q 206 609 211 581 q 179 638 200 638 q 155 632 171 638 q 124 617 139 626 q 97 597 108 608 q 85 575 85 586 z "},"":{"ha":838,"x_min":25,"x_max":831,"o":"m 185 29 q 469 260 336 139 q 724 519 601 381 q 737 526 729 521 q 752 540 744 532 q 765 556 760 547 q 771 572 771 565 q 762 594 771 585 q 740 608 753 603 q 713 617 728 614 q 688 619 699 619 q 678 619 683 619 q 671 618 672 618 l 460 439 q 439 417 456 435 q 403 381 422 400 q 368 345 385 361 q 346 325 351 329 q 310 289 338 317 q 249 229 282 261 q 183 168 215 197 q 133 126 151 139 l 88 104 q 74 96 83 101 q 56 83 65 90 q 37 69 46 76 q 25 58 28 63 q 75 14 49 29 q 140 -1 101 -1 q 146 0 146 -1 q 144 3 146 1 q 142 8 142 6 q 150 17 142 13 q 185 29 158 22 m 85 575 q 99 563 85 563 q 113 564 106 563 q 125 565 119 565 q 135 556 133 565 l 151 336 q 165 312 153 321 q 192 303 178 303 q 219 310 203 303 q 249 328 235 317 q 274 351 264 339 q 283 376 283 364 l 231 367 q 215 383 219 367 q 211 422 211 399 l 211 540 q 206 609 211 581 q 179 638 200 638 q 155 632 171 638 q 124 617 139 626 q 97 597 108 608 q 85 575 85 586 m 594 15 q 633 5 615 15 q 669 -18 651 -6 q 706 -41 688 -31 q 743 -51 724 -51 q 792 -36 775 -51 q 831 7 808 -21 q 827 12 831 8 q 822 15 824 15 l 774 15 l 700 64 q 699 65 700 64 q 699 67 699 65 q 708 92 699 82 q 730 110 718 101 q 752 128 742 118 q 765 153 763 138 q 766 167 765 156 q 767 189 767 178 l 767 197 q 763 235 767 214 q 749 276 758 257 q 725 310 740 296 q 688 324 710 324 q 623 294 654 315 q 572 265 592 274 q 544 235 551 253 q 536 179 536 217 q 563 206 563 179 l 563 210 l 635 258 q 639 259 635 258 q 647 260 643 260 q 674 247 664 260 q 690 215 685 233 q 698 177 696 196 q 700 146 700 158 q 669 99 700 113 q 602 78 639 86 q 535 60 565 71 q 504 21 504 50 q 505 13 504 18 q 506 7 506 7 q 520 -3 507 3 q 538 -10 533 -10 q 549 -1 539 -10 q 563 7 558 7 q 578 12 567 8 q 594 15 590 15 z "},"":{"ha":810,"x_min":25,"x_max":771,"o":"m 185 29 q 469 260 336 139 q 724 519 601 381 q 737 526 729 521 q 752 540 744 532 q 765 556 760 547 q 771 572 771 565 q 762 594 771 585 q 740 608 753 603 q 713 617 728 614 q 688 619 699 619 q 678 619 683 619 q 671 618 672 618 l 460 439 q 439 417 456 435 q 403 381 422 400 q 368 345 385 361 q 346 325 351 329 q 310 289 338 317 q 249 229 282 261 q 183 168 215 197 q 133 126 151 139 l 88 104 q 74 96 83 101 q 56 83 65 90 q 37 69 46 76 q 25 58 28 63 q 75 14 49 29 q 140 -1 101 -1 q 146 0 146 -1 q 144 3 146 1 q 142 8 142 6 q 150 17 142 13 q 185 29 158 22 m 135 408 q 78 369 78 388 l 78 367 q 92 331 81 347 q 156 290 111 290 q 209 306 179 290 q 265 345 239 321 q 308 398 290 369 q 326 453 326 426 q 317 494 326 478 q 297 519 308 510 q 277 535 286 529 q 268 543 268 540 q 277 576 268 561 q 286 610 286 590 q 281 633 286 624 q 261 642 276 642 q 238 635 249 642 q 216 621 226 629 q 194 606 206 613 q 168 600 182 600 q 145 609 151 600 q 121 618 139 618 q 101 616 113 618 q 77 608 89 614 q 58 595 65 603 q 50 576 50 588 q 60 566 54 574 q 86 538 67 558 q 106 531 93 531 q 131 536 121 531 q 174 564 163 549 q 214 579 189 579 q 208 548 214 561 q 194 522 201 535 q 181 497 188 510 q 175 468 175 485 q 198 469 188 468 q 217 469 208 469 q 244 462 235 469 q 254 426 254 454 q 239 376 254 396 q 194 356 224 356 q 172 361 179 356 q 160 375 165 367 q 149 392 154 383 q 135 408 144 401 m 725 265 l 729 265 q 742 281 742 265 q 721 311 742 300 q 685 322 700 322 q 649 308 665 322 q 622 278 632 293 l 465 118 q 443 108 456 113 q 419 98 431 104 q 399 82 407 92 q 390 57 390 72 l 392 54 q 400 46 392 46 q 408 39 401 43 q 424 31 415 35 q 439 24 432 26 q 449 21 446 21 l 451 19 q 467 21 456 19 q 499 25 479 22 q 536 29 519 28 q 572 35 553 31 q 618 56 603 39 l 619 58 q 593 72 619 65 q 528 86 567 79 l 628 199 l 643 199 l 651 54 q 658 8 653 33 q 675 -41 664 -18 q 705 -79 686 -64 q 751 -94 724 -94 l 725 -19 l 725 265 z "},"":{"ha":676,"x_min":15,"x_max":635,"o":"m 635 114 q 634 119 635 117 q 633 122 633 122 q 599 167 615 146 q 553 189 582 189 q 543 188 549 189 q 536 188 538 188 q 422 106 478 140 q 300 71 367 71 q 252 77 276 71 q 208 97 228 83 q 174 128 188 110 q 161 172 161 147 q 192 218 161 206 q 267 235 222 231 q 366 243 313 240 q 465 260 419 246 q 540 303 510 274 q 571 392 571 333 q 511 424 547 424 q 493 422 494 424 q 446 413 467 419 q 410 396 425 406 q 329 369 376 376 q 228 360 282 363 q 151 352 189 357 q 83 334 113 347 q 34 297 53 321 q 15 233 15 274 q 50 133 15 185 q 136 40 85 82 q 246 -30 188 -3 q 350 -57 304 -57 q 429 -47 381 -57 q 524 -15 478 -36 q 602 39 569 7 q 635 114 635 71 m 610 600 l 610 601 q 597 625 610 613 q 565 649 583 638 q 531 669 547 661 q 506 681 514 678 l 501 681 q 480 676 494 681 q 451 665 465 672 q 427 646 438 657 q 417 621 417 635 q 445 555 417 572 q 517 538 474 538 q 549 540 532 538 q 578 551 565 543 q 601 570 592 558 q 610 600 610 582 z "},"":{"ha":790,"x_min":8,"x_max":764,"o":"m 300 735 q 319 746 310 742 q 339 757 328 750 q 349 776 349 763 q 347 783 349 776 q 342 804 344 790 q 304 853 326 840 q 284 877 290 869 q 256 899 278 885 l 126 899 l 213 818 q 233 797 225 807 q 251 776 242 786 q 271 755 260 765 q 300 735 282 744 m 164 254 q 174 289 164 272 q 199 317 183 306 q 235 336 215 329 q 274 343 254 343 q 306 326 288 343 q 342 287 325 310 q 370 240 358 264 q 382 200 382 215 q 365 173 382 186 q 326 149 349 160 q 281 133 303 139 q 247 126 258 126 q 210 140 225 126 q 184 174 194 154 q 169 215 174 193 q 164 254 164 238 m 31 188 q 40 122 31 156 q 68 61 50 89 q 113 16 86 33 q 172 -1 139 -1 q 253 18 215 -1 q 323 61 290 38 q 385 104 356 85 q 440 124 414 124 l 456 122 l 553 36 q 562 34 554 36 q 575 32 569 32 q 614 40 600 32 q 650 71 628 49 q 683 103 664 83 q 721 143 703 124 q 751 177 739 163 q 764 192 764 192 l 764 214 q 737 210 749 214 q 714 202 725 207 q 692 194 703 197 q 667 190 681 190 q 657 191 663 190 q 650 192 651 192 q 586 264 621 218 q 513 364 551 310 q 431 474 474 418 q 347 574 389 529 q 262 648 304 619 q 179 676 219 676 q 131 665 160 676 q 74 635 101 654 q 28 592 47 617 q 8 543 8 568 q 60 541 26 543 q 128 528 94 539 q 188 497 163 518 q 213 440 213 476 q 184 392 213 414 q 122 342 156 369 q 59 278 88 314 q 31 188 31 242 z "},"":{"ha":790,"x_min":8,"x_max":764,"o":"m 244 735 q 273 755 261 744 q 294 776 285 765 q 311 797 303 786 q 332 818 319 807 l 418 901 l 288 901 q 259 877 265 885 q 239 853 253 869 q 219 835 229 847 q 200 804 210 824 q 193 778 193 774 q 199 762 193 768 q 214 751 206 756 q 231 742 222 746 q 244 735 239 739 m 164 254 q 174 289 164 272 q 199 317 183 306 q 235 336 215 329 q 274 343 254 343 q 306 326 288 343 q 342 287 325 310 q 370 240 358 264 q 382 200 382 215 q 365 173 382 186 q 326 149 349 160 q 281 133 303 139 q 247 126 258 126 q 210 140 225 126 q 184 174 194 154 q 169 215 174 193 q 164 254 164 238 m 31 188 q 40 122 31 156 q 68 61 50 89 q 113 16 86 33 q 172 -1 139 -1 q 253 18 215 -1 q 323 61 290 38 q 385 104 356 85 q 440 124 414 124 l 456 122 l 553 36 q 562 34 554 36 q 575 32 569 32 q 614 40 600 32 q 650 71 628 49 q 683 103 664 83 q 721 143 703 124 q 751 177 739 163 q 764 192 764 192 l 764 214 q 737 210 749 214 q 714 202 725 207 q 692 194 703 197 q 667 190 681 190 q 657 191 663 190 q 650 192 651 192 q 586 264 621 218 q 513 364 551 310 q 431 474 474 418 q 347 574 389 529 q 262 648 304 619 q 179 676 219 676 q 131 665 160 676 q 74 635 101 654 q 28 592 47 617 q 8 543 8 568 q 60 541 26 543 q 128 528 94 539 q 188 497 163 518 q 213 440 213 476 q 184 392 213 414 q 122 342 156 369 q 59 278 88 314 q 31 188 31 242 z "},"":{"ha":790,"x_min":8,"x_max":764,"o":"m 251 901 l 68 736 l 208 736 q 237 759 231 751 q 257 783 243 767 q 267 791 264 789 q 278 793 271 793 q 285 792 282 793 q 293 790 289 792 q 317 776 307 782 q 333 764 326 769 q 348 752 340 758 q 367 736 356 746 l 468 736 q 394 803 426 775 q 338 849 361 831 q 291 879 313 867 q 251 901 269 892 m 164 254 q 174 289 164 272 q 199 317 183 306 q 235 336 215 329 q 274 343 254 343 q 306 326 288 343 q 342 287 325 310 q 370 240 358 264 q 382 200 382 215 q 365 173 382 186 q 326 149 349 160 q 281 133 303 139 q 247 126 258 126 q 210 140 225 126 q 184 174 194 154 q 169 215 174 193 q 164 254 164 238 m 31 188 q 40 122 31 156 q 68 61 50 89 q 113 16 86 33 q 172 -1 139 -1 q 253 18 215 -1 q 323 61 290 38 q 385 104 356 85 q 440 124 414 124 l 456 122 l 553 36 q 562 34 554 36 q 575 32 569 32 q 614 40 600 32 q 650 71 628 49 q 683 103 664 83 q 721 143 703 124 q 751 177 739 163 q 764 192 764 192 l 764 214 q 737 210 749 214 q 714 202 725 207 q 692 194 703 197 q 667 190 681 190 q 657 191 663 190 q 650 192 651 192 q 586 264 621 218 q 513 364 551 310 q 431 474 474 418 q 347 574 389 529 q 262 648 304 619 q 179 676 219 676 q 131 665 160 676 q 74 635 101 654 q 28 592 47 617 q 8 543 8 568 q 60 541 26 543 q 128 528 94 539 q 188 497 163 518 q 213 440 213 476 q 184 392 213 414 q 122 342 156 369 q 59 278 88 314 q 31 188 31 242 z "},"":{"ha":790,"x_min":8,"x_max":764,"o":"m 324 735 q 364 760 344 749 q 406 789 383 772 q 459 832 429 806 q 532 900 489 858 l 449 900 q 414 872 429 882 q 371 847 399 863 q 350 841 360 843 q 332 835 340 839 q 315 843 322 836 q 300 860 308 850 q 281 881 292 869 q 251 901 269 892 q 212 877 233 890 q 169 849 190 864 q 125 811 156 839 q 47 736 94 783 l 126 736 q 162 765 146 756 q 206 790 178 774 q 218 792 207 792 q 247 783 231 792 q 267 759 261 768 q 293 735 274 750 l 324 735 m 164 254 q 174 289 164 272 q 199 317 183 306 q 235 336 215 329 q 274 343 254 343 q 306 326 288 343 q 342 287 325 310 q 370 240 358 264 q 382 200 382 215 q 365 173 382 186 q 326 149 349 160 q 281 133 303 139 q 247 126 258 126 q 210 140 225 126 q 184 174 194 154 q 169 215 174 193 q 164 254 164 238 m 31 188 q 40 122 31 156 q 68 61 50 89 q 113 16 86 33 q 172 -1 139 -1 q 253 18 215 -1 q 323 61 290 38 q 385 104 356 85 q 440 124 414 124 l 456 122 l 553 36 q 562 34 554 36 q 575 32 569 32 q 614 40 600 32 q 650 71 628 49 q 683 103 664 83 q 721 143 703 124 q 751 177 739 163 q 764 192 764 192 l 764 214 q 737 210 749 214 q 714 202 725 207 q 692 194 703 197 q 667 190 681 190 q 657 191 663 190 q 650 192 651 192 q 586 264 621 218 q 513 364 551 310 q 431 474 474 418 q 347 574 389 529 q 262 648 304 619 q 179 676 219 676 q 131 665 160 676 q 74 635 101 654 q 28 592 47 617 q 8 543 8 568 q 60 541 26 543 q 128 528 94 539 q 188 497 163 518 q 213 440 213 476 q 184 392 213 414 q 122 342 156 369 q 59 278 88 314 q 31 188 31 242 z "},"":{"ha":790,"x_min":8,"x_max":764,"o":"m 49 814 q 70 756 49 778 q 131 733 92 733 q 181 741 154 733 q 218 768 207 749 q 228 799 225 783 q 231 815 231 814 q 169 890 188 883 q 143 897 158 897 q 135 899 142 899 q 74 874 99 899 q 49 814 49 850 m 303 822 q 386 726 308 726 q 419 730 401 726 q 453 741 438 733 q 478 762 468 749 q 489 794 489 775 l 488 810 q 451 861 467 842 q 426 883 436 881 q 400 890 415 890 q 392 892 399 892 q 358 885 374 892 q 331 867 343 878 q 312 844 319 857 q 303 822 304 832 m 164 254 q 174 289 164 272 q 199 317 183 306 q 235 336 215 329 q 274 343 254 343 q 306 326 288 343 q 342 287 325 310 q 370 240 358 264 q 382 200 382 215 q 365 173 382 186 q 326 149 349 160 q 281 133 303 139 q 247 126 258 126 q 210 140 225 126 q 184 174 194 154 q 169 215 174 193 q 164 254 164 238 m 31 188 q 40 122 31 156 q 68 61 50 89 q 113 16 86 33 q 172 -1 139 -1 q 253 18 215 -1 q 323 61 290 38 q 385 104 356 85 q 440 124 414 124 l 456 122 l 553 36 q 562 34 554 36 q 575 32 569 32 q 614 40 600 32 q 650 71 628 49 q 683 103 664 83 q 721 143 703 124 q 751 177 739 163 q 764 192 764 192 l 764 214 q 737 210 749 214 q 714 202 725 207 q 692 194 703 197 q 667 190 681 190 q 657 191 663 190 q 650 192 651 192 q 586 264 621 218 q 513 364 551 310 q 431 474 474 418 q 347 574 389 529 q 262 648 304 619 q 179 676 219 676 q 131 665 160 676 q 74 635 101 654 q 28 592 47 617 q 8 543 8 568 q 60 541 26 543 q 128 528 94 539 q 188 497 163 518 q 213 440 213 476 q 184 392 213 414 q 122 342 156 369 q 59 278 88 314 q 31 188 31 242 z "},"":{"ha":790,"x_min":8,"x_max":764,"o":"m 124 814 q 145 756 124 778 q 204 733 167 733 q 255 741 228 733 q 293 768 282 749 q 302 799 299 783 q 306 815 306 814 q 243 890 261 883 q 218 897 232 897 q 210 899 217 899 q 149 874 174 899 q 124 814 124 850 m 175 819 q 183 836 175 828 q 204 844 192 844 q 207 843 207 844 l 210 843 q 217 839 213 843 q 238 815 222 835 l 239 810 q 225 790 239 796 q 203 785 211 785 q 175 819 175 785 m 164 254 q 174 289 164 272 q 199 317 183 306 q 235 336 215 329 q 274 343 254 343 q 306 326 288 343 q 342 287 325 310 q 370 240 358 264 q 382 200 382 215 q 365 173 382 186 q 326 149 349 160 q 281 133 303 139 q 247 126 258 126 q 210 140 225 126 q 184 174 194 154 q 169 215 174 193 q 164 254 164 238 m 31 188 q 40 122 31 156 q 68 61 50 89 q 113 16 86 33 q 172 -1 139 -1 q 253 18 215 -1 q 323 61 290 38 q 385 104 356 85 q 440 124 414 124 l 456 122 l 553 36 q 562 34 554 36 q 575 32 569 32 q 614 40 600 32 q 650 71 628 49 q 683 103 664 83 q 721 143 703 124 q 751 177 739 163 q 764 192 764 192 l 764 214 q 737 210 749 214 q 714 202 725 207 q 692 194 703 197 q 667 190 681 190 q 657 191 663 190 q 650 192 651 192 q 586 264 621 218 q 513 364 551 310 q 431 474 474 418 q 347 574 389 529 q 262 648 304 619 q 179 676 219 676 q 131 665 160 676 q 74 635 101 654 q 28 592 47 617 q 8 543 8 568 q 60 541 26 543 q 128 528 94 539 q 188 497 163 518 q 213 440 213 476 q 184 392 213 414 q 122 342 156 369 q 59 278 88 314 q 31 188 31 242 z "},"":{"ha":1271,"x_min":8,"x_max":1240,"o":"m 31 188 q 59 278 31 242 q 122 342 88 314 q 184 392 156 369 q 213 440 213 414 q 188 497 213 476 q 128 528 163 518 q 60 541 94 539 q 8 543 26 543 q 28 592 8 568 q 74 635 47 617 q 131 665 101 654 q 179 676 160 676 q 241 660 210 676 q 303 615 272 643 q 367 551 335 588 q 431 472 399 514 l 456 440 q 533 534 486 490 q 631 610 579 578 q 738 662 683 643 q 838 681 792 681 q 901 669 868 681 q 960 635 933 657 q 1006 585 988 614 q 1024 522 1024 556 q 1013 492 1024 506 q 985 468 1001 478 q 950 453 968 458 q 918 447 932 447 l 893 449 q 858 490 874 471 q 824 522 842 508 q 787 542 807 535 q 739 549 767 549 q 685 539 715 549 q 629 511 656 529 q 585 468 603 493 q 567 414 567 443 q 567 406 567 411 q 568 399 568 400 q 597 415 586 413 l 1031 396 l 1240 418 q 1210 359 1240 386 q 1138 311 1179 332 q 1056 278 1097 290 q 992 267 1014 267 l 585 267 q 586 261 585 263 q 607 229 597 246 q 625 193 617 213 q 676 156 646 171 q 738 133 706 142 q 803 120 771 124 q 863 117 836 117 q 905 122 885 117 q 944 135 925 128 q 985 149 964 143 q 1031 154 1006 154 q 1010 113 1031 139 q 963 63 990 88 q 907 19 936 38 q 861 0 878 0 q 743 -12 800 -12 q 633 0 688 -12 q 552 33 592 10 q 479 99 513 56 l 456 122 l 440 124 q 385 104 414 124 q 323 61 356 85 q 253 18 290 38 q 172 -1 215 -1 q 113 16 139 -1 q 68 61 86 33 q 40 122 50 89 q 31 188 31 156 m 164 254 q 169 215 164 238 q 184 174 174 193 q 210 140 194 154 q 247 126 225 126 q 280 133 258 126 q 323 149 301 139 q 360 173 344 160 q 376 200 376 186 q 365 240 376 215 q 335 286 353 264 q 299 324 318 308 q 265 340 279 340 q 195 316 226 340 q 164 254 164 292 m 410 690 q 435 751 410 726 q 496 775 460 775 q 504 774 503 775 q 529 767 518 774 q 592 692 547 760 q 592 685 592 690 q 593 678 593 681 q 583 645 593 658 q 556 624 572 632 q 522 613 540 617 q 490 610 504 610 q 431 632 453 610 q 410 690 410 654 z "},"":{"ha":660,"x_min":15,"x_max":629,"o":"m 247 -61 l 279 11 q 181 50 229 24 q 97 115 133 76 q 38 203 60 154 q 15 308 15 251 q 48 451 15 383 q 133 568 81 518 q 253 647 186 618 q 392 676 321 676 q 448 667 419 676 q 507 639 476 657 q 560 599 535 624 q 611 543 585 575 q 629 499 629 521 q 590 440 629 467 q 528 415 554 415 q 483 438 501 415 q 395 510 443 483 q 299 538 347 538 q 190 504 219 538 q 161 385 161 471 q 189 280 161 326 q 260 202 217 233 q 358 154 304 171 q 463 138 411 138 q 542 160 511 138 q 571 169 556 169 q 608 157 588 169 q 625 136 625 149 q 592 93 625 118 q 481 26 539 53 q 374 0 422 0 l 356 0 l 340 -39 q 421 -67 394 -46 q 447 -117 447 -89 q 397 -194 436 -164 q 290 -225 358 -225 l 275 -225 q 228 -217 249 -222 q 194 -201 208 -212 l 169 -136 q 221 -151 231 -151 l 247 -151 q 326 -136 303 -151 q 343 -112 343 -128 q 340 -101 343 -107 q 327 -87 338 -94 q 298 -74 317 -81 q 247 -61 279 -67 z "},"":{"ha":881,"x_min":15,"x_max":838,"o":"m 428 735 q 447 746 438 742 q 467 757 456 750 q 476 776 476 763 q 474 783 476 776 q 469 804 472 790 q 432 853 454 840 q 412 877 418 869 q 383 899 406 885 l 254 899 l 340 818 q 361 797 353 807 q 378 776 369 786 q 399 755 388 765 q 428 735 410 744 m 15 290 q 35 201 15 251 q 85 106 54 151 q 158 31 117 61 q 243 0 199 0 q 357 -12 299 -12 q 471 0 413 -12 q 516 23 488 4 q 572 66 544 42 q 620 115 600 90 q 640 154 640 139 q 594 149 615 154 q 554 135 574 143 q 515 122 535 128 q 472 117 494 117 q 392 122 436 117 q 306 144 347 128 q 234 190 265 161 q 194 267 203 219 q 236 274 214 271 q 282 278 258 278 l 292 278 l 601 267 q 663 278 624 267 q 742 311 703 290 q 809 359 781 332 q 838 418 838 386 q 750 398 792 410 q 664 386 708 386 q 644 388 646 386 l 240 407 l 182 401 q 178 407 178 401 q 196 463 178 436 q 240 508 214 489 q 295 538 265 526 q 350 549 325 549 q 430 525 400 549 q 493 461 460 501 l 504 449 l 528 447 q 560 453 542 447 q 594 468 578 458 q 622 492 611 478 q 633 522 633 506 q 615 585 633 556 q 570 635 597 614 q 510 669 543 657 q 447 681 478 681 q 309 646 385 681 q 168 556 233 611 q 59 431 103 501 q 15 290 15 361 z "},"":{"ha":881,"x_min":15,"x_max":838,"o":"m 356 735 q 384 755 372 744 q 405 776 396 765 q 422 797 414 786 q 443 818 431 807 l 529 899 l 400 899 q 372 877 378 885 q 351 853 365 869 q 313 804 329 843 q 303 778 303 790 q 315 757 303 765 q 336 746 326 750 q 356 735 346 742 m 15 290 q 35 201 15 251 q 85 106 54 151 q 158 31 117 61 q 243 0 199 0 q 357 -12 299 -12 q 471 0 413 -12 q 516 23 488 4 q 572 66 544 42 q 620 115 600 90 q 640 154 640 139 q 594 149 615 154 q 554 135 574 143 q 515 122 535 128 q 472 117 494 117 q 392 122 436 117 q 306 144 347 128 q 234 190 265 161 q 194 267 203 219 q 236 274 214 271 q 282 278 258 278 l 292 278 l 601 267 q 663 278 624 267 q 742 311 703 290 q 809 359 781 332 q 838 418 838 386 q 750 398 792 410 q 664 386 708 386 q 644 388 646 386 l 240 407 l 182 401 q 178 407 178 401 q 196 463 178 436 q 240 508 214 489 q 295 538 265 526 q 350 549 325 549 q 430 525 400 549 q 493 461 460 501 l 504 449 l 528 447 q 560 453 542 447 q 594 468 578 458 q 622 492 611 478 q 633 522 633 506 q 615 585 633 556 q 570 635 597 614 q 510 669 543 657 q 447 681 478 681 q 309 646 385 681 q 168 556 233 611 q 59 431 103 501 q 15 290 15 361 z "},"":{"ha":881,"x_min":15,"x_max":850,"o":"m 15 290 q 59 431 15 361 q 168 556 103 501 q 309 646 233 611 q 447 681 385 681 q 510 669 478 681 q 570 635 543 657 q 615 585 597 614 q 633 522 633 556 q 622 492 633 506 q 594 468 611 478 q 560 453 578 458 q 528 447 542 447 q 516 448 525 447 q 504 449 507 449 q 468 490 485 471 q 434 522 451 508 q 397 542 417 535 q 350 549 376 549 q 295 539 325 549 q 240 511 265 529 q 196 468 214 493 q 178 414 178 443 q 178 406 178 411 q 179 399 179 400 q 208 414 194 414 l 240 414 q 440 405 344 414 q 640 396 536 396 q 746 407 696 396 q 850 418 796 418 q 819 359 850 386 q 748 311 789 332 q 665 278 707 290 q 601 267 624 267 l 194 267 q 236 193 204 222 q 308 147 268 164 q 393 124 349 131 q 472 117 438 117 q 515 122 494 117 q 554 135 535 128 q 594 149 574 143 q 640 154 615 154 q 620 113 640 139 q 573 63 600 88 q 517 19 546 38 q 471 0 488 0 l 243 0 q 158 31 199 0 q 85 106 117 61 q 35 201 54 151 q 15 290 15 251 m 360 901 q 401 877 379 890 q 446 849 422 864 q 575 736 492 813 l 490 736 q 453 765 469 756 q 408 790 438 774 q 364 783 392 796 q 344 759 350 767 q 315 735 338 751 l 175 736 l 271 819 q 292 840 283 829 q 310 862 301 851 q 331 882 319 872 q 360 901 342 892 z "},"":{"ha":881,"x_min":15,"x_max":838,"o":"m 442 814 q 463 756 442 778 q 524 733 485 733 q 556 737 538 733 q 589 748 574 740 q 615 769 604 756 q 625 801 625 782 q 624 809 625 804 q 624 815 624 814 q 563 890 581 883 q 536 897 551 897 q 528 899 535 899 q 467 874 492 899 q 442 814 442 850 m 179 814 q 201 756 179 778 q 260 733 222 733 q 292 737 274 733 q 326 748 310 740 q 352 769 342 756 q 363 801 363 782 q 362 809 363 804 q 361 815 361 814 q 299 890 317 883 q 274 897 288 897 q 265 899 272 899 q 204 874 229 899 q 179 814 179 850 m 15 290 q 35 201 15 251 q 85 106 54 151 q 158 31 117 61 q 243 0 199 0 q 357 -12 299 -12 q 471 0 413 -12 q 516 23 488 4 q 572 66 544 42 q 620 115 600 90 q 640 154 640 139 q 594 149 615 154 q 554 135 574 143 q 515 122 535 128 q 472 117 494 117 q 392 122 436 117 q 306 144 347 128 q 234 190 265 161 q 194 267 203 219 q 236 274 214 271 q 282 278 258 278 l 292 278 l 601 267 q 663 278 624 267 q 742 311 703 290 q 809 359 781 332 q 838 418 838 386 q 750 398 792 410 q 664 386 708 386 q 644 388 646 386 l 240 407 l 182 401 q 178 407 178 401 q 196 463 178 436 q 240 508 214 489 q 295 538 265 526 q 350 549 325 549 q 430 525 400 549 q 493 461 460 501 l 504 449 l 528 447 q 560 453 542 447 q 594 468 578 458 q 622 492 611 478 q 633 522 633 506 q 615 585 633 556 q 570 635 597 614 q 510 669 543 657 q 447 681 478 681 q 309 646 385 681 q 168 556 233 611 q 59 431 103 501 q 15 290 15 361 z "},"":{"ha":383,"x_min":17,"x_max":350,"o":"m 221 735 q 192 755 203 744 q 172 776 181 765 q 154 797 163 786 q 133 818 146 807 l 47 901 l 178 901 q 206 877 200 885 q 226 853 213 869 q 264 804 244 839 q 271 778 271 774 q 260 757 271 764 l 221 735 m 81 564 q 65 556 78 564 q 49 547 53 549 q 33 545 46 546 q 17 544 19 544 l 17 564 q 35 598 17 578 q 80 637 54 618 q 133 668 106 656 q 178 681 161 681 l 188 681 q 214 678 200 681 q 228 663 228 676 l 228 157 q 229 151 228 153 q 239 124 229 132 q 254 117 249 117 l 260 117 q 269 119 261 117 q 285 125 276 122 q 300 131 293 128 q 308 133 307 133 q 329 135 313 135 q 350 136 346 136 q 332 84 350 108 q 288 40 314 60 q 231 10 261 21 q 178 -1 201 -1 q 138 8 154 -1 q 113 35 122 18 q 101 72 104 51 q 97 117 97 93 l 97 547 q 91 558 97 551 q 81 564 85 564 z "},"":{"ha":383,"x_min":17,"x_max":350,"o":"m 101 735 l 60 757 q 50 776 50 763 q 52 783 50 776 q 57 804 54 790 q 96 853 74 843 q 116 877 110 869 q 144 899 122 885 l 275 899 l 189 818 q 149 775 164 796 q 101 735 135 754 m 81 564 q 65 556 78 564 q 49 547 53 549 q 33 545 46 546 q 17 544 19 544 l 17 564 q 35 598 17 578 q 80 637 54 618 q 133 668 106 656 q 178 681 161 681 l 188 681 q 214 678 200 681 q 228 663 228 676 l 228 157 q 229 151 228 153 q 239 124 229 132 q 254 117 249 117 l 260 117 q 269 119 261 117 q 285 125 276 122 q 300 131 293 128 q 308 133 307 133 q 329 135 313 135 q 350 136 346 136 q 332 84 350 108 q 288 40 314 60 q 231 10 261 21 q 178 -1 201 -1 q 138 8 154 -1 q 113 35 122 18 q 101 72 104 51 q 97 117 97 93 l 97 547 q 91 558 97 551 q 81 564 85 564 z "},"":{"ha":383,"x_min":-39,"x_max":361,"o":"m 144 901 q 184 879 163 892 q 231 849 206 867 q 287 803 254 831 q 361 736 319 775 l 240 736 q 222 753 229 746 q 207 767 214 761 q 191 780 200 774 q 168 794 182 786 q 161 796 167 796 q 158 792 158 796 q 150 783 158 789 q 130 759 136 767 q 101 736 124 751 l -39 736 l 57 819 q 78 840 69 829 q 96 860 88 850 q 115 881 104 871 q 144 901 126 892 m 81 564 q 65 556 78 564 q 49 547 53 549 q 33 545 46 546 q 17 544 19 544 l 17 564 q 35 598 17 578 q 80 637 54 618 q 133 668 106 656 q 178 681 161 681 l 188 681 q 214 678 200 681 q 228 663 228 676 l 228 157 q 229 151 228 153 q 239 124 229 132 q 254 117 249 117 l 260 117 q 269 119 261 117 q 285 125 276 122 q 300 131 293 128 q 308 133 307 133 q 329 135 313 135 q 350 136 346 136 q 332 84 350 108 q 288 40 314 60 q 231 10 261 21 q 178 -1 201 -1 q 138 8 154 -1 q 113 35 122 18 q 101 72 104 51 q 97 117 97 93 l 97 547 q 91 558 97 551 q 81 564 85 564 z "},"":{"ha":390,"x_min":-58,"x_max":379,"o":"m 194 814 q 219 874 194 850 q 281 899 244 899 q 289 897 288 899 q 315 890 304 897 q 376 815 338 883 q 378 809 376 814 q 379 801 379 804 q 369 769 379 782 q 342 748 358 756 q 308 737 326 740 q 276 733 290 733 q 217 756 239 733 q 194 814 194 778 m -58 814 q -33 874 -58 850 q 28 899 -8 899 q 36 897 35 899 q 61 890 50 897 q 124 815 82 883 q 124 809 124 814 q 125 801 125 804 q 115 769 125 782 q 88 748 104 756 q 54 737 72 740 q 22 733 36 733 q -37 756 -15 733 q -58 814 -58 778 m 81 564 q 65 556 78 564 q 49 547 53 549 q 33 545 46 546 q 17 544 19 544 l 17 564 q 35 598 17 578 q 80 637 54 618 q 133 668 106 656 q 178 681 161 681 l 188 681 q 214 678 200 681 q 228 663 228 676 l 228 157 q 229 151 228 153 q 239 124 229 132 q 254 117 249 117 l 260 117 q 269 119 261 117 q 285 125 276 122 q 300 131 293 128 q 308 133 307 133 q 329 135 313 135 q 350 136 346 136 q 332 84 350 108 q 288 40 314 60 q 231 10 261 21 q 178 -1 201 -1 q 138 8 154 -1 q 113 35 122 18 q 101 72 104 51 q 97 117 97 93 l 97 547 q 91 558 97 551 q 81 564 85 564 z "},"":{"ha":929,"x_min":0,"x_max":889,"o":"m 172 390 l 211 390 q 222 412 217 401 q 233 432 226 422 q 289 512 265 481 q 328 558 313 543 q 372 596 347 578 q 432 633 397 614 q 423 645 432 635 q 401 668 414 656 q 375 694 389 681 q 351 715 361 707 q 300 735 331 731 q 242 739 269 739 q 218 738 229 739 q 200 738 207 738 q 222 786 200 765 q 274 820 243 807 q 337 840 304 833 q 393 847 369 847 q 413 846 406 847 q 427 841 421 844 q 442 831 433 838 q 465 813 450 824 q 586 719 514 768 q 726 615 658 671 q 841 492 793 558 q 889 344 889 425 q 856 222 889 283 q 773 111 824 161 q 659 30 722 61 q 535 -1 596 -1 q 444 19 492 -1 q 353 75 397 40 q 274 153 310 110 q 219 242 239 196 l 213 242 q 182 244 188 242 q 176 251 176 247 q 169 258 175 256 q 138 261 164 261 l 0 240 q 18 290 0 264 q 63 339 36 317 q 119 376 90 361 q 172 390 149 390 m 489 568 q 438 549 464 568 q 391 503 413 531 q 354 446 369 476 q 335 390 339 415 l 456 390 q 489 404 475 400 q 522 408 503 408 q 542 406 531 408 q 553 390 553 404 q 547 374 553 386 q 536 357 540 361 q 459 297 492 318 q 393 261 426 275 q 449 206 418 232 q 512 159 481 179 q 572 126 543 139 q 619 114 600 114 q 672 131 646 114 q 716 173 697 147 q 747 228 735 199 q 758 285 758 258 q 728 370 758 321 q 656 463 699 419 q 567 538 614 507 q 489 568 521 568 z "},"":{"ha":985,"x_min":15,"x_max":939,"o":"m 453 735 l 485 735 q 524 760 506 749 q 566 789 543 772 q 619 832 589 806 q 692 900 649 858 l 610 900 q 575 872 590 882 q 532 847 560 863 q 511 841 521 843 q 493 835 501 839 q 476 843 483 836 q 461 860 469 850 q 442 881 453 869 q 413 901 431 892 q 372 877 394 890 q 331 849 350 864 q 286 811 317 839 q 208 736 256 783 l 288 736 q 322 765 307 756 q 365 790 338 774 q 376 792 372 792 q 379 793 379 793 q 408 783 394 793 q 428 759 422 768 q 453 735 433 750 m 81 -140 q 65 -201 69 -172 q 61 -261 61 -229 q 137 -241 107 -261 q 185 -189 167 -221 q 212 -118 203 -157 q 226 -42 221 -79 q 230 -1 228 -29 q 235 63 232 28 q 242 138 239 99 q 248 212 244 176 q 253 275 251 247 q 257 315 256 303 l 254 351 q 256 356 254 356 q 285 340 269 356 q 342 286 301 325 q 462 179 383 247 q 678 7 540 111 l 701 6 q 789 34 749 6 q 860 105 829 63 q 910 197 890 147 q 936 290 931 247 l 936 293 q 938 319 938 306 q 939 351 939 332 q 930 438 939 383 q 901 546 921 493 q 851 637 882 599 q 778 675 821 675 q 722 663 746 675 q 678 624 699 651 q 726 549 704 590 q 765 465 749 508 q 790 376 781 421 q 799 290 799 332 q 793 265 799 286 q 779 219 788 243 q 760 175 771 194 q 740 156 750 156 q 732 158 739 156 q 717 162 725 160 q 703 166 710 164 q 694 168 696 168 l 339 478 q 299 519 328 490 q 236 578 269 549 q 173 632 203 608 q 132 656 143 656 q 97 651 117 656 q 59 639 78 647 q 28 617 40 631 q 15 583 15 603 q 22 559 15 572 q 39 532 29 546 q 57 504 49 518 q 68 478 65 490 q 85 376 79 422 q 90 286 90 331 l 90 264 q 90 220 90 249 q 88 144 89 192 q 85 26 88 96 q 81 -140 83 -43 z "},"":{"ha":783,"x_min":15,"x_max":749,"o":"m 15 283 q 49 419 15 349 q 136 549 82 490 q 258 647 190 608 q 396 685 326 685 q 539 653 474 685 q 651 569 604 622 q 723 448 697 517 q 749 306 749 379 q 713 186 749 242 q 621 89 676 131 q 499 23 565 47 q 374 -1 433 -1 q 246 17 310 -1 q 131 70 182 35 q 47 159 79 106 q 15 283 15 213 m 161 357 q 185 252 161 297 q 249 176 210 207 q 340 128 289 144 q 447 113 392 113 l 461 113 q 484 113 472 113 q 506 114 496 114 l 519 114 q 539 127 526 117 q 565 150 551 138 q 588 175 578 163 q 601 194 599 188 q 602 210 601 194 q 603 238 603 226 q 585 363 603 304 q 534 464 568 421 q 448 531 500 507 q 325 556 396 556 q 309 555 319 556 q 285 554 299 554 q 260 553 271 554 q 243 553 249 553 q 203 515 219 538 q 178 465 188 492 q 165 410 169 438 q 161 357 161 382 m 438 735 q 408 755 419 744 q 388 776 397 765 q 371 797 379 786 q 350 818 363 807 l 264 899 l 393 901 q 422 877 415 885 q 442 853 428 869 q 479 804 464 840 q 476 757 496 769 q 456 746 465 750 q 438 735 447 742 z "},"":{"ha":783,"x_min":15,"x_max":749,"o":"m 15 283 q 49 419 15 349 q 136 549 82 490 q 258 647 190 608 q 396 685 326 685 q 539 653 474 685 q 651 569 604 622 q 723 448 697 517 q 749 306 749 379 q 713 186 749 242 q 621 89 676 131 q 499 23 565 47 q 374 -1 433 -1 q 246 17 310 -1 q 131 70 182 35 q 47 159 79 106 q 15 283 15 213 m 161 357 q 185 252 161 297 q 249 176 210 207 q 340 128 289 144 q 447 113 392 113 l 461 113 q 484 113 472 113 q 506 114 496 114 l 519 114 q 539 127 526 117 q 565 150 551 138 q 588 175 578 163 q 601 194 599 188 q 602 210 601 194 q 603 238 603 226 q 585 363 603 304 q 534 464 568 421 q 448 531 500 507 q 325 556 396 556 q 309 555 319 556 q 285 554 299 554 q 260 553 271 554 q 243 553 249 553 q 203 515 219 538 q 178 465 188 492 q 165 410 169 438 q 161 357 161 382 m 331 735 q 310 746 319 742 q 289 757 300 750 q 286 804 269 769 q 325 853 303 843 q 345 877 339 869 q 374 901 351 885 l 504 899 l 418 818 q 378 775 393 796 q 331 735 364 754 z "},"":{"ha":783,"x_min":15,"x_max":749,"o":"m 15 283 q 49 419 15 349 q 136 549 82 490 q 258 647 190 608 q 396 685 326 685 q 539 653 474 685 q 651 569 604 622 q 723 448 697 517 q 749 306 749 379 q 713 186 749 242 q 621 89 676 131 q 499 23 565 47 q 374 -1 433 -1 q 246 17 310 -1 q 131 70 182 35 q 47 159 79 106 q 15 283 15 213 m 161 357 q 185 252 161 297 q 249 176 210 207 q 340 128 289 144 q 447 113 392 113 l 461 113 q 484 113 472 113 q 506 114 496 114 l 519 114 q 539 127 526 117 q 565 150 551 138 q 588 175 578 163 q 601 194 599 188 q 602 210 601 194 q 603 238 603 226 q 585 363 603 304 q 534 464 568 421 q 448 531 500 507 q 325 556 396 556 q 309 555 319 556 q 285 554 299 554 q 260 553 271 554 q 243 553 249 553 q 203 515 219 538 q 178 465 188 492 q 165 410 169 438 q 161 357 161 382 m 356 901 q 395 879 374 892 q 442 849 417 867 q 498 803 465 831 q 572 736 531 775 l 488 736 q 450 765 467 756 q 404 790 433 774 q 361 783 375 797 q 341 759 347 767 q 313 735 335 751 l 172 736 l 268 819 q 290 840 281 829 q 307 860 299 850 q 326 881 315 871 q 356 901 338 892 z "},"":{"ha":783,"x_min":15,"x_max":749,"o":"m 15 283 q 49 419 15 349 q 136 549 82 490 q 258 647 190 608 q 396 685 326 685 q 539 653 474 685 q 651 569 604 622 q 723 448 697 517 q 749 306 749 379 q 713 186 749 242 q 621 89 676 131 q 499 23 565 47 q 374 -1 433 -1 q 246 17 310 -1 q 131 70 182 35 q 47 159 79 106 q 15 283 15 213 m 161 357 q 185 252 161 297 q 249 176 210 207 q 340 128 289 144 q 447 113 392 113 l 461 113 q 484 113 472 113 q 506 114 496 114 l 519 114 q 539 127 526 117 q 565 150 551 138 q 588 175 578 163 q 601 194 599 188 q 602 210 601 194 q 603 238 603 226 q 585 363 603 304 q 534 464 568 421 q 448 531 500 507 q 325 556 396 556 q 309 555 319 556 q 285 554 299 554 q 260 553 271 554 q 243 553 249 553 q 203 515 219 538 q 178 465 188 492 q 165 410 169 438 q 161 357 161 382 m 413 754 l 382 754 q 356 778 363 769 q 336 803 350 788 q 294 810 313 815 q 251 783 267 793 q 217 756 235 774 l 136 756 q 214 831 183 803 q 258 868 244 858 q 301 897 279 883 q 342 921 322 910 q 371 900 360 911 q 390 879 382 889 q 404 863 397 869 q 421 854 411 856 q 439 860 429 858 q 460 867 449 863 q 503 893 488 883 q 538 919 518 903 l 621 919 q 548 851 578 878 q 495 808 518 825 q 453 780 472 792 q 413 754 433 768 z "},"":{"ha":783,"x_min":15,"x_max":749,"o":"m 15 283 q 49 419 15 349 q 136 549 82 490 q 258 647 190 608 q 396 685 326 685 q 539 653 474 685 q 651 569 604 622 q 723 448 697 517 q 749 306 749 379 q 713 186 749 242 q 621 89 676 131 q 499 23 565 47 q 374 -1 433 -1 q 246 17 310 -1 q 131 70 182 35 q 47 159 79 106 q 15 283 15 213 m 161 357 q 185 252 161 297 q 249 176 210 207 q 340 128 289 144 q 447 113 392 113 l 461 113 q 484 113 472 113 q 506 114 496 114 l 519 114 q 539 127 526 117 q 565 150 551 138 q 588 175 578 163 q 601 194 599 188 q 602 210 601 194 q 603 238 603 226 q 585 363 603 304 q 534 464 568 421 q 448 531 500 507 q 325 556 396 556 q 309 555 319 556 q 285 554 299 554 q 260 553 271 554 q 243 553 249 553 q 203 515 219 538 q 178 465 188 492 q 165 410 169 438 q 161 357 161 382 m 160 814 q 185 874 160 850 q 246 899 210 899 q 254 897 253 899 q 279 890 268 897 q 342 815 297 883 q 342 809 342 814 q 343 801 343 804 q 333 769 343 782 q 306 748 322 756 q 272 737 290 740 q 240 733 254 733 q 181 756 203 733 q 160 814 160 778 m 422 814 q 447 874 422 850 q 508 899 472 899 q 517 897 515 899 q 543 890 532 897 q 604 815 561 883 q 605 809 604 814 q 606 801 606 804 q 595 769 606 782 q 569 748 585 756 q 536 737 554 740 q 504 733 518 733 q 444 756 465 733 q 422 814 422 778 z "},"":{"ha":669,"x_min":13,"x_max":635,"o":"m 338 254 q 315 198 325 218 q 293 165 304 178 q 269 143 282 151 q 243 125 257 135 q 194 96 219 107 q 142 85 169 85 l 118 85 q 85 92 100 85 q 69 128 69 100 q 87 167 69 153 q 124 182 104 182 q 161 176 143 182 q 199 169 179 169 q 222 174 208 169 q 250 189 236 179 q 274 211 264 199 q 283 240 283 224 q 282 248 283 244 q 281 251 281 251 q 281 262 279 256 q 275 276 282 268 l 260 290 q 224 325 257 294 q 125 414 192 356 q 97 438 108 429 q 74 450 85 446 q 49 455 63 454 q 13 456 35 456 q 26 483 13 468 q 56 513 39 499 q 90 535 74 526 q 111 544 106 544 q 153 531 135 544 q 190 497 171 517 l 313 376 q 357 467 332 440 q 378 487 368 478 q 403 506 389 496 q 454 534 429 524 q 507 544 479 544 l 529 544 q 564 538 549 544 q 579 503 579 531 q 561 463 579 478 q 525 449 543 449 q 488 455 506 449 q 450 461 469 461 q 426 456 440 461 q 398 443 411 451 q 375 422 385 435 q 365 392 365 408 q 367 384 365 388 q 369 381 369 381 q 372 373 372 378 q 369 363 371 368 q 369 352 368 358 q 376 340 369 346 l 524 217 q 551 193 539 201 q 574 181 563 185 q 601 176 586 176 q 635 175 615 175 q 622 147 635 163 q 592 118 608 132 q 559 94 575 104 q 538 85 543 85 q 494 99 514 85 q 460 133 475 114 l 338 254 z "},"":{"ha":832,"x_min":15,"x_max":797,"o":"m 210 51 q 174 35 194 36 q 133 35 153 35 q 67 53 96 35 q 15 101 39 71 q 26 115 18 106 q 45 134 35 124 q 65 153 56 144 q 79 165 75 163 l 113 182 q 117 185 115 183 q 122 189 118 188 q 96 299 96 240 q 118 401 96 340 q 176 517 140 461 q 255 613 211 574 q 342 653 299 653 q 374 668 354 668 l 418 668 l 465 668 q 519 653 465 668 q 536 647 526 653 q 553 638 546 640 q 577 619 564 628 q 606 603 590 610 q 640 634 625 622 q 665 653 656 646 q 672 654 667 653 q 681 656 678 656 q 711 649 692 656 q 749 631 731 642 q 782 606 768 619 q 796 581 796 593 q 776 553 796 564 q 746 539 757 543 q 733 528 739 533 q 719 515 726 522 q 776 445 754 482 q 797 361 797 408 q 763 236 797 300 q 676 120 729 172 q 560 34 624 68 q 439 0 497 0 q 332 19 386 0 q 229 69 278 38 q 219 60 224 65 q 210 51 215 56 m 651 283 q 604 406 651 350 q 478 290 540 346 q 354 179 417 233 q 429 151 390 160 q 504 142 468 142 q 613 173 575 142 q 651 283 651 204 m 228 367 q 246 285 228 319 q 304 331 278 310 q 340 361 331 353 q 361 382 344 365 q 397 417 378 399 q 432 453 415 436 q 453 475 449 469 q 465 485 457 478 q 485 500 474 492 q 331 542 403 542 q 286 522 306 542 q 254 475 267 503 q 235 417 242 447 q 228 367 228 388 z "},"":{"ha":858,"x_min":15,"x_max":829,"o":"m 15 336 q 16 354 15 343 q 17 365 17 365 l 114 514 l 114 572 l 25 572 q 27 588 25 572 q 32 614 29 604 q 56 645 38 631 q 99 672 75 660 q 148 690 124 683 q 188 697 172 697 q 238 674 215 697 q 261 624 261 651 q 245 563 261 590 q 210 510 229 535 q 176 458 192 485 q 161 401 161 432 q 180 301 161 350 q 232 215 199 253 q 310 153 265 176 q 408 131 356 131 q 447 138 422 131 q 495 156 472 144 q 535 183 518 168 q 553 217 553 199 l 553 564 q 543 580 549 567 q 536 596 538 593 l 536 604 q 549 632 536 618 q 578 657 561 646 q 613 674 594 668 q 642 681 631 681 q 666 680 653 681 q 682 663 679 679 q 683 588 682 642 q 688 472 685 533 q 693 358 690 411 q 699 283 696 304 q 700 256 699 274 q 705 218 701 238 q 715 180 708 199 q 731 150 721 161 q 747 151 736 150 q 772 151 758 151 q 797 151 786 151 q 813 150 807 150 q 823 142 817 147 q 829 133 829 136 q 810 86 829 110 q 763 43 790 63 q 706 11 735 24 q 657 -1 676 -1 q 619 17 632 -1 q 596 58 606 36 q 578 98 586 79 q 553 117 569 117 q 497 98 524 117 q 442 58 469 79 q 387 17 415 36 q 326 -1 358 -1 q 209 28 265 -1 q 110 106 153 58 q 41 215 67 154 q 15 336 15 275 m 438 735 q 408 755 419 744 q 388 776 397 765 q 371 797 379 786 q 350 818 363 807 l 264 899 l 393 901 q 422 877 415 885 q 442 853 428 869 q 479 804 464 840 q 476 757 496 769 q 456 746 465 750 q 438 735 447 742 z "},"":{"ha":858,"x_min":15,"x_max":829,"o":"m 15 336 q 16 354 15 343 q 17 365 17 365 l 114 514 l 114 572 l 25 572 q 27 588 25 572 q 32 614 29 604 q 56 645 38 631 q 99 672 75 660 q 148 690 124 683 q 188 697 172 697 q 238 674 215 697 q 261 624 261 651 q 245 563 261 590 q 210 510 229 535 q 176 458 192 485 q 161 401 161 432 q 180 301 161 350 q 232 215 199 253 q 310 153 265 176 q 408 131 356 131 q 447 138 422 131 q 495 156 472 144 q 535 183 518 168 q 553 217 553 199 l 553 564 q 543 580 549 567 q 536 596 538 593 l 536 604 q 549 632 536 618 q 578 657 561 646 q 613 674 594 668 q 642 681 631 681 q 666 680 653 681 q 682 663 679 679 q 683 588 682 642 q 688 472 685 533 q 693 358 690 411 q 699 283 696 304 q 700 256 699 274 q 705 218 701 238 q 715 180 708 199 q 731 150 721 161 q 747 151 736 150 q 772 151 758 151 q 797 151 786 151 q 813 150 807 150 q 823 142 817 147 q 829 133 829 136 q 810 86 829 110 q 763 43 790 63 q 706 11 735 24 q 657 -1 676 -1 q 619 17 632 -1 q 596 58 606 36 q 578 98 586 79 q 553 117 569 117 q 497 98 524 117 q 442 58 469 79 q 387 17 415 36 q 326 -1 358 -1 q 209 28 265 -1 q 110 106 153 58 q 41 215 67 154 q 15 336 15 275 m 382 735 q 363 746 372 742 q 342 757 353 750 q 338 804 321 769 q 357 835 347 824 q 376 853 367 847 q 388 867 383 861 q 397 878 392 872 q 408 888 401 883 q 426 901 414 893 l 556 899 l 469 818 q 449 797 457 807 q 431 776 440 786 q 410 755 422 765 q 382 735 399 744 z "},"":{"ha":858,"x_min":15,"x_max":829,"o":"m 15 336 q 16 354 15 343 q 17 365 17 365 l 114 514 l 114 572 l 25 572 q 27 588 25 572 q 32 614 29 604 q 56 645 38 631 q 99 672 75 660 q 148 690 124 683 q 188 697 172 697 q 238 674 215 697 q 261 624 261 651 q 245 563 261 590 q 210 510 229 535 q 176 458 192 485 q 161 401 161 432 q 180 301 161 350 q 232 215 199 253 q 310 153 265 176 q 408 131 356 131 q 447 138 422 131 q 495 156 472 144 q 535 183 518 168 q 553 217 553 199 l 553 564 q 543 580 549 567 q 536 596 538 593 l 536 604 q 549 632 536 618 q 578 657 561 646 q 613 674 594 668 q 642 681 631 681 q 666 680 653 681 q 682 663 679 679 q 683 588 682 642 q 688 472 685 533 q 693 358 690 411 q 699 283 696 304 q 700 256 699 274 q 705 218 701 238 q 715 180 708 199 q 731 150 721 161 q 747 151 736 150 q 772 151 758 151 q 797 151 786 151 q 813 150 807 150 q 823 142 817 147 q 829 133 829 136 q 810 86 829 110 q 763 43 790 63 q 706 11 735 24 q 657 -1 676 -1 q 619 17 632 -1 q 596 58 606 36 q 578 98 586 79 q 553 117 569 117 q 497 98 524 117 q 442 58 469 79 q 387 17 415 36 q 326 -1 358 -1 q 209 28 265 -1 q 110 106 153 58 q 41 215 67 154 q 15 336 15 275 m 379 921 q 420 897 399 910 q 465 868 442 883 q 594 756 511 832 l 510 756 q 473 784 489 775 q 428 810 457 793 q 383 803 411 815 q 363 778 369 786 q 335 754 357 771 l 194 756 l 290 839 q 312 860 303 849 q 330 881 321 871 q 350 901 339 892 q 379 921 361 911 z "},"":{"ha":858,"x_min":15,"x_max":829,"o":"m 15 336 q 16 354 15 343 q 17 365 17 365 l 114 514 l 114 572 l 25 572 q 27 588 25 572 q 32 614 29 604 q 56 645 38 631 q 99 672 75 660 q 148 690 124 683 q 188 697 172 697 q 238 674 215 697 q 261 624 261 651 q 245 563 261 590 q 210 510 229 535 q 176 458 192 485 q 161 401 161 432 q 180 301 161 350 q 232 215 199 253 q 310 153 265 176 q 408 131 356 131 q 447 138 422 131 q 495 156 472 144 q 535 183 518 168 q 553 217 553 199 l 553 564 q 543 580 549 567 q 536 596 538 593 l 536 604 q 549 632 536 618 q 578 657 561 646 q 613 674 594 668 q 642 681 631 681 q 666 680 653 681 q 682 663 679 679 q 683 588 682 642 q 688 472 685 533 q 693 358 690 411 q 699 283 696 304 q 700 256 699 274 q 705 218 701 238 q 715 180 708 199 q 731 150 721 161 q 747 151 736 150 q 772 151 758 151 q 797 151 786 151 q 813 150 807 150 q 823 142 817 147 q 829 133 829 136 q 810 86 829 110 q 763 43 790 63 q 706 11 735 24 q 657 -1 676 -1 q 619 17 632 -1 q 596 58 606 36 q 578 98 586 79 q 553 117 569 117 q 497 98 524 117 q 442 58 469 79 q 387 17 415 36 q 326 -1 358 -1 q 209 28 265 -1 q 110 106 153 58 q 41 215 67 154 q 15 336 15 275 m 185 828 q 210 887 185 863 q 271 911 235 911 q 279 910 278 911 q 306 904 296 910 q 367 829 326 894 q 368 823 367 828 q 369 814 369 818 q 359 781 369 794 q 333 760 349 768 q 299 749 317 753 q 267 746 281 746 q 207 769 229 746 q 185 828 185 792 m 446 828 q 471 887 446 863 q 532 911 496 911 q 539 910 538 911 q 565 904 556 910 q 628 829 583 897 q 628 823 628 828 q 629 814 629 818 q 619 781 629 794 q 592 760 608 768 q 558 749 576 753 q 526 746 540 746 q 467 769 489 746 q 446 828 446 792 z "},"":{"ha":874,"x_min":15,"x_max":847,"o":"m 519 -271 q 524 -152 514 -232 q 558 24 535 -72 q 613 222 581 121 q 683 403 644 322 q 762 533 721 485 q 844 571 803 581 q 846 578 844 572 q 847 586 847 583 q 833 624 847 607 q 797 652 818 640 q 754 670 776 664 q 715 676 732 676 q 681 674 696 676 q 650 657 665 672 q 635 630 646 650 q 610 588 624 610 q 585 545 597 565 q 568 518 574 525 q 555 483 564 507 q 534 435 546 458 q 508 393 522 411 q 479 375 493 375 q 435 394 458 375 q 384 444 411 414 q 327 508 357 474 q 265 573 297 543 q 197 622 232 603 q 122 642 161 642 q 92 639 110 642 q 56 629 74 636 q 27 610 39 622 q 15 579 15 597 q 29 548 15 563 q 62 522 43 533 q 99 503 81 510 q 128 497 118 497 q 166 508 149 497 q 203 518 183 518 q 240 501 217 518 q 290 458 264 485 q 343 399 317 432 q 391 333 369 365 q 426 274 413 301 q 440 229 440 246 q 432 145 440 186 q 415 64 424 104 q 397 -17 406 24 q 389 -99 389 -57 q 391 -153 389 -119 q 403 -217 393 -186 q 432 -272 413 -249 q 486 -294 451 -294 q 519 -271 513 -294 m 394 735 q 423 755 411 744 q 444 776 435 765 q 461 797 453 786 q 482 818 469 807 l 568 899 l 439 901 q 410 877 417 885 q 390 853 404 869 q 351 804 368 843 q 354 757 335 769 q 375 746 365 750 q 394 735 385 742 z "},"":{"ha":701,"x_min":15,"x_max":638,"o":"m 114 211 q 112 156 114 197 q 106 65 110 114 q 100 -29 103 17 q 96 -96 97 -75 q 85 -145 93 -121 q 67 -192 76 -169 q 51 -240 58 -215 q 44 -289 44 -264 q 135 -272 108 -289 q 173 -229 163 -256 q 188 -170 183 -203 q 213 -106 193 -137 q 221 -102 214 -104 q 236 -97 228 -100 q 252 -92 244 -94 q 261 -90 260 -90 q 369 -62 313 -86 q 475 -1 425 -39 q 564 83 525 36 q 619 183 603 131 q 638 247 638 214 l 638 314 q 627 388 638 350 q 597 455 617 425 q 545 504 576 485 q 472 524 514 524 q 342 494 406 524 q 229 422 279 464 q 219 481 219 440 l 219 546 q 212 624 219 590 q 179 657 204 657 q 132 644 156 657 q 86 612 108 631 q 46 572 64 593 q 17 535 28 551 l 15 526 l 17 518 q 25 507 19 514 q 32 500 31 500 q 49 508 36 500 q 65 518 61 517 l 74 518 q 88 508 82 511 q 97 500 94 504 q 101 444 99 485 q 107 357 104 403 q 112 269 110 311 q 114 211 114 228 m 213 222 q 226 287 213 253 q 263 349 240 321 q 315 394 286 376 q 376 413 344 413 q 433 393 408 413 q 473 344 457 374 q 497 282 489 315 q 506 222 506 249 q 489 151 506 185 q 442 92 472 118 q 367 51 411 67 q 269 36 324 36 q 250 37 260 36 q 229 39 240 38 q 223 75 226 49 q 217 131 219 101 q 214 185 215 160 q 213 222 213 211 z "},"":{"ha":592,"x_min":32,"x_max":561,"o":"m 32 306 l 36 529 q 104 585 63 567 q 135 611 114 599 q 189 638 157 624 q 223 655 210 647 q 247 667 236 663 q 269 674 258 672 q 296 676 281 676 q 353 689 326 678 q 410 700 381 700 q 435 697 425 700 q 458 682 444 693 l 458 672 q 459 658 458 667 q 460 642 460 650 l 460 632 q 451 570 460 597 q 442 513 442 543 l 442 496 q 515 453 481 482 q 556 375 550 424 q 519 250 561 315 q 406 126 476 185 q 363 94 383 107 q 323 76 342 81 q 288 80 304 72 q 260 111 272 88 q 289 126 276 121 q 313 137 301 132 q 334 147 324 142 q 357 164 344 153 q 397 219 382 189 q 411 285 411 250 q 396 334 411 321 q 358 350 381 347 q 312 350 336 353 q 271 351 288 347 q 260 389 261 374 q 265 415 260 404 q 278 435 269 426 q 294 456 286 444 q 320 497 310 475 q 331 539 331 519 q 325 564 331 553 q 304 575 319 575 q 272 569 293 575 q 231 551 251 563 q 197 523 211 539 q 182 488 182 507 q 174 365 179 449 q 164 146 169 281 l 164 114 q 165 42 164 83 q 169 -32 167 0 q 143 -117 175 -117 q 115 -115 133 -117 q 79 -106 97 -112 q 48 -90 61 -100 q 35 -64 35 -81 l 32 306 z "},"":{"ha":744,"x_min":15,"x_max":715,"o":"m 272 735 q 292 746 283 742 q 311 757 301 750 q 322 778 322 764 q 315 804 322 774 q 297 835 307 824 q 278 853 288 846 q 258 877 264 869 q 229 899 251 885 l 99 899 l 185 818 q 206 797 197 807 q 223 776 214 786 q 243 755 232 765 q 272 735 254 744 m 47 193 q 60 120 47 156 q 94 58 72 85 q 149 15 117 31 q 219 -1 181 -1 q 280 15 253 -1 q 333 51 307 31 q 384 87 358 71 q 439 103 410 103 l 456 101 q 472 83 460 94 q 501 58 485 71 q 531 33 517 44 q 553 18 546 22 q 565 17 554 18 q 582 17 575 17 q 625 24 601 17 q 669 47 649 32 q 702 81 689 61 q 715 126 715 101 l 715 135 q 647 170 685 142 q 556 255 610 199 q 431 397 503 311 q 261 603 360 482 q 244 624 254 613 q 223 645 235 635 q 198 663 211 656 q 171 669 185 669 l 163 669 q 158 668 160 669 q 124 653 147 664 q 76 629 100 643 q 33 598 51 615 q 15 563 15 581 q 50 553 15 554 q 140 526 89 553 q 211 385 211 426 q 185 352 211 369 q 129 312 160 335 q 73 260 99 289 q 47 193 47 231 m 181 242 q 203 289 181 269 q 253 308 225 308 l 256 308 q 303 294 281 308 q 343 259 326 279 q 369 218 360 239 q 379 183 379 197 q 367 162 379 172 q 339 144 354 151 q 310 131 324 136 q 296 126 297 126 l 288 126 q 249 138 268 126 q 215 166 231 149 q 190 203 200 183 q 181 242 181 224 z "},"":{"ha":744,"x_min":15,"x_max":715,"o":"m 171 757 l 213 735 q 241 755 229 744 q 262 776 253 765 q 279 797 271 786 q 300 818 288 807 l 386 899 l 256 899 q 227 877 233 885 q 207 853 221 869 q 168 804 183 838 q 163 783 165 790 q 161 776 161 776 q 171 757 161 763 m 47 193 q 60 120 47 156 q 94 58 72 85 q 149 15 117 31 q 219 -1 181 -1 q 280 15 253 -1 q 333 51 307 31 q 384 87 358 71 q 439 103 410 103 l 456 101 q 472 83 460 94 q 501 58 485 71 q 531 33 517 44 q 553 18 546 22 q 565 17 554 18 q 582 17 575 17 q 625 24 601 17 q 669 47 649 32 q 702 81 689 61 q 715 126 715 101 l 715 135 q 647 170 685 142 q 556 255 610 199 q 431 397 503 311 q 261 603 360 482 q 244 624 254 613 q 223 645 235 635 q 198 663 211 656 q 171 669 185 669 l 163 669 q 158 668 160 669 q 124 653 147 664 q 76 629 100 643 q 33 598 51 615 q 15 563 15 581 q 50 553 15 554 q 140 526 89 553 q 211 385 211 426 q 185 352 211 369 q 129 312 160 335 q 73 260 99 289 q 47 193 47 231 m 181 242 q 203 289 181 269 q 253 308 225 308 l 256 308 q 303 294 281 308 q 343 259 326 279 q 369 218 360 239 q 379 183 379 197 q 367 162 379 172 q 339 144 354 151 q 310 131 324 136 q 296 126 297 126 l 288 126 q 249 138 268 126 q 215 166 231 149 q 190 203 200 183 q 181 242 181 224 z "},"":{"ha":744,"x_min":15,"x_max":715,"o":"m 251 901 l 68 736 l 208 736 q 237 759 231 751 q 257 783 243 767 q 267 791 264 789 q 278 793 271 793 q 285 792 282 793 q 293 790 289 792 q 317 776 307 782 q 333 764 326 769 q 348 752 340 758 q 367 736 356 746 l 468 736 q 394 803 426 775 q 338 849 361 831 q 291 879 313 867 q 251 901 269 892 m 47 193 q 60 120 47 156 q 94 58 72 85 q 149 15 117 31 q 219 -1 181 -1 q 280 15 253 -1 q 333 51 307 31 q 384 87 358 71 q 439 103 410 103 l 456 101 q 472 83 460 94 q 501 58 485 71 q 531 33 517 44 q 553 18 546 22 q 565 17 554 18 q 582 17 575 17 q 625 24 601 17 q 669 47 649 32 q 702 81 689 61 q 715 126 715 101 l 715 135 q 647 170 685 142 q 556 255 610 199 q 431 397 503 311 q 261 603 360 482 q 244 624 254 613 q 223 645 235 635 q 198 663 211 656 q 171 669 185 669 l 163 669 q 158 668 160 669 q 124 653 147 664 q 76 629 100 643 q 33 598 51 615 q 15 563 15 581 q 50 553 15 554 q 140 526 89 553 q 211 385 211 426 q 185 352 211 369 q 129 312 160 335 q 73 260 99 289 q 47 193 47 231 m 181 242 q 203 289 181 269 q 253 308 225 308 l 256 308 q 303 294 281 308 q 343 259 326 279 q 369 218 360 239 q 379 183 379 197 q 367 162 379 172 q 339 144 354 151 q 310 131 324 136 q 296 126 297 126 l 288 126 q 249 138 268 126 q 215 166 231 149 q 190 203 200 183 q 181 242 181 224 z "},"":{"ha":744,"x_min":15,"x_max":715,"o":"m 265 735 l 296 735 q 335 755 314 746 q 386 790 357 764 q 504 900 424 811 l 421 900 q 386 872 401 882 q 343 847 371 863 q 322 841 332 843 q 304 835 313 839 q 288 843 294 836 q 272 860 281 850 q 253 881 264 869 q 224 901 242 892 q 182 881 206 890 q 133 851 158 871 q 84 807 113 836 q 19 736 56 778 l 99 736 q 133 765 118 756 q 176 790 149 774 q 187 792 183 792 q 190 793 190 793 q 219 783 206 793 q 240 759 233 768 q 265 735 246 750 m 47 193 q 60 120 47 156 q 94 58 72 85 q 149 15 117 31 q 219 -1 181 -1 q 280 15 253 -1 q 333 51 307 31 q 384 87 358 71 q 439 103 410 103 l 456 101 q 472 83 460 94 q 501 58 485 71 q 531 33 517 44 q 553 18 546 22 q 565 17 554 18 q 582 17 575 17 q 625 24 601 17 q 669 47 649 32 q 702 81 689 61 q 715 126 715 101 l 715 135 q 647 170 685 142 q 556 255 610 199 q 431 397 503 311 q 261 603 360 482 q 244 624 254 613 q 223 645 235 635 q 198 663 211 656 q 171 669 185 669 l 163 669 q 158 668 160 669 q 124 653 147 664 q 76 629 100 643 q 33 598 51 615 q 15 563 15 581 q 50 553 15 554 q 140 526 89 553 q 211 385 211 426 q 185 352 211 369 q 129 312 160 335 q 73 260 99 289 q 47 193 47 231 m 181 242 q 203 289 181 269 q 253 308 225 308 l 256 308 q 303 294 281 308 q 343 259 326 279 q 369 218 360 239 q 379 183 379 197 q 367 162 379 172 q 339 144 354 151 q 310 131 324 136 q 296 126 297 126 l 288 126 q 249 138 268 126 q 215 166 231 149 q 190 203 200 183 q 181 242 181 224 z "},"":{"ha":744,"x_min":15,"x_max":715,"o":"m 303 829 q 386 733 308 733 q 419 737 401 733 q 453 748 438 740 q 478 769 468 756 q 489 801 489 782 q 488 809 489 804 q 488 815 488 814 q 426 890 444 883 q 400 897 415 897 q 392 899 399 899 q 358 892 374 899 q 331 874 343 885 q 312 851 319 864 q 303 829 304 839 m 49 814 q 70 756 49 778 q 131 733 92 733 q 163 736 146 733 q 194 747 179 739 q 213 763 206 753 q 224 785 219 774 q 229 804 228 796 q 231 815 231 813 q 169 890 188 883 q 143 897 158 897 q 135 899 142 899 q 74 874 99 899 q 49 814 49 850 m 47 193 q 60 120 47 156 q 94 58 72 85 q 149 15 117 31 q 219 -1 181 -1 q 280 15 253 -1 q 333 51 307 31 q 384 87 358 71 q 439 103 410 103 l 456 101 q 472 83 460 94 q 501 58 485 71 q 531 33 517 44 q 553 18 546 22 q 565 17 554 18 q 582 17 575 17 q 625 24 601 17 q 669 47 649 32 q 702 81 689 61 q 715 126 715 101 l 715 135 q 647 170 685 142 q 556 255 610 199 q 431 397 503 311 q 261 603 360 482 q 244 624 254 613 q 223 645 235 635 q 198 663 211 656 q 171 669 185 669 l 163 669 q 158 668 160 669 q 124 653 147 664 q 76 629 100 643 q 33 598 51 615 q 15 563 15 581 q 50 553 15 554 q 140 526 89 553 q 211 385 211 426 q 185 352 211 369 q 129 312 160 335 q 73 260 99 289 q 47 193 47 231 m 181 242 q 203 289 181 269 q 253 308 225 308 l 256 308 q 303 294 281 308 q 343 259 326 279 q 369 218 360 239 q 379 183 379 197 q 367 162 379 172 q 339 144 354 151 q 310 131 324 136 q 296 126 297 126 l 288 126 q 249 138 268 126 q 215 166 231 149 q 190 203 200 183 q 181 242 181 224 z "},"":{"ha":744,"x_min":15,"x_max":715,"o":"m 156 819 q 164 836 156 828 q 185 844 172 844 q 188 843 188 844 l 190 843 q 198 839 193 843 q 218 815 203 835 l 219 810 q 206 790 219 796 q 183 785 192 785 q 156 819 156 785 m 104 814 q 126 756 104 778 q 185 733 147 733 q 217 736 200 733 q 250 747 235 739 q 268 763 261 753 q 279 785 275 774 q 285 804 283 796 q 286 815 286 813 q 224 890 242 883 q 199 897 213 897 q 190 899 197 899 q 129 874 154 899 q 104 814 104 850 m 47 193 q 60 120 47 156 q 94 58 72 85 q 149 15 117 31 q 219 -1 181 -1 q 280 15 253 -1 q 333 51 307 31 q 384 87 358 71 q 439 103 410 103 l 456 101 q 472 83 460 94 q 501 58 485 71 q 531 33 517 44 q 553 18 546 22 q 565 17 554 18 q 582 17 575 17 q 625 24 601 17 q 669 47 649 32 q 702 81 689 61 q 715 126 715 101 l 715 135 q 647 170 685 142 q 556 255 610 199 q 431 397 503 311 q 261 603 360 482 q 244 624 254 613 q 223 645 235 635 q 198 663 211 656 q 171 669 185 669 l 163 669 q 158 668 160 669 q 124 653 147 664 q 76 629 100 643 q 33 598 51 615 q 15 563 15 581 q 50 553 15 554 q 140 526 89 553 q 211 385 211 426 q 185 352 211 369 q 129 312 160 335 q 73 260 99 289 q 47 193 47 231 m 181 242 q 203 289 181 269 q 253 308 225 308 l 256 308 q 303 294 281 308 q 343 259 326 279 q 369 218 360 239 q 379 183 379 197 q 367 162 379 172 q 339 144 354 151 q 310 131 324 136 q 296 126 297 126 l 288 126 q 249 138 268 126 q 215 166 231 149 q 190 203 200 183 q 181 242 181 224 z "},"":{"ha":1213,"x_min":15,"x_max":1174,"o":"m 47 193 q 73 260 47 231 q 129 312 99 289 q 185 352 160 335 q 211 385 211 369 q 140 526 211 426 q 50 553 89 553 q 15 563 15 554 q 36 600 15 582 q 83 633 57 618 q 132 657 108 647 q 163 669 156 667 l 171 669 q 198 663 185 669 q 222 645 211 656 q 243 624 233 635 q 260 603 253 613 q 283 576 265 596 q 324 528 300 556 q 374 469 347 500 q 424 408 400 438 q 491 508 450 460 q 580 592 532 556 q 681 649 628 628 q 783 671 733 671 q 837 660 813 671 q 883 633 861 650 q 924 593 904 615 q 963 547 943 571 l 963 524 q 947 488 956 503 q 929 461 938 472 q 972 443 947 443 l 1017 443 q 1085 452 1053 443 q 1149 461 1117 461 l 1157 461 q 1167 454 1161 460 q 1174 446 1172 449 q 1149 417 1167 438 q 1111 377 1132 397 q 1067 341 1090 357 q 1026 325 1044 325 l 526 325 q 532 285 526 294 q 570 240 549 264 q 616 194 592 215 q 666 156 640 172 q 715 135 692 139 l 715 133 q 801 121 761 121 q 837 126 821 121 q 868 139 853 132 q 900 151 883 146 q 938 157 917 157 q 910 87 938 117 q 843 38 882 57 q 762 8 804 18 q 690 -1 719 -1 q 639 3 665 -1 q 585 17 613 8 l 582 17 q 565 17 575 17 q 553 18 554 18 q 531 33 546 22 q 501 58 517 44 q 472 83 485 71 q 456 101 460 94 q 447 102 453 101 q 439 103 442 103 q 384 87 410 103 q 333 51 358 71 q 280 15 307 31 q 219 -1 253 -1 q 149 15 181 -1 q 94 58 117 31 q 60 120 72 85 q 47 193 47 156 m 774 536 q 744 552 758 546 q 710 558 729 558 q 658 546 685 558 q 607 512 631 533 q 568 463 583 490 q 553 406 553 435 q 686 426 615 406 q 747 443 722 438 q 782 450 771 449 q 822 469 807 454 q 806 508 817 500 q 795 518 803 511 q 774 536 788 525 m 181 242 q 190 203 181 224 q 215 166 200 183 q 249 138 231 149 q 288 126 268 126 l 296 126 q 310 131 297 126 q 339 144 324 136 q 367 162 354 151 q 379 183 379 172 q 365 219 379 197 q 332 260 351 240 q 291 294 313 279 q 256 308 269 308 q 204 290 228 308 q 181 242 181 271 z "},"":{"ha":676,"x_min":17,"x_max":636,"o":"m 247 -61 l 274 0 q 86 78 156 7 q 17 286 17 149 q 51 440 17 369 q 143 563 86 511 q 274 645 200 615 q 426 675 349 675 q 478 671 449 675 q 536 656 508 667 q 583 627 564 646 q 603 579 603 608 q 594 546 603 558 q 570 527 585 533 q 538 519 556 521 q 504 518 521 518 q 456 524 479 518 q 408 536 432 529 q 358 549 383 543 q 307 554 333 554 q 238 537 265 554 q 193 491 210 519 q 169 425 176 463 q 161 346 161 388 q 217 177 161 238 q 376 117 272 117 q 448 130 417 117 q 507 163 479 143 q 564 193 533 179 q 608 204 608 204 q 619 203 618 204 q 636 158 636 200 q 635 140 636 150 q 633 118 635 129 q 610 103 626 115 q 575 78 594 92 q 567 72 569 74 q 564 69 564 69 q 542 51 551 58 q 521 37 532 43 q 494 24 510 31 q 451 8 478 18 q 402 1 426 3 q 354 0 378 0 l 340 -39 q 421 -67 394 -46 q 447 -117 447 -89 q 397 -194 436 -164 q 290 -225 358 -225 l 275 -225 q 228 -217 249 -222 q 194 -201 208 -212 l 169 -136 q 221 -151 231 -151 l 247 -151 q 326 -136 303 -151 q 343 -112 343 -128 q 340 -101 343 -107 q 327 -87 338 -94 q 298 -74 317 -81 q 247 -61 279 -67 z "},"":{"ha":832,"x_min":19,"x_max":800,"o":"m 385 735 q 356 755 367 744 q 335 776 344 765 q 318 797 326 786 q 297 818 310 807 l 211 901 l 342 901 q 370 877 364 885 q 390 853 376 869 q 410 835 400 846 q 428 804 419 824 q 435 778 435 774 q 424 757 435 764 q 405 746 414 750 q 385 735 396 742 m 338 558 q 285 546 313 558 q 233 512 257 533 q 194 463 210 490 q 179 406 179 435 q 244 411 211 406 q 313 426 276 417 q 354 435 336 432 q 388 442 372 439 q 419 451 404 446 q 450 468 433 457 q 433 508 442 501 q 420 521 429 513 q 399 538 411 529 q 371 552 386 546 q 338 558 356 558 m 19 278 q 56 416 19 346 q 150 542 93 486 q 276 635 207 599 q 410 671 344 671 q 508 635 468 671 q 589 550 547 600 q 590 541 589 549 q 590 529 590 533 q 583 495 590 510 q 557 461 575 481 q 599 443 575 443 l 644 443 q 712 452 681 443 q 776 461 743 461 l 785 461 q 793 454 788 460 q 800 446 799 449 l 796 442 q 771 411 788 431 q 734 372 754 392 q 693 339 714 353 q 654 325 672 325 q 592 329 622 328 q 529 331 561 331 q 396 324 461 331 q 264 317 331 317 q 209 318 236 317 q 154 325 182 319 q 182 238 154 276 q 251 174 210 200 q 340 134 293 147 q 428 121 388 121 q 463 126 447 121 q 495 139 479 132 q 528 151 511 146 q 565 157 544 157 q 538 87 565 117 q 471 38 510 57 q 390 8 432 18 q 318 -1 347 -1 q 207 19 261 -1 q 111 76 153 39 q 44 164 69 113 q 19 278 19 215 z "},"":{"ha":832,"x_min":19,"x_max":800,"o":"m 300 735 q 281 746 290 742 q 260 757 271 750 q 247 775 247 763 q 257 804 247 786 q 296 853 274 843 q 315 877 308 868 q 344 901 321 886 l 474 901 l 388 818 q 367 797 375 807 q 349 776 358 786 q 328 755 340 765 q 300 735 317 744 m 19 278 q 56 416 19 346 q 150 542 93 486 q 276 635 207 599 q 410 671 344 671 q 508 635 468 671 q 589 550 547 600 q 590 541 589 549 q 590 529 590 533 q 583 495 590 510 q 557 461 575 481 q 599 443 575 443 l 644 443 q 712 452 681 443 q 776 461 743 461 l 785 461 q 793 454 788 460 q 800 446 799 449 l 796 442 q 771 411 788 431 q 734 372 754 392 q 693 339 714 353 q 654 325 672 325 q 592 329 622 328 q 529 331 561 331 q 396 324 461 331 q 264 317 331 317 q 209 318 236 317 q 154 325 182 319 q 182 238 154 276 q 251 174 210 200 q 340 134 293 147 q 428 121 388 121 q 463 126 447 121 q 495 139 479 132 q 528 151 511 146 q 565 157 544 157 q 538 87 565 117 q 471 38 510 57 q 390 8 432 18 q 318 -1 347 -1 q 207 19 261 -1 q 111 76 153 39 q 44 164 69 113 q 19 278 19 215 m 338 558 q 285 546 313 558 q 233 512 257 533 q 194 463 210 490 q 179 406 179 435 q 244 411 211 406 q 313 426 276 417 q 354 435 336 432 q 388 442 372 439 q 419 451 404 446 q 450 468 433 457 q 433 508 442 501 q 420 521 429 513 q 399 538 411 529 q 371 552 386 546 q 338 558 356 558 z "},"":{"ha":832,"x_min":19,"x_max":800,"o":"m 319 901 q 359 879 338 892 q 406 849 381 867 q 462 803 429 831 q 536 736 494 775 l 432 736 q 399 764 413 756 q 361 786 386 772 l 354 790 q 346 792 353 792 q 325 783 343 792 q 305 759 311 767 q 276 735 299 751 l 136 735 l 232 819 q 272 860 257 839 q 319 901 286 882 m 19 278 q 56 416 19 346 q 150 542 93 486 q 276 635 207 599 q 410 671 344 671 q 508 635 468 671 q 589 550 547 600 q 590 541 589 549 q 590 529 590 533 q 583 495 590 510 q 557 461 575 481 q 599 443 575 443 l 644 443 q 712 452 681 443 q 776 461 743 461 l 785 461 q 793 454 788 460 q 800 446 799 449 l 796 442 q 771 411 788 431 q 734 372 754 392 q 693 339 714 353 q 654 325 672 325 q 592 329 622 328 q 529 331 561 331 q 396 324 461 331 q 264 317 331 317 q 209 318 236 317 q 154 325 182 319 q 182 238 154 276 q 251 174 210 200 q 340 134 293 147 q 428 121 388 121 q 463 126 447 121 q 495 139 479 132 q 528 151 511 146 q 565 157 544 157 q 538 87 565 117 q 471 38 510 57 q 390 8 432 18 q 318 -1 347 -1 q 207 19 261 -1 q 111 76 153 39 q 44 164 69 113 q 19 278 19 215 m 338 558 q 285 546 313 558 q 233 512 257 533 q 194 463 210 490 q 179 406 179 435 q 244 411 211 406 q 313 426 276 417 q 354 435 336 432 q 388 442 372 439 q 419 451 404 446 q 450 468 433 457 q 433 508 442 501 q 420 521 429 513 q 399 538 411 529 q 371 552 386 546 q 338 558 356 558 z "},"":{"ha":832,"x_min":19,"x_max":800,"o":"m 390 814 q 415 874 390 850 q 476 899 440 899 q 485 897 483 899 q 510 890 499 897 q 572 815 528 883 q 573 809 572 814 q 574 801 574 804 q 563 769 574 782 q 537 748 553 756 q 503 737 521 740 q 471 733 485 733 q 412 756 433 733 q 390 814 390 778 m 133 814 q 158 874 133 850 q 219 899 183 899 q 228 897 226 899 q 254 890 243 897 q 315 815 272 883 q 316 809 315 814 q 317 801 317 804 q 306 769 317 782 q 281 748 296 756 q 247 737 265 740 q 214 733 229 733 q 155 756 176 733 q 133 814 133 778 m 19 278 q 56 416 19 346 q 150 542 93 486 q 276 635 207 599 q 410 671 344 671 q 508 635 468 671 q 589 550 547 600 q 590 541 589 549 q 590 529 590 533 q 583 495 590 510 q 557 461 575 481 q 599 443 575 443 l 644 443 q 712 452 681 443 q 776 461 743 461 l 785 461 q 793 454 788 460 q 800 446 799 449 l 796 442 q 771 411 788 431 q 734 372 754 392 q 693 339 714 353 q 654 325 672 325 q 592 329 622 328 q 529 331 561 331 q 396 324 461 331 q 264 317 331 317 q 209 318 236 317 q 154 325 182 319 q 182 238 154 276 q 251 174 210 200 q 340 134 293 147 q 428 121 388 121 q 463 126 447 121 q 495 139 479 132 q 528 151 511 146 q 565 157 544 157 q 538 87 565 117 q 471 38 510 57 q 390 8 432 18 q 318 -1 347 -1 q 207 19 261 -1 q 111 76 153 39 q 44 164 69 113 q 19 278 19 215 m 338 558 q 285 546 313 558 q 233 512 257 533 q 194 463 210 490 q 179 406 179 435 q 244 411 211 406 q 313 426 276 417 q 354 435 336 432 q 388 442 372 439 q 419 451 404 446 q 450 468 433 457 q 433 508 442 501 q 420 521 429 513 q 399 538 411 529 q 371 552 386 546 q 338 558 356 558 z "},"":{"ha":376,"x_min":15,"x_max":342,"o":"m 189 735 q 208 746 199 742 q 228 757 217 750 q 238 776 238 763 q 235 783 238 776 q 231 804 233 790 q 193 853 215 840 q 173 877 179 869 q 144 899 167 885 l 15 899 l 101 818 q 122 797 114 807 q 140 776 131 786 q 160 755 149 765 q 189 735 171 744 m 65 81 q 69 60 65 74 q 80 34 74 47 q 95 10 86 21 q 114 0 104 0 q 143 -5 129 -3 q 169 -7 157 -7 q 194 -5 179 -7 q 228 0 208 -3 q 299 47 269 21 q 342 110 328 72 q 338 115 340 111 q 328 118 335 118 l 271 108 q 224 124 236 108 q 211 181 211 140 l 229 497 l 228 522 l 228 614 q 196 657 208 647 q 157 667 183 667 q 116 660 140 667 q 69 642 92 654 q 31 613 47 631 q 15 572 15 594 q 31 550 15 557 q 65 532 46 543 q 92 490 85 521 q 100 418 100 460 q 94 333 100 375 q 83 249 89 290 q 71 165 76 207 q 65 81 65 122 z "},"":{"ha":376,"x_min":15,"x_max":342,"o":"m 75 735 q 103 755 92 744 q 124 776 115 765 q 142 797 133 786 q 163 818 150 807 l 249 899 l 118 899 q 90 877 96 885 q 69 853 83 869 q 31 804 46 838 q 24 778 24 774 q 35 757 24 764 l 75 735 m 65 81 q 69 60 65 74 q 80 34 74 47 q 95 10 86 21 q 114 0 104 0 q 143 -5 129 -3 q 169 -7 157 -7 q 194 -5 179 -7 q 228 0 208 -3 q 299 47 269 21 q 342 110 328 72 q 338 115 340 111 q 328 118 335 118 l 271 108 q 224 124 236 108 q 211 181 211 140 l 229 497 l 228 522 l 228 614 q 196 657 208 647 q 157 667 183 667 q 116 660 140 667 q 69 642 92 654 q 31 613 47 631 q 15 572 15 594 q 31 550 15 557 q 65 532 46 543 q 92 490 85 521 q 100 418 100 460 q 94 333 100 375 q 83 249 89 290 q 71 165 76 207 q 65 81 65 122 z "},"":{"ha":376,"x_min":-58,"x_max":342,"o":"m 65 81 q 71 165 65 122 q 83 249 76 207 q 94 333 89 290 q 100 418 100 375 q 92 490 100 460 q 65 532 85 521 q 31 550 46 543 q 15 572 15 557 q 31 613 15 594 q 69 642 47 631 q 116 660 92 654 q 157 667 140 667 q 196 657 183 667 q 228 614 208 647 l 228 522 l 229 497 l 211 181 q 224 124 211 140 q 271 108 236 108 l 328 118 q 338 115 335 118 q 342 110 340 111 q 299 47 328 72 q 228 0 269 21 q 194 -5 208 -3 q 169 -7 179 -7 q 143 -5 157 -7 q 114 0 129 -3 q 95 10 104 0 q 80 34 86 21 q 69 60 74 47 q 65 81 65 74 m 125 901 q 165 879 143 892 q 211 849 186 867 q 267 803 235 831 q 342 736 300 775 l 193 736 q 160 769 169 753 q 138 785 151 785 l 131 783 q 115 776 119 781 q 108 764 111 771 q 99 750 104 757 q 81 736 93 743 l -58 736 l 38 819 q 59 840 50 829 q 76 860 68 850 q 96 881 85 871 q 125 901 107 892 z "},"":{"ha":376,"x_min":-71,"x_max":365,"o":"m 182 814 q 203 756 182 778 q 264 733 225 733 q 296 737 278 733 q 329 748 314 740 q 355 769 344 756 q 365 801 365 782 q 365 809 365 804 q 364 815 364 814 q 303 890 322 883 q 276 897 292 897 q 268 899 275 899 q 207 874 232 899 q 182 814 182 850 m -71 814 q -49 756 -71 778 q 10 733 -28 733 q 42 737 24 733 q 76 748 60 740 q 102 769 92 756 q 113 801 113 782 q 112 809 113 804 q 111 815 111 814 q 49 890 69 883 q 22 897 38 897 q 15 899 21 899 q -46 874 -21 899 q -71 814 -71 850 m 65 81 q 69 60 65 74 q 80 34 74 47 q 95 10 86 21 q 114 0 104 0 q 143 -5 129 -3 q 169 -7 157 -7 q 194 -5 179 -7 q 228 0 208 -3 q 299 47 269 21 q 342 110 328 72 q 338 115 340 111 q 328 118 335 118 l 271 108 q 224 124 236 108 q 211 181 211 140 l 229 497 l 228 522 l 228 614 q 196 657 208 647 q 157 667 183 667 q 116 660 140 667 q 69 642 92 654 q 31 613 47 631 q 15 572 15 594 q 31 550 15 557 q 65 532 46 543 q 92 490 85 521 q 100 418 100 460 q 94 333 100 375 q 83 249 89 290 q 71 165 76 207 q 65 81 65 122 z "}}}
